<svg xmlns="http://www.w3.org/2000/svg" xmlns:xlink="http://www.w3.org/1999/xlink" contentStyleType="text/css" data-diagram-type="STATE" height="1335px" preserveAspectRatio="none" style="width:1232px;height:1335px;background:#FFFFFF;" version="1.1" viewBox="0 0 1232 1335" width="1232px" zoomAndPan="magnify"><title>SOL25 Interpreter Execution Flow</title><defs/><g><g class="title" data-source-line="1"><text fill="#000000" font-family="sans-serif" font-size="14" font-weight="bold" lengthAdjust="spacing" textLength="267.1348" x="475.8276" y="22.9951">SOL25 Interpreter Execution Flow</text></g><path d="M19.5,521.2969 L808.4333,521.2969 A12.5,12.5 0 0 1 820.9333,533.7969 L820.9333,547.5938 L7,547.5938 L7,533.7969 A12.5,12.5 0 0 1 19.5,521.2969" fill="#F1F1F1" style="stroke:#F1F1F1;stroke-width:1;"/><rect fill="none" height="582.2969" rx="12.5" ry="12.5" style="stroke:#181818;stroke-width:0.5;" width="813.9333" x="7" y="521.2969"/><line style="stroke:#181818;stroke-width:0.5;" x1="7" x2="820.9333" y1="547.5938" y2="547.5938"/><text fill="#000000" font-family="sans-serif" font-size="14" lengthAdjust="spacing" textLength="102.5527" x="362.6903" y="539.292">MainExecution</text><ellipse cx="379.28" cy="568.5938" fill="#222222" rx="10" ry="10" style="stroke:#222222;stroke-width:1;"/><g id="MainExecution.MethodLookup"><rect fill="#F1F1F1" height="50" rx="12.5" ry="12.5" style="stroke:#181818;stroke-width:0.5;" width="123.3047" x="317.63" y="631.5938"/><line style="stroke:#181818;stroke-width:0.5;" x1="317.63" x2="440.9347" y1="657.8906" y2="657.8906"/><text fill="#000000" font-family="sans-serif" font-size="14" lengthAdjust="spacing" textLength="103.3047" x="327.63" y="649.5889">MethodLookup</text></g><g id="MainExecution.BuiltinMethod"><rect fill="#F1F1F1" height="50" rx="12.5" ry="12.5" style="stroke:#181818;stroke-width:0.5;" width="117.0156" x="250.78" y="734.5938"/><line style="stroke:#181818;stroke-width:0.5;" x1="250.78" x2="367.7956" y1="760.8906" y2="760.8906"/><text fill="#000000" font-family="sans-serif" font-size="14" lengthAdjust="spacing" textLength="97.0156" x="260.78" y="752.5889">BuiltinMethod</text></g><g id="MainExecution.UserMethod"><rect fill="#F1F1F1" height="50" rx="12.5" ry="12.5" style="stroke:#181818;stroke-width:0.5;" width="104.417" x="120.08" y="734.5938"/><line style="stroke:#181818;stroke-width:0.5;" x1="120.08" x2="224.497" y1="760.8906" y2="760.8906"/><text fill="#000000" font-family="sans-serif" font-size="14" lengthAdjust="spacing" textLength="84.417" x="130.08" y="752.5889">UserMethod</text></g><g id="MainExecution.AttributeAccess"><rect fill="#F1F1F1" height="50" rx="12.5" ry="12.5" style="stroke:#181818;stroke-width:0.5;" width="130.2363" x="402.17" y="734.5938"/><line style="stroke:#181818;stroke-width:0.5;" x1="402.17" x2="532.4063" y1="760.8906" y2="760.8906"/><text fill="#000000" font-family="sans-serif" font-size="14" lengthAdjust="spacing" textLength="110.2363" x="412.17" y="752.5889">AttributeAccess</text></g><g id="MainExecution.BlockExecution"><rect fill="#F1F1F1" height="50" rx="12.5" ry="12.5" style="stroke:#181818;stroke-width:0.5;" width="126.9961" x="131.79" y="837.5938"/><line style="stroke:#181818;stroke-width:0.5;" x1="131.79" x2="258.7861" y1="863.8906" y2="863.8906"/><text fill="#000000" font-family="sans-serif" font-size="14" lengthAdjust="spacing" textLength="106.9961" x="141.79" y="855.5889">BlockExecution</text></g><ellipse cx="408.28" cy="862.5938" fill="none" rx="11" ry="11" style="stroke:#222222;stroke-width:1;"/><ellipse cx="408.28" cy="862.5938" fill="#222222" rx="6" ry="6" style="stroke:#222222;stroke-width:1;"/><g id="MainExecution.ExpressionEvaluation"><rect fill="#F1F1F1" height="50" rx="12.5" ry="12.5" style="stroke:#181818;stroke-width:0.5;" width="170.1719" x="142.2" y="940.5938"/><line style="stroke:#181818;stroke-width:0.5;" x1="142.2" x2="312.3719" y1="966.8906" y2="966.8906"/><text fill="#000000" font-family="sans-serif" font-size="14" lengthAdjust="spacing" textLength="150.1719" x="152.2" y="958.5889">ExpressionEvaluation</text></g><g id="MainExecution.MessageSend"><rect fill="#F1F1F1" height="50" rx="12.5" ry="12.5" style="stroke:#181818;stroke-width:0.5;" width="116.6191" x="558.97" y="1043.5938"/><line style="stroke:#181818;stroke-width:0.5;" x1="558.97" x2="675.5891" y1="1069.8906" y2="1069.8906"/><text fill="#000000" font-family="sans-serif" font-size="14" lengthAdjust="spacing" textLength="96.6191" x="568.97" y="1061.5889">MessageSend</text></g><g id="MainExecution.VariableLookup"><rect fill="#F1F1F1" height="50" rx="12.5" ry="12.5" style="stroke:#181818;stroke-width:0.5;" width="128.5684" x="19" y="1043.5938"/><line style="stroke:#181818;stroke-width:0.5;" x1="19" x2="147.5684" y1="1069.8906" y2="1069.8906"/><text fill="#000000" font-family="sans-serif" font-size="14" lengthAdjust="spacing" textLength="108.5684" x="29" y="1061.5889">VariableLookup</text></g><g id="MainExecution.LiteralCreation"><rect fill="#F1F1F1" height="50" rx="12.5" ry="12.5" style="stroke:#181818;stroke-width:0.5;" width="123.5576" x="165.51" y="1043.5938"/><line style="stroke:#181818;stroke-width:0.5;" x1="165.51" x2="289.0676" y1="1069.8906" y2="1069.8906"/><text fill="#000000" font-family="sans-serif" font-size="14" lengthAdjust="spacing" textLength="103.5576" x="175.51" y="1061.5889">LiteralCreation</text></g><g id="MainExecution.BlockCreation"><rect fill="#F1F1F1" height="50" rx="12.5" ry="12.5" style="stroke:#181818;stroke-width:0.5;" width="117.4053" x="327.58" y="1043.5938"/><line style="stroke:#181818;stroke-width:0.5;" x1="327.58" x2="444.9853" y1="1069.8906" y2="1069.8906"/><text fill="#000000" font-family="sans-serif" font-size="14" lengthAdjust="spacing" textLength="97.4053" x="337.58" y="1061.5889">BlockCreation</text></g><!--link *start*MainExecution to MethodLookup--><g class="link" data-entity-1="*start*MainExecution" data-entity-2="MethodLookup" data-source-line="9" data-uid="lnk12" id="link_*start*MainExecution_MethodLookup"><path d="M379.28,578.7938 C379.28,591.1938 379.28,607.7038 379.28,625.1538" fill="none" id="*start*MainExecution-to-MethodLookup" style="stroke:#181818;stroke-width:1;"/><polygon fill="#181818" points="379.28,631.1538,383.28,622.1538,379.28,626.1538,375.28,622.1538,379.28,631.1538" style="stroke:#181818;stroke-width:1;"/><text fill="#000000" font-family="sans-serif" font-size="13" lengthAdjust="spacing" textLength="121.5259" x="380.28" y="609.6606">send "run" to Main</text></g><!--link MethodLookup to BuiltinMethod--><g class="link" data-entity-1="MethodLookup" data-entity-2="BuiltinMethod" data-source-line="11" data-uid="lnk14" id="link_MethodLookup_BuiltinMethod"><path d="M317.48,672.7138 C304.39,678.8738 292.16,687.5038 284.28,699.5938 C277.3,710.3138 278.4675,718.2211 285.3575,729.2811" fill="none" id="MethodLookup-to-BuiltinMethod" style="stroke:#181818;stroke-width:1;"/><polygon fill="#181818" points="288.53,734.3738,287.1663,724.6198,285.8862,730.1299,280.3761,728.8498,288.53,734.3738" style="stroke:#181818;stroke-width:1;"/><text fill="#000000" font-family="sans-serif" font-size="13" lengthAdjust="spacing" textLength="167.959" x="285.28" y="712.6606">Method not found in class</text></g><!--link MethodLookup to UserMethod--><g class="link" data-entity-1="MethodLookup" data-entity-2="UserMethod" data-source-line="12" data-uid="lnk16" id="link_MethodLookup_UserMethod"><path d="M317.55,663.5538 C267.63,669.6538 202.73,680.9337 184.28,699.5938 C175.39,708.5838 172.6668,716.2797 171.7968,728.1997" fill="none" id="MethodLookup-to-UserMethod" style="stroke:#181818;stroke-width:1;"/><polygon fill="#181818" points="171.36,734.1837,176.0045,725.4988,171.724,729.197,168.0257,724.9165,171.36,734.1837" style="stroke:#181818;stroke-width:1;"/><text fill="#000000" font-family="sans-serif" font-size="13" lengthAdjust="spacing" textLength="90.1494" x="185.28" y="712.6606">Method found</text></g><!--link MethodLookup to AttributeAccess--><g class="link" data-entity-1="MethodLookup" data-entity-2="AttributeAccess" data-source-line="13" data-uid="lnk18" id="link_MethodLookup_AttributeAccess"><path d="M434.75,682.0638 C441.76,687.0438 448.23,692.8638 453.28,699.5938 C460.74,709.5338 463.4348,716.9065 465.1048,728.3665" fill="none" id="MethodLookup-to-AttributeAccess" style="stroke:#181818;stroke-width:1;"/><polygon fill="#181818" points="465.97,734.3038,468.6304,724.821,465.249,729.356,460.714,725.9746,465.97,734.3038" style="stroke:#181818;stroke-width:1;"/><text fill="#000000" font-family="sans-serif" font-size="13" lengthAdjust="spacing" textLength="198.9355" x="462.28" y="712.6606">Not method but valid attribute</text></g><!--link UserMethod to BlockExecution--><g class="link" data-entity-1="UserMethod" data-entity-2="BlockExecution" data-source-line="15" data-uid="lnk20" id="link_UserMethod_BlockExecution"><path d="M176.94,785.0638 C179.05,795.7038 181.66,808.2938 184.28,819.5938 C185.62,825.3238 185.6504,825.6468 187.1504,831.4168" fill="none" id="UserMethod-to-BlockExecution" style="stroke:#181818;stroke-width:1;"/><polygon fill="#181818" points="188.66,837.2238,190.2669,827.5069,187.402,832.3846,182.5243,829.5197,188.66,837.2238" style="stroke:#181818;stroke-width:1;"/><text fill="#000000" font-family="sans-serif" font-size="13" lengthAdjust="spacing" textLength="143.0063" x="185.28" y="815.6606">Execute method body</text></g><!--link BuiltinMethod to *end*MainExecution--><g class="link" data-entity-1="BuiltinMethod" data-entity-2="*end*MainExecution" data-source-line="16" data-uid="lnk22" id="link_BuiltinMethod_*end*MainExecution"><path d="M324.05,784.9038 C331.47,796.1038 341.06,809.1938 351.28,819.5938 C366.28,834.8438 382.1307,845.6019 394.0007,852.9619" fill="none" id="BuiltinMethod-to-*end*MainExecution" style="stroke:#181818;stroke-width:1;"/><polygon fill="#181818" points="399.1,856.1238,393.5589,847.9815,394.8506,853.4889,389.3432,854.7805,399.1,856.1238" style="stroke:#181818;stroke-width:1;"/><text fill="#000000" font-family="sans-serif" font-size="13" lengthAdjust="spacing" textLength="85.1475" x="352.28" y="815.6606">Return result</text></g><!--link AttributeAccess to *end*MainExecution--><g class="link" data-entity-1="AttributeAccess" data-entity-2="*end*MainExecution" data-source-line="17" data-uid="lnk23" id="link_AttributeAccess_*end*MainExecution"><path d="M458.77,784.8738 C454.48,795.8338 448.81,808.7238 442.28,819.5938 C434.46,832.6238 426.9835,841.5693 419.5735,849.6193" fill="none" id="AttributeAccess-to-*end*MainExecution" style="stroke:#181818;stroke-width:1;"/><polygon fill="#181818" points="415.51,854.0338,424.5483,850.121,418.8963,850.355,418.6623,844.703,415.51,854.0338" style="stroke:#181818;stroke-width:1;"/><text fill="#000000" font-family="sans-serif" font-size="13" lengthAdjust="spacing" textLength="146.2183" x="451.28" y="815.6606">Return or set attribute</text></g><!--link BlockExecution to ExpressionEvaluation--><g class="link" data-entity-1="BlockExecution" data-entity-2="ExpressionEvaluation" data-source-line="19" data-uid="lnk25" id="link_BlockExecution_ExpressionEvaluation"><path d="M203.03,888.0438 C208.06,903.9238 212.7773,918.8141 217.7973,934.6541" fill="none" id="BlockExecution-to-ExpressionEvaluation" style="stroke:#181818;stroke-width:1;"/><polygon fill="#181818" points="219.61,940.3738,220.7041,930.5859,218.0994,935.6074,213.0779,933.0027,219.61,940.3738" style="stroke:#181818;stroke-width:1;"/><text fill="#000000" font-family="sans-serif" font-size="13" lengthAdjust="spacing" textLength="136.3477" x="214.28" y="918.6606">Process assignments</text></g><!--link ExpressionEvaluation to MessageSend--><g class="link" data-entity-1="ExpressionEvaluation" data-entity-2="MessageSend" data-source-line="20" data-uid="lnk27" id="link_ExpressionEvaluation_MessageSend"><path d="M312.75,971.0238 C370.38,975.9738 447.44,986.4438 512.28,1008.5938 C519.14,1010.9338 544.116,1025.0101 570.366,1040.1901" fill="none" id="ExpressionEvaluation-to-MessageSend" style="stroke:#181818;stroke-width:1;"/><polygon fill="#181818" points="575.56,1043.1938,569.7714,1035.2256,571.2316,1040.6907,565.7665,1042.151,575.56,1043.1938" style="stroke:#181818;stroke-width:1;"/><text fill="#000000" font-family="sans-serif" font-size="13" lengthAdjust="spacing" textLength="128.5718" x="543.28" y="1021.6606">Process send nodes</text></g><!--link ExpressionEvaluation to VariableLookup--><g class="link" data-entity-1="ExpressionEvaluation" data-entity-2="VariableLookup" data-source-line="21" data-uid="lnk29" id="link_ExpressionEvaluation_VariableLookup"><path d="M141.93,983.8638 C127.68,989.8238 114.05,997.8238 103.28,1008.5938 C94.11,1017.7738 90.4736,1025.4538 87.7836,1037.2538" fill="none" id="ExpressionEvaluation-to-VariableLookup" style="stroke:#181818;stroke-width:1;"/><polygon fill="#181818" points="86.45,1043.1038,92.3503,1035.2179,87.5613,1038.2288,84.5504,1033.4398,86.45,1043.1038" style="stroke:#181818;stroke-width:1;"/><text fill="#000000" font-family="sans-serif" font-size="13" lengthAdjust="spacing" textLength="118.314" x="104.28" y="1021.6606">Process var nodes</text></g><!--link ExpressionEvaluation to LiteralCreation--><g class="link" data-entity-1="ExpressionEvaluation" data-entity-2="LiteralCreation" data-source-line="22" data-uid="lnk31" id="link_ExpressionEvaluation_LiteralCreation"><path d="M227.28,991.0438 C227.28,1006.9237 227.28,1021.5338 227.28,1037.3738" fill="none" id="ExpressionEvaluation-to-LiteralCreation" style="stroke:#181818;stroke-width:1;"/><polygon fill="#181818" points="227.28,1043.3738,231.28,1034.3738,227.28,1038.3738,223.28,1034.3738,227.28,1043.3738" style="stroke:#181818;stroke-width:1;"/><text fill="#000000" font-family="sans-serif" font-size="13" lengthAdjust="spacing" textLength="134.5513" x="228.28" y="1021.6606">Process literal nodes</text></g><!--link ExpressionEvaluation to BlockCreation--><g class="link" data-entity-1="ExpressionEvaluation" data-entity-2="BlockCreation" data-source-line="23" data-uid="lnk33" id="link_ExpressionEvaluation_BlockCreation"><path d="M312.68,979.7338 C331.46,985.9538 349.98,995.1138 364.28,1008.5938 C373.91,1017.6637 377.8558,1025.5328 380.9158,1037.4328" fill="none" id="ExpressionEvaluation-to-BlockCreation" style="stroke:#181818;stroke-width:1;"/><polygon fill="#181818" points="382.41,1043.2438,384.0426,1033.5311,381.1648,1038.4013,376.2947,1035.5235,382.41,1043.2438" style="stroke:#181818;stroke-width:1;"/><text fill="#000000" font-family="sans-serif" font-size="13" lengthAdjust="spacing" textLength="131.8027" x="376.28" y="1021.6606">Process block nodes</text></g><!--link MessageSend to MethodLookup--><g class="link" data-entity-1="MessageSend" data-entity-2="MethodLookup" data-source-line="25" data-uid="lnk34" id="link_MessageSend_MethodLookup"><path d="M659.78,1043.1738 C666.04,1038.0438 671.86,1032.1638 676.28,1025.5938 C691.34,1003.2338 690.28,993.5438 690.28,966.5938 C690.28,758.5938 690.28,758.5938 690.28,758.5938 C690.28,730.1138 687.82,717.0038 665.28,699.5938 C631.28,673.3138 520.7824,663.705 447.3824,660.015" fill="none" id="MessageSend-to-MethodLookup" style="stroke:#181818;stroke-width:1;"/><polygon fill="#181818" points="441.39,659.7138,450.1778,664.1606,446.3837,659.9648,450.5795,656.1707,441.39,659.7138" style="stroke:#181818;stroke-width:1;"/><text fill="#000000" font-family="sans-serif" font-size="13" lengthAdjust="spacing" textLength="119.6533" x="691.28" y="867.1606">Dispatch message</text></g><ellipse cx="985.97" cy="53.2969" fill="#222222" rx="10" ry="10" style="stroke:#222222;stroke-width:1;"/><g id="Initialization"><rect fill="#F1F1F1" height="50" rx="12.5" ry="12.5" style="stroke:#181818;stroke-width:0.5;" width="105.374" x="933.28" y="140.2969"/><line style="stroke:#181818;stroke-width:0.5;" x1="933.28" x2="1038.654" y1="166.5938" y2="166.5938"/><text fill="#000000" font-family="sans-serif" font-size="14" lengthAdjust="spacing" textLength="85.374" x="943.28" y="158.292">Initialization</text></g><g id="AstLoading"><rect fill="#F1F1F1" height="50" rx="12.5" ry="12.5" style="stroke:#181818;stroke-width:0.5;" width="97.8408" x="937.05" y="267.2969"/><line style="stroke:#181818;stroke-width:0.5;" x1="937.05" x2="1034.8908" y1="293.5938" y2="293.5938"/><text fill="#000000" font-family="sans-serif" font-size="14" lengthAdjust="spacing" textLength="77.8408" x="947.05" y="285.292">AstLoading</text></g><g id="ClassLoading"><rect fill="#F1F1F1" height="50" rx="12.5" ry="12.5" style="stroke:#181818;stroke-width:0.5;" width="112.3125" x="834.81" y="394.2969"/><line style="stroke:#181818;stroke-width:0.5;" x1="834.81" x2="947.1225" y1="420.5938" y2="420.5938"/><text fill="#000000" font-family="sans-serif" font-size="14" lengthAdjust="spacing" textLength="92.3125" x="844.81" y="412.292">ClassLoading</text></g><ellipse cx="508.97" cy="1318.5969" fill="none" rx="11" ry="11" style="stroke:#222222;stroke-width:1;"/><ellipse cx="508.97" cy="1318.5969" fill="#222222" rx="6" ry="6" style="stroke:#222222;stroke-width:1;"/><g id="ErrorHandling"><rect fill="#F1F1F1" height="50" rx="12.5" ry="12.5" style="stroke:#181818;stroke-width:0.5;" width="117.084" x="767.42" y="1180.5969"/><line style="stroke:#181818;stroke-width:0.5;" x1="767.42" x2="884.504" y1="1206.8938" y2="1206.8938"/><text fill="#000000" font-family="sans-serif" font-size="14" lengthAdjust="spacing" textLength="97.084" x="777.42" y="1198.592">ErrorHandling</text></g><!--link *start* to Initialization--><g class="link" data-entity-1="*start*" data-entity-2="Initialization" data-source-line="3" data-uid="lnk4" id="link_*start*_Initialization"><path d="M985.97,63.6769 C985.97,80.4069 985.97,109.8969 985.97,133.9269" fill="none" id="*start*-to-Initialization" style="stroke:#181818;stroke-width:1;"/><polygon fill="#181818" points="985.97,139.9269,989.97,130.9269,985.97,134.9269,981.97,130.9269,985.97,139.9269" style="stroke:#181818;stroke-width:1;"/><text fill="#000000" font-family="sans-serif" font-size="13" lengthAdjust="spacing" textLength="152.6294" x="986.97" y="106.3638">Interpreter instantiated</text></g><!--link Initialization to AstLoading--><g class="link" data-entity-1="Initialization" data-entity-2="AstLoading" data-source-line="4" data-uid="lnk6" id="link_Initialization_AstLoading"><path d="M985.97,190.6969 C985.97,212.7269 985.97,238.9569 985.97,260.9669" fill="none" id="Initialization-to-AstLoading" style="stroke:#181818;stroke-width:1;"/><polygon fill="#181818" points="985.97,266.9669,989.97,257.9669,985.97,261.9669,981.97,257.9669,985.97,266.9669" style="stroke:#181818;stroke-width:1;"/><text fill="#000000" font-family="sans-serif" font-size="13" lengthAdjust="spacing" textLength="105.0347" x="986.97" y="233.3638">execute() called</text></g><!--link AstLoading to ClassLoading--><g class="link" data-entity-1="AstLoading" data-entity-2="ClassLoading" data-source-line="5" data-uid="lnk8" id="link_AstLoading_ClassLoading"><path d="M936.88,311.2769 C920.79,319.6869 904.6,331.4369 894.97,347.2969 C886.57,361.1269 885.2391,373.4062 886.4091,387.9562" fill="none" id="AstLoading-to-ClassLoading" style="stroke:#181818;stroke-width:1;"/><polygon fill="#181818" points="886.89,393.9369,890.1557,384.6452,886.4892,388.953,882.1815,385.2864,886.89,393.9369" style="stroke:#181818;stroke-width:1;"/><text fill="#000000" font-family="sans-serif" font-size="13" lengthAdjust="spacing" textLength="158.7993" x="895.97" y="360.3638">XML parsed successfully</text></g><!--link ClassLoading to MainExecution--><g class="link" data-entity-1="ClassLoading" data-entity-2="MainExecution" data-source-line="6" data-uid="lnk9" id="link_ClassLoading_MainExecution"><path d="M834.33,439.7969 C812.1,448.6969 786.95,460.3769 765.97,474.2969 C744.37,488.6269 727.6243,500.6454 706.5643,517.2254" fill="none" id="ClassLoading-to-MainExecution" style="stroke:#181818;stroke-width:1;"/><polygon fill="#181818" points="701.85,520.9369,711.3958,518.5126,705.7786,517.844,706.4472,512.2268,701.85,520.9369" style="stroke:#181818;stroke-width:1;"/><text fill="#000000" font-family="sans-serif" font-size="13" lengthAdjust="spacing" textLength="97.1382" x="766.97" y="487.3638">Classes loaded</text></g><!--link MainExecution to *end*--><g class="link" data-entity-1="MainExecution" data-entity-2="*end*" data-source-line="28" data-uid="lnk36" id="link_MainExecution_*end*"><path d="M468.68,1103.7969 C485.84,1194.8469 500.5985,1273.1907 505.9485,1301.5707" fill="none" id="MainExecution-to-*end*" style="stroke:#181818;stroke-width:1;"/><polygon fill="#181818" points="507.06,1307.4669,509.3235,1297.8817,506.1337,1302.5534,501.462,1299.3637,507.06,1307.4669" style="stroke:#181818;stroke-width:1;"/><text fill="#000000" font-family="sans-serif" font-size="13" lengthAdjust="spacing" textLength="120.2183" x="493.97" y="1210.1638">Program complete</text></g><!--link AstLoading to ErrorHandling--><g class="link" data-entity-1="AstLoading" data-entity-2="ErrorHandling" data-source-line="29" data-uid="lnk38" id="link_AstLoading_ErrorHandling"><path d="M1032.47,317.6569 C1043.1,325.5969 1053.01,335.4769 1058.97,347.2969 C1062.37,354.0469 1059.03,356.7469 1058.97,364.2969 C1056.08,692.9169 1225.79,828.5269 1045.97,1103.5969 C1010.26,1158.2069 942.8062,1182.4214 890.6362,1194.0514" fill="none" id="AstLoading-to-ErrorHandling" style="stroke:#181818;stroke-width:1;"/><polygon fill="#181818" points="884.78,1195.3569,894.4347,1197.3028,889.6602,1194.269,892.694,1189.4945,884.78,1195.3569" style="stroke:#181818;stroke-width:1;"/><text fill="#000000" font-family="sans-serif" font-size="13" lengthAdjust="spacing" textLength="116.0542" x="1067.97" y="487.3638">XML parsing error</text></g><!--link ClassLoading to ErrorHandling--><g class="link" data-entity-1="ClassLoading" data-entity-2="ErrorHandling" data-source-line="30" data-uid="lnk39" id="link_ClassLoading_ErrorHandling"><path d="M892.2,444.6669 C897.55,556.0069 916.29,1016.6569 867.97,1150.5969 C864.1,1161.3269 861.0203,1166.9538 853.9403,1175.6038" fill="none" id="ClassLoading-to-ErrorHandling" style="stroke:#181818;stroke-width:1;"/><polygon fill="#181818" points="850.14,1180.2469,858.9358,1175.8159,853.3069,1176.3777,852.7451,1170.7488,850.14,1180.2469" style="stroke:#181818;stroke-width:1;"/><text fill="#000000" font-family="sans-serif" font-size="13" lengthAdjust="spacing" textLength="135.6431" x="901.97" y="817.0138">Class definition error</text></g><!--link MainExecution to ErrorHandling--><g class="link" data-entity-1="MainExecution" data-entity-2="ErrorHandling" data-source-line="31" data-uid="lnk40" id="link_MainExecution_ErrorHandling"><path d="M719.87,1103.8669 C752.81,1135.1469 776.9084,1158.0261 796.0284,1176.1761" fill="none" id="MainExecution-to-ErrorHandling" style="stroke:#181818;stroke-width:1;"/><polygon fill="#181818" points="800.38,1180.3069,796.6065,1171.2096,796.7537,1176.8645,791.0987,1177.0117,800.38,1180.3069" style="stroke:#181818;stroke-width:1;"/><text fill="#000000" font-family="sans-serif" font-size="13" lengthAdjust="spacing" textLength="91" x="767.97" y="1146.6638">Runtime error</text></g><!--link ErrorHandling to *end*--><g class="link" data-entity-1="ErrorHandling" data-entity-2="*end*" data-source-line="32" data-uid="lnk41" id="link_ErrorHandling_*end*"><path d="M767.08,1227.2169 C689.2,1254.4869 563.0029,1298.6741 525.1029,1311.9441" fill="none" id="ErrorHandling-to-*end*" style="stroke:#181818;stroke-width:1;"/><polygon fill="#181818" points="519.44,1313.9269,529.2562,1314.728,524.1591,1312.2746,526.6125,1307.1774,519.44,1313.9269" style="stroke:#181818;stroke-width:1;"/><text fill="#000000" font-family="sans-serif" font-size="13" lengthAdjust="spacing" textLength="115.5527" x="668.97" y="1273.6638">Return error code</text></g><!--SRC=[ZPHDQzmm48Rl-XL3JcqXbq8lUoXiqmq9UDkIq58eFSnQiniHMJBIA4rQ-jyxadVZjTRG-61ip_lCfyPis1BSVcxUleDhnnJwG7A7rIErYOrtS6dzBwL-lFa9v-VlHMFOe3M_iHWN4yYuoEZ4pgHLfSpmCdBZKHkt4v1A17hr6bgqLe0ZQnPVM8nnb7zVDz1ZYAGXfhQb6BV9sYSraMLkZSQDsIy6FnJ1YaQYA4cHgLBzKI3NeSOryPtNZVVtgHS7aPo6iv3S6R0lO56NsqIQsG_9M3Pk-2xm_i5vXgrFuiWuQ7D6y_ZNIA5c2pSlNp87iv4kBaj7XFaaWRg1a-_m80FGW0VPcFXHe9AszUtzSTU6PthsvVLJuQRrPJHtRG4tn2au21IJvQAiSplH-Y2jvRdagcmokNgKCnQZlAwafdGuVL-2BywbeMRdEd8yD7PMFimsHjpHRPxfY9SHEw_fF_Gt30OtbfxFni710uQNy8sHDK5x4QWkm0wMbpWftPbniSdVZnpiZynOxypP_cXYZzpUoPoBJlrLQheQuzWapYvW1wtlUYlxNY_iAWGVhj1fEztO_4RPThghDL84e6bhyiz3eW_SQKOrU9FajzFHNZ-rdXoy8f8oDFq3]--></g></svg>