<svg xmlns="http://www.w3.org/2000/svg" xmlns:xlink="http://www.w3.org/1999/xlink" contentStyleType="text/css" data-diagram-type="ACTIVITY" height="1169px" preserveAspectRatio="none" style="width:957px;height:1169px;background:#FFFFFF;" version="1.1" viewBox="0 0 957 1169" width="957px" zoomAndPan="magnify"><title>SOL25 Interpreter - Execution Flow</title><defs/><g><g class="title" data-source-line="1"><text fill="#000000" font-family="sans-serif" font-size="14" font-weight="bold" lengthAdjust="spacing" textLength="277.8193" x="338.5542" y="32.9951">SOL25 Interpreter - Execution Flow</text></g><ellipse cx="290.6628" cy="57.2969" fill="#222222" rx="10" ry="10" style="stroke:#222222;stroke-width:1;"/><rect fill="#F1F1F1" height="33.9688" rx="12.5" ry="12.5" style="stroke:#181818;stroke-width:0.5;" width="160.8887" x="210.2184" y="87.2969"/><text fill="#000000" font-family="sans-serif" font-size="12" lengthAdjust="spacing" textLength="140.8887" x="220.2184" y="108.4355">Interpreter instantiated</text><rect fill="#F1F1F1" height="33.9688" rx="12.5" ry="12.5" style="stroke:#181818;stroke-width:0.5;" width="184.0977" x="198.614" y="141.2656"/><text fill="#000000" font-family="sans-serif" font-size="12" lengthAdjust="spacing" textLength="164.0977" x="208.614" y="162.4043">XML AST parsed via Source</text><path d="M420.8903,199.6523 L420.8903,208.2188 L400.8903,212.2188 L420.8903,216.2188 L420.8903,224.7852 A0,0 0 0 0 420.8903,224.7852 L707.9777,224.7852 A0,0 0 0 0 707.9777,224.7852 L707.9777,209.6523 L697.9777,199.6523 L420.8903,199.6523 A0,0 0 0 0 420.8903,199.6523" fill="#FEFFDD" style="stroke:#181818;stroke-width:0.5;"/><path d="M697.9777,199.6523 L697.9777,209.6523 L707.9777,209.6523 L697.9777,199.6523" fill="#FEFFDD" style="stroke:#181818;stroke-width:0.5;"/><text fill="#000000" font-family="sans-serif" font-size="13" lengthAdjust="spacing" textLength="266.0874" x="426.8903" y="216.7192">Built-in classes registered during loading</text><rect fill="#F1F1F1" height="33.9688" rx="12.5" ry="12.5" style="stroke:#181818;stroke-width:0.5;" width="220.4551" x="180.4352" y="195.2344"/><text fill="#000000" font-family="sans-serif" font-size="12" lengthAdjust="spacing" textLength="200.4551" x="190.4352" y="216.373">ClassTable loads class definitions</text><rect fill="#F1F1F1" height="33.9688" rx="12.5" ry="12.5" style="stroke:#181818;stroke-width:0.5;" width="150.6055" x="215.36" y="249.2031"/><text fill="#000000" font-family="sans-serif" font-size="12" lengthAdjust="spacing" textLength="130.6055" x="225.36" y="270.3418">Instantiate Main class</text><rect fill="#F1F1F1" height="33.9688" rx="12.5" ry="12.5" style="stroke:#181818;stroke-width:0.5;" width="241.4961" x="169.9147" y="303.1719"/><text fill="#000000" font-family="sans-serif" font-size="12" lengthAdjust="spacing" textLength="221.4961" x="179.9147" y="324.3105">Send 'run' message to Main instance</text><rect fill="none" height="515.1719" style="stroke:#000000;stroke-width:1.5;" width="935.9277" x="11" y="347.1406"/><path d="M162.1211,347.1406 L162.1211,356.4375 L152.1211,366.4375 L11,366.4375" fill="none" style="stroke:#000000;stroke-width:1.5;"/><text fill="#000000" font-family="sans-serif" font-size="14" lengthAdjust="spacing" textLength="141.1211" x="14" y="361.1357">Message Processing</text><rect fill="#F1F1F1" height="33.9688" rx="12.5" ry="12.5" style="stroke:#181818;stroke-width:0.5;" width="174.5586" x="203.3835" y="383.4375"/><text fill="#000000" font-family="sans-serif" font-size="12" lengthAdjust="spacing" textLength="154.5586" x="213.3835" y="404.5762">MessageDispatcher::send</text><polygon fill="#F1F1F1" points="235.4802,437.4063,345.8454,437.4063,357.8454,449.4063,345.8454,461.4063,235.4802,461.4063,223.4802,449.4063,235.4802,437.4063" style="stroke:#181818;stroke-width:0.5;"/><text fill="#000000" font-family="sans-serif" font-size="11" lengthAdjust="spacing" textLength="110.3652" x="235.4802" y="453.2144">Check receiver type</text><text fill="#000000" font-family="sans-serif" font-size="11" lengthAdjust="spacing" textLength="48.0498" x="175.4304" y="446.812">ClassDef</text><text fill="#000000" font-family="sans-serif" font-size="11" lengthAdjust="spacing" textLength="46.7876" x="357.8454" y="446.812">Instance</text><rect fill="#F1F1F1" height="33.9688" rx="12.5" ry="12.5" style="stroke:#181818;stroke-width:0.5;" width="158.5391" x="23" y="519.8086"/><text fill="#000000" font-family="sans-serif" font-size="12" lengthAdjust="spacing" textLength="138.5391" x="33" y="540.9473">Handle new/from:/read</text><polygon fill="#F1F1F1" points="40.6174,471.4063,163.9216,471.4063,175.9216,483.4063,163.9216,495.4063,40.6174,495.4063,28.6174,483.4063,40.6174,471.4063" style="stroke:#181818;stroke-width:0.5;"/><text fill="#000000" font-family="sans-serif" font-size="11" lengthAdjust="spacing" textLength="19.0083" x="106.2695" y="505.6167">yes</text><text fill="#000000" font-family="sans-serif" font-size="11" lengthAdjust="spacing" textLength="123.3042" x="40.6174" y="487.2144">Constructor message?</text><polygon fill="#F1F1F1" points="102.2695,578.1797,114.2695,590.1797,102.2695,602.1797,90.2695,590.1797,102.2695,578.1797" style="stroke:#181818;stroke-width:0.5;"/><rect fill="#F1F1F1" height="33.9688" rx="12.5" ry="12.5" style="stroke:#181818;stroke-width:0.5;" width="218.0293" x="370.0414" y="471.4063"/><text fill="#000000" font-family="sans-serif" font-size="12" lengthAdjust="spacing" textLength="198.0293" x="380.0414" y="492.5449">Method lookup in class hierarchy</text><polygon fill="#F1F1F1" points="437.9967,540.375,520.1154,540.375,532.1154,552.375,520.1154,564.375,437.9967,564.375,425.9967,552.375,437.9967,540.375" style="stroke:#181818;stroke-width:0.5;"/><text fill="#000000" font-family="sans-serif" font-size="11" lengthAdjust="spacing" textLength="82.1187" x="437.9967" y="556.1831">Method found?</text><text fill="#000000" font-family="sans-serif" font-size="11" lengthAdjust="spacing" textLength="19.0083" x="406.9884" y="549.7808">yes</text><text fill="#000000" font-family="sans-serif" font-size="11" lengthAdjust="spacing" textLength="13.7017" x="532.1154" y="549.7808">no</text><rect fill="#F1F1F1" height="33.9688" rx="12.5" ry="12.5" style="stroke:#181818;stroke-width:0.5;" width="189.5586" x="233.5391" y="574.375"/><text fill="#000000" font-family="sans-serif" font-size="12" lengthAdjust="spacing" textLength="169.5586" x="243.5391" y="595.5137">Invoke user-defined method</text><rect fill="#F1F1F1" height="33.9688" rx="12.5" ry="12.5" style="stroke:#181818;stroke-width:0.5;" width="130.8711" x="564.3582" y="574.375"/><text fill="#000000" font-family="sans-serif" font-size="12" lengthAdjust="spacing" textLength="110.8711" x="574.3582" y="595.5137">Try builtin method</text><polygon fill="#F1F1F1" points="578.1077,628.3438,681.4797,628.3438,693.4797,640.3438,681.4797,652.3438,578.1077,652.3438,566.1077,640.3438,578.1077,628.3438" style="stroke:#181818;stroke-width:0.5;"/><text fill="#000000" font-family="sans-serif" font-size="11" lengthAdjust="spacing" textLength="103.3721" x="578.1077" y="644.1519">Builtin succeeded?</text><text fill="#000000" font-family="sans-serif" font-size="11" lengthAdjust="spacing" textLength="19.0083" x="547.0994" y="637.7495">yes</text><text fill="#000000" font-family="sans-serif" font-size="11" lengthAdjust="spacing" textLength="13.7017" x="693.4797" y="637.7495">no</text><rect fill="#F1F1F1" height="33.9688" rx="12.5" ry="12.5" style="stroke:#181818;stroke-width:0.5;" width="98.5977" x="453.0977" y="662.3438"/><text fill="#000000" font-family="sans-serif" font-size="12" lengthAdjust="spacing" textLength="78.5977" x="463.0977" y="683.4824">Return result</text><polygon fill="#F1F1F1" points="709.6084,662.3438,804.7734,662.3438,816.7734,674.3438,804.7734,686.3438,709.6084,686.3438,697.6084,674.3438,709.6084,662.3438" style="stroke:#181818;stroke-width:0.5;"/><text fill="#000000" font-family="sans-serif" font-size="11" lengthAdjust="spacing" textLength="95.165" x="709.6084" y="678.1519">Attribute access?</text><text fill="#000000" font-family="sans-serif" font-size="11" lengthAdjust="spacing" textLength="19.0083" x="678.6001" y="671.7495">yes</text><text fill="#000000" font-family="sans-serif" font-size="11" lengthAdjust="spacing" textLength="13.7017" x="816.7734" y="671.7495">no</text><rect fill="#F1F1F1" height="33.9688" rx="12.5" ry="12.5" style="stroke:#181818;stroke-width:0.5;" width="164.375" x="581.6953" y="696.3438"/><text fill="#000000" font-family="sans-serif" font-size="12" lengthAdjust="spacing" textLength="144.375" x="591.6953" y="717.4824">Handle attribute get/set</text><rect fill="#F1F1F1" height="33.9688" rx="12.5" ry="12.5" style="stroke:#181818;stroke-width:0.5;" width="168.8574" x="766.0703" y="696.3438"/><text fill="#000000" font-family="sans-serif" font-size="12" lengthAdjust="spacing" textLength="148.8574" x="776.0703" y="717.4824">Throw method not found</text><polygon fill="#F1F1F1" points="757.1909,736.3125,769.1909,748.3125,757.1909,760.3125,745.1909,748.3125,757.1909,736.3125" style="stroke:#181818;stroke-width:0.5;"/><polygon fill="#F1F1F1" points="629.7937,766.3125,641.7937,778.3125,629.7937,790.3125,617.7937,778.3125,629.7937,766.3125" style="stroke:#181818;stroke-width:0.5;"/><polygon fill="#F1F1F1" points="479.056,796.3125,491.056,808.3125,479.056,820.3125,467.056,808.3125,479.056,796.3125" style="stroke:#181818;stroke-width:0.5;"/><polygon fill="#F1F1F1" points="290.6628,826.3125,302.6628,838.3125,290.6628,850.3125,278.6628,838.3125,290.6628,826.3125" style="stroke:#181818;stroke-width:0.5;"/><rect fill="none" height="244.1719" style="stroke:#000000;stroke-width:1.5;" width="213.209" x="184.0583" y="872.3125"/><path d="M310.2419,872.3125 L310.2419,881.6094 L300.2419,891.6094 L184.0583,891.6094" fill="none" style="stroke:#000000;stroke-width:1.5;"/><text fill="#000000" font-family="sans-serif" font-size="14" lengthAdjust="spacing" textLength="116.1836" x="187.0583" y="886.3076">Block Evaluation</text><rect fill="#F1F1F1" height="33.9688" rx="12.5" ry="12.5" style="stroke:#181818;stroke-width:0.5;" width="193.209" x="194.0583" y="908.6094"/><text fill="#000000" font-family="sans-serif" font-size="12" lengthAdjust="spacing" textLength="173.209" x="204.0583" y="929.748">Create environment &amp; frame</text><rect fill="#F1F1F1" height="33.9688" rx="12.5" ry="12.5" style="stroke:#181818;stroke-width:0.5;" width="120.207" x="230.5593" y="962.5781"/><text fill="#000000" font-family="sans-serif" font-size="12" lengthAdjust="spacing" textLength="100.207" x="240.5593" y="983.7168">Bind parameters</text><rect fill="#F1F1F1" height="33.9688" rx="12.5" ry="12.5" style="stroke:#181818;stroke-width:0.5;" width="137.5039" x="221.9108" y="1016.5469"/><text fill="#000000" font-family="sans-serif" font-size="12" lengthAdjust="spacing" textLength="117.5039" x="231.9108" y="1037.6855">Execute block body</text><rect fill="#F1F1F1" height="33.9688" rx="12.5" ry="12.5" style="stroke:#181818;stroke-width:0.5;" width="122.6211" x="229.3522" y="1070.5156"/><text fill="#000000" font-family="sans-serif" font-size="12" lengthAdjust="spacing" textLength="102.6211" x="239.3522" y="1091.6543">Return last value</text><ellipse cx="290.6628" cy="1147.4844" fill="none" rx="11" ry="11" style="stroke:#222222;stroke-width:1;"/><ellipse cx="290.6628" cy="1147.4844" fill="#222222" rx="6" ry="6" style="stroke:#222222;stroke-width:1;"/><line style="stroke:#181818;stroke-width:1;" x1="290.6628" x2="290.6628" y1="67.2969" y2="87.2969"/><polygon fill="#181818" points="286.6628,77.2969,290.6628,87.2969,294.6628,77.2969,290.6628,81.2969" style="stroke:#181818;stroke-width:1;"/><line style="stroke:#181818;stroke-width:1;" x1="290.6628" x2="290.6628" y1="121.2656" y2="141.2656"/><polygon fill="#181818" points="286.6628,131.2656,290.6628,141.2656,294.6628,131.2656,290.6628,135.2656" style="stroke:#181818;stroke-width:1;"/><line style="stroke:#181818;stroke-width:1;" x1="290.6628" x2="290.6628" y1="175.2344" y2="195.2344"/><polygon fill="#181818" points="286.6628,185.2344,290.6628,195.2344,294.6628,185.2344,290.6628,189.2344" style="stroke:#181818;stroke-width:1;"/><line style="stroke:#181818;stroke-width:1;" x1="290.6628" x2="290.6628" y1="229.2031" y2="249.2031"/><polygon fill="#181818" points="286.6628,239.2031,290.6628,249.2031,294.6628,239.2031,290.6628,243.2031" style="stroke:#181818;stroke-width:1;"/><line style="stroke:#181818;stroke-width:1;" x1="290.6628" x2="290.6628" y1="283.1719" y2="303.1719"/><polygon fill="#181818" points="286.6628,293.1719,290.6628,303.1719,294.6628,293.1719,290.6628,297.1719" style="stroke:#181818;stroke-width:1;"/><line style="stroke:#181818;stroke-width:1;" x1="102.2695" x2="102.2695" y1="495.4063" y2="519.8086"/><polygon fill="#181818" points="98.2695,509.8086,102.2695,519.8086,106.2695,509.8086,102.2695,513.8086" style="stroke:#181818;stroke-width:1;"/><line style="stroke:#181818;stroke-width:1;" x1="175.9216" x2="191.5391" y1="483.4063" y2="483.4063"/><polygon fill="#181818" points="187.5391,526.793,191.5391,536.793,195.5391,526.793,191.5391,530.793" style="stroke:#181818;stroke-width:1;"/><line style="stroke:#181818;stroke-width:1;" x1="191.5391" x2="191.5391" y1="483.4063" y2="590.1797"/><line style="stroke:#181818;stroke-width:1;" x1="191.5391" x2="114.2695" y1="590.1797" y2="590.1797"/><polygon fill="#181818" points="124.2695,586.1797,114.2695,590.1797,124.2695,594.1797,120.2695,590.1797" style="stroke:#181818;stroke-width:1;"/><line style="stroke:#181818;stroke-width:1;" x1="102.2695" x2="102.2695" y1="553.7773" y2="578.1797"/><polygon fill="#181818" points="98.2695,568.1797,102.2695,578.1797,106.2695,568.1797,102.2695,572.1797" style="stroke:#181818;stroke-width:1;"/><line style="stroke:#181818;stroke-width:1;" x1="697.6084" x2="663.8828" y1="674.3438" y2="674.3438"/><line style="stroke:#181818;stroke-width:1;" x1="663.8828" x2="663.8828" y1="674.3438" y2="696.3438"/><polygon fill="#181818" points="659.8828,686.3438,663.8828,696.3438,667.8828,686.3438,663.8828,690.3438" style="stroke:#181818;stroke-width:1;"/><line style="stroke:#181818;stroke-width:1;" x1="816.7734" x2="850.499" y1="674.3438" y2="674.3438"/><line style="stroke:#181818;stroke-width:1;" x1="850.499" x2="850.499" y1="674.3438" y2="696.3438"/><polygon fill="#181818" points="846.499,686.3438,850.499,696.3438,854.499,686.3438,850.499,690.3438" style="stroke:#181818;stroke-width:1;"/><line style="stroke:#181818;stroke-width:1;" x1="663.8828" x2="663.8828" y1="730.3125" y2="748.3125"/><line style="stroke:#181818;stroke-width:1;" x1="663.8828" x2="745.1909" y1="748.3125" y2="748.3125"/><polygon fill="#181818" points="735.1909,744.3125,745.1909,748.3125,735.1909,752.3125,739.1909,748.3125" style="stroke:#181818;stroke-width:1;"/><line style="stroke:#181818;stroke-width:1;" x1="850.499" x2="850.499" y1="730.3125" y2="748.3125"/><line style="stroke:#181818;stroke-width:1;" x1="850.499" x2="769.1909" y1="748.3125" y2="748.3125"/><polygon fill="#181818" points="779.1909,744.3125,769.1909,748.3125,779.1909,752.3125,775.1909,748.3125" style="stroke:#181818;stroke-width:1;"/><line style="stroke:#181818;stroke-width:1;" x1="566.1077" x2="502.3965" y1="640.3438" y2="640.3438"/><line style="stroke:#181818;stroke-width:1;" x1="502.3965" x2="502.3965" y1="640.3438" y2="662.3438"/><polygon fill="#181818" points="498.3965,652.3438,502.3965,662.3438,506.3965,652.3438,502.3965,656.3438" style="stroke:#181818;stroke-width:1;"/><line style="stroke:#181818;stroke-width:1;" x1="693.4797" x2="757.1909" y1="640.3438" y2="640.3438"/><line style="stroke:#181818;stroke-width:1;" x1="757.1909" x2="757.1909" y1="640.3438" y2="662.3438"/><polygon fill="#181818" points="753.1909,652.3438,757.1909,662.3438,761.1909,652.3438,757.1909,656.3438" style="stroke:#181818;stroke-width:1;"/><line style="stroke:#181818;stroke-width:1;" x1="502.3965" x2="502.3965" y1="696.3125" y2="778.3125"/><line style="stroke:#181818;stroke-width:1;" x1="502.3965" x2="617.7937" y1="778.3125" y2="778.3125"/><polygon fill="#181818" points="607.7937,774.3125,617.7937,778.3125,607.7937,782.3125,611.7937,778.3125" style="stroke:#181818;stroke-width:1;"/><line style="stroke:#181818;stroke-width:1;" x1="757.1909" x2="757.1909" y1="760.3125" y2="778.3125"/><line style="stroke:#181818;stroke-width:1;" x1="757.1909" x2="641.7937" y1="778.3125" y2="778.3125"/><polygon fill="#181818" points="651.7937,774.3125,641.7937,778.3125,651.7937,782.3125,647.7937,778.3125" style="stroke:#181818;stroke-width:1;"/><line style="stroke:#181818;stroke-width:1;" x1="629.7937" x2="629.7937" y1="608.3438" y2="628.3438"/><polygon fill="#181818" points="625.7937,618.3438,629.7937,628.3438,633.7937,618.3438,629.7937,622.3438" style="stroke:#181818;stroke-width:1;"/><line style="stroke:#181818;stroke-width:1;" x1="425.9967" x2="328.3184" y1="552.375" y2="552.375"/><line style="stroke:#181818;stroke-width:1;" x1="328.3184" x2="328.3184" y1="552.375" y2="574.375"/><polygon fill="#181818" points="324.3184,564.375,328.3184,574.375,332.3184,564.375,328.3184,568.375" style="stroke:#181818;stroke-width:1;"/><line style="stroke:#181818;stroke-width:1;" x1="532.1154" x2="629.7937" y1="552.375" y2="552.375"/><line style="stroke:#181818;stroke-width:1;" x1="629.7937" x2="629.7937" y1="552.375" y2="574.375"/><polygon fill="#181818" points="625.7937,564.375,629.7937,574.375,633.7937,564.375,629.7937,568.375" style="stroke:#181818;stroke-width:1;"/><line style="stroke:#181818;stroke-width:1;" x1="328.3184" x2="328.3184" y1="608.3438" y2="808.3125"/><line style="stroke:#181818;stroke-width:1;" x1="328.3184" x2="467.056" y1="808.3125" y2="808.3125"/><polygon fill="#181818" points="457.056,804.3125,467.056,808.3125,457.056,812.3125,461.056,808.3125" style="stroke:#181818;stroke-width:1;"/><line style="stroke:#181818;stroke-width:1;" x1="629.7937" x2="629.7937" y1="790.3125" y2="808.3125"/><line style="stroke:#181818;stroke-width:1;" x1="629.7937" x2="491.056" y1="808.3125" y2="808.3125"/><polygon fill="#181818" points="501.056,804.3125,491.056,808.3125,501.056,812.3125,497.056,808.3125" style="stroke:#181818;stroke-width:1;"/><line style="stroke:#181818;stroke-width:1;" x1="479.056" x2="479.056" y1="505.375" y2="540.375"/><polygon fill="#181818" points="475.056,530.375,479.056,540.375,483.056,530.375,479.056,534.375" style="stroke:#181818;stroke-width:1;"/><line style="stroke:#181818;stroke-width:1;" x1="223.4802" x2="102.2695" y1="449.4063" y2="449.4063"/><line style="stroke:#181818;stroke-width:1;" x1="102.2695" x2="102.2695" y1="449.4063" y2="471.4063"/><polygon fill="#181818" points="98.2695,461.4063,102.2695,471.4063,106.2695,461.4063,102.2695,465.4063" style="stroke:#181818;stroke-width:1;"/><line style="stroke:#181818;stroke-width:1;" x1="357.8454" x2="479.056" y1="449.4063" y2="449.4063"/><line style="stroke:#181818;stroke-width:1;" x1="479.056" x2="479.056" y1="449.4063" y2="471.4063"/><polygon fill="#181818" points="475.056,461.4063,479.056,471.4063,483.056,461.4063,479.056,465.4063" style="stroke:#181818;stroke-width:1;"/><line style="stroke:#181818;stroke-width:1;" x1="102.2695" x2="102.2695" y1="602.1797" y2="838.3125"/><line style="stroke:#181818;stroke-width:1;" x1="102.2695" x2="278.6628" y1="838.3125" y2="838.3125"/><polygon fill="#181818" points="268.6628,834.3125,278.6628,838.3125,268.6628,842.3125,272.6628,838.3125" style="stroke:#181818;stroke-width:1;"/><line style="stroke:#181818;stroke-width:1;" x1="479.056" x2="479.056" y1="820.3125" y2="838.3125"/><line style="stroke:#181818;stroke-width:1;" x1="479.056" x2="302.6628" y1="838.3125" y2="838.3125"/><polygon fill="#181818" points="312.6628,834.3125,302.6628,838.3125,312.6628,842.3125,308.6628,838.3125" style="stroke:#181818;stroke-width:1;"/><line style="stroke:#181818;stroke-width:1;" x1="290.6628" x2="290.6628" y1="417.4063" y2="437.4063"/><polygon fill="#181818" points="286.6628,427.4063,290.6628,437.4063,294.6628,427.4063,290.6628,431.4063" style="stroke:#181818;stroke-width:1;"/><line style="stroke:#181818;stroke-width:1;" x1="290.6628" x2="290.6628" y1="337.1406" y2="383.4375"/><polygon fill="#181818" points="286.6628,373.4375,290.6628,383.4375,294.6628,373.4375,290.6628,377.4375" style="stroke:#181818;stroke-width:1;"/><line style="stroke:#181818;stroke-width:1;" x1="290.6628" x2="290.6628" y1="942.5781" y2="962.5781"/><polygon fill="#181818" points="286.6628,952.5781,290.6628,962.5781,294.6628,952.5781,290.6628,956.5781" style="stroke:#181818;stroke-width:1;"/><line style="stroke:#181818;stroke-width:1;" x1="290.6628" x2="290.6628" y1="996.5469" y2="1016.5469"/><polygon fill="#181818" points="286.6628,1006.5469,290.6628,1016.5469,294.6628,1006.5469,290.6628,1010.5469" style="stroke:#181818;stroke-width:1;"/><line style="stroke:#181818;stroke-width:1;" x1="290.6628" x2="290.6628" y1="1050.5156" y2="1070.5156"/><polygon fill="#181818" points="286.6628,1060.5156,290.6628,1070.5156,294.6628,1060.5156,290.6628,1064.5156" style="stroke:#181818;stroke-width:1;"/><line style="stroke:#181818;stroke-width:1;" x1="290.6628" x2="290.6628" y1="850.3125" y2="908.6094"/><polygon fill="#181818" points="286.6628,898.6094,290.6628,908.6094,294.6628,898.6094,290.6628,902.6094" style="stroke:#181818;stroke-width:1;"/><line style="stroke:#181818;stroke-width:1;" x1="290.6628" x2="290.6628" y1="1104.4844" y2="1136.4844"/><polygon fill="#181818" points="286.6628,1126.4844,290.6628,1136.4844,294.6628,1126.4844,290.6628,1130.4844" style="stroke:#181818;stroke-width:1;"/><!--SRC=[RLDDYzim4BtxLmnxwEuUGg3GYtCec-oM1ZQqD3dqAajZMyIMp6YKD9JzxntB7vij0MFBqfltdkP9RBb1sFzu_Vm5jewHEa9vmm9U_g2ERBs3Ruq_PrbWHPnb-JNAEfbrR1MZMMNvxzqhFEqFq2aAQE1a5Unz98qhgTiqAeI3AaIkySe4qFq462ojixrEM6NECmBPgkOSrj4slB1km640mie6KHLc4ycwAl78DvcQZS1EJKLYQO_Em3r5TmyjXg0g1FO3P32Vp8bXJXxWRZUYVfBNCXJwE_YR0UJZmhCDdM9T8-Lv4FALhCbZItZOrAYFObEZFKbp-DBX8t2DJfPwEyzOFWfq1Ck6cQ9cJvEphnFwWc40YkntvOoqpE5vMP9lyoMXIg80ecvB6M4J41wsutQ6Ih7BjJVI8d-C7KmTWTeYATBrPJKx6P6bZyxSjB1r9tz4Y05faUAI1DfKDFf8-ixF1GUwGD779xBNm45lFQw4g3MYmPkYml8BEPAJVeROy4JmlzP0-SHCjeWIlj9zQhSPtxkfPdo5l0muqzyIw3TKap-FMm4vf4Epheh693wEvtpIz-t3CLitNixAoqarKVKpuo7RIBhY2jt9adSjEePFK99giHVBrrPEix38lro4aEQ6UufG9CR2cnJjr3q9dQ5N4OAt_XBxxXy0]--></g></svg>