<svg xmlns="http://www.w3.org/2000/svg" xmlns:xlink="http://www.w3.org/1999/xlink" contentStyleType="text/css" data-diagram-type="ACTIVITY" height="1693px" preserveAspectRatio="none" style="width:564px;height:1693px;background:#FFFFFF;" version="1.1" viewBox="0 0 564 1693" width="564px" zoomAndPan="magnify"><title>MessageDispatcher::send Flow</title><defs/><g><g class="title" data-source-line="1"><text fill="#000000" font-family="sans-serif" font-size="14" font-weight="bold" lengthAdjust="spacing" textLength="245.4375" x="157.8198" y="32.9951">MessageDispatcher::send Flow</text></g><ellipse cx="222.4961" cy="57.2969" fill="#222222" rx="10" ry="10" style="stroke:#222222;stroke-width:1;"/><rect fill="none" height="434.0078" style="stroke:#000000;stroke-width:1.5;" width="399.6245" x="103.123" y="77.2969"/><path d="M277.3359,77.2969 L277.3359,86.5938 L267.3359,96.5938 L103.123,96.5938" fill="none" style="stroke:#000000;stroke-width:1.5;"/><text fill="#000000" font-family="sans-serif" font-size="14" lengthAdjust="spacing" textLength="164.2129" x="106.123" y="91.292">Receiver Preprocessing</text><rect fill="#F1F1F1" height="33.9688" rx="12.5" ry="12.5" style="stroke:#181818;stroke-width:0.5;" width="126.3125" x="159.3398" y="161.9961"/><text fill="#000000" font-family="sans-serif" font-size="12" lengthAdjust="spacing" textLength="106.3125" x="169.3398" y="183.1348">Extract startClass</text><rect fill="#F1F1F1" height="33.9688" rx="12.5" ry="12.5" style="stroke:#181818;stroke-width:0.5;" width="147.4121" x="148.79" y="230.9648"/><text fill="#000000" font-family="sans-serif" font-size="12" lengthAdjust="spacing" textLength="127.4121" x="158.79" y="252.1035">Unwrap target object</text><polygon fill="#F1F1F1" points="168.197,113.5938,276.7952,113.5938,288.7952,125.5938,276.7952,137.5938,168.197,137.5938,156.197,125.5938,168.197,113.5938" style="stroke:#181818;stroke-width:0.5;"/><text fill="#000000" font-family="sans-serif" font-size="11" lengthAdjust="spacing" textLength="19.0083" x="226.4961" y="147.8042">yes</text><text fill="#000000" font-family="sans-serif" font-size="11" lengthAdjust="spacing" textLength="108.5981" x="168.197" y="129.4019">recv is SuperProxy?</text><polygon fill="#F1F1F1" points="222.4961,284.9336,234.4961,296.9336,222.4961,308.9336,210.4961,296.9336,222.4961,284.9336" style="stroke:#181818;stroke-width:0.5;"/><path d="M341.8691,381.7539 L341.8691,390.3203 L321.8691,394.3203 L341.8691,398.3203 L341.8691,406.8867 A0,0 0 0 0 341.8691,406.8867 L470.7476,406.8867 A0,0 0 0 0 470.7476,406.8867 L470.7476,391.7539 L460.7476,381.7539 L341.8691,381.7539 A0,0 0 0 0 341.8691,381.7539" fill="#FEFFDD" style="stroke:#181818;stroke-width:0.5;"/><path d="M460.7476,381.7539 L460.7476,391.7539 L470.7476,391.7539 L460.7476,381.7539" fill="#FEFFDD" style="stroke:#181818;stroke-width:0.5;"/><text fill="#000000" font-family="sans-serif" font-size="13" lengthAdjust="spacing" textLength="107.8784" x="347.8691" y="398.8208">new, from:, read</text><rect fill="#F1F1F1" height="33.9688" rx="12.5" ry="12.5" style="stroke:#181818;stroke-width:0.5;" width="198.7461" x="123.123" y="377.3359"/><text fill="#000000" font-family="sans-serif" font-size="12" lengthAdjust="spacing" textLength="178.7461" x="133.123" y="398.4746">Handle constructor messages</text><polygon fill="#F1F1F1" points="164.1418,431.3047,280.8503,431.3047,292.8503,443.3047,280.8503,455.3047,164.1418,455.3047,152.1418,443.3047,164.1418,431.3047" style="stroke:#181818;stroke-width:0.5;"/><text fill="#000000" font-family="sans-serif" font-size="11" lengthAdjust="spacing" textLength="116.7085" x="164.1418" y="447.1128">constructor handled?</text><text fill="#000000" font-family="sans-serif" font-size="11" lengthAdjust="spacing" textLength="19.0083" x="292.8503" y="440.7104">yes</text><ellipse cx="333.8586" cy="443.3047" fill="none" rx="11" ry="11" style="stroke:#222222;stroke-width:1;"/><ellipse cx="333.8586" cy="443.3047" fill="#222222" rx="6" ry="6" style="stroke:#222222;stroke-width:1;"/><polygon fill="#F1F1F1" points="175.738,328.9336,269.2542,328.9336,281.2542,340.9336,269.2542,352.9336,175.738,352.9336,163.738,340.9336,175.738,328.9336" style="stroke:#181818;stroke-width:0.5;"/><text fill="#000000" font-family="sans-serif" font-size="11" lengthAdjust="spacing" textLength="19.0083" x="226.4961" y="363.144">yes</text><text fill="#000000" font-family="sans-serif" font-size="11" lengthAdjust="spacing" textLength="93.5161" x="175.738" y="344.7417">recv is ClassDef?</text><polygon fill="#F1F1F1" points="222.4961,475.3047,234.4961,487.3047,222.4961,499.3047,210.4961,487.3047,222.4961,475.3047" style="stroke:#181818;stroke-width:0.5;"/><rect fill="none" height="817.8633" style="stroke:#000000;stroke-width:1.5;" width="466.9756" x="86.1016" y="521.3047"/><path d="M214.5479,521.3047 L214.5479,530.6016 L204.5479,540.6016 L86.1016,540.6016" fill="none" style="stroke:#000000;stroke-width:1.5;"/><text fill="#000000" font-family="sans-serif" font-size="14" lengthAdjust="spacing" textLength="118.4463" x="89.1016" y="535.2998">Method Dispatch</text><rect fill="#F1F1F1" height="33.9688" rx="12.5" ry="12.5" style="stroke:#181818;stroke-width:0.5;" width="232.7891" x="106.1016" y="606.0039"/><text fill="#000000" font-family="sans-serif" font-size="12" lengthAdjust="spacing" textLength="212.7891" x="116.1016" y="627.1426">Check for user method in hierarchy</text><rect fill="#F1F1F1" height="33.9688" rx="12.5" ry="12.5" style="stroke:#181818;stroke-width:0.5;" width="159.9512" x="142.5205" y="708.375"/><text fill="#000000" font-family="sans-serif" font-size="12" lengthAdjust="spacing" textLength="139.9512" x="152.5205" y="729.5137">Try first builtin attempt</text><polygon fill="#F1F1F1" points="175.1016,764.375,269.8906,764.375,281.8906,776.375,269.8906,788.375,175.1016,788.375,163.1016,776.375,175.1016,764.375" style="stroke:#181818;stroke-width:0.5;"/><text fill="#000000" font-family="sans-serif" font-size="11" lengthAdjust="spacing" textLength="94.7891" x="175.1016" y="780.1831">builtin succeeds?</text><text fill="#000000" font-family="sans-serif" font-size="11" lengthAdjust="spacing" textLength="19.0083" x="281.8906" y="773.7808">yes</text><ellipse cx="322.8989" cy="776.375" fill="none" rx="11" ry="11" style="stroke:#222222;stroke-width:1;"/><ellipse cx="322.8989" cy="776.375" fill="#222222" rx="6" ry="6" style="stroke:#222222;stroke-width:1;"/><polygon fill="#F1F1F1" points="175.9932,659.9727,268.999,659.9727,280.999,671.9727,268.999,683.9727,175.9932,683.9727,163.9932,671.9727,175.9932,659.9727" style="stroke:#181818;stroke-width:0.5;"/><text fill="#000000" font-family="sans-serif" font-size="11" lengthAdjust="spacing" textLength="19.0083" x="226.4961" y="694.1831">yes</text><text fill="#000000" font-family="sans-serif" font-size="11" lengthAdjust="spacing" textLength="93.0059" x="175.9932" y="675.7808">no user method?</text><polygon fill="#F1F1F1" points="222.4961,808.375,234.4961,820.375,222.4961,832.375,210.4961,820.375,222.4961,808.375" style="stroke:#181818;stroke-width:0.5;"/><polygon fill="#F1F1F1" points="168.4226,557.6016,276.5696,557.6016,288.5696,569.6016,276.5696,581.6016,168.4226,581.6016,156.4226,569.6016,168.4226,557.6016" style="stroke:#181818;stroke-width:0.5;"/><text fill="#000000" font-family="sans-serif" font-size="11" lengthAdjust="spacing" textLength="19.0083" x="226.4961" y="591.812">yes</text><text fill="#000000" font-family="sans-serif" font-size="11" lengthAdjust="spacing" textLength="108.147" x="168.4226" y="573.4097">fast path available?</text><polygon fill="#F1F1F1" points="222.4961,852.375,234.4961,864.375,222.4961,876.375,210.4961,864.375,222.4961,852.375" style="stroke:#181818;stroke-width:0.5;"/><path d="M336.2559,900.793 L336.2559,909.3594 L316.2559,913.3594 L336.2559,917.3594 L336.2559,925.9258 A0,0 0 0 0 336.2559,925.9258 L543.0771,925.9258 A0,0 0 0 0 543.0771,925.9258 L543.0771,910.793 L533.0771,900.793 L336.2559,900.793 A0,0 0 0 0 336.2559,900.793" fill="#FEFFDD" style="stroke:#181818;stroke-width:0.5;"/><path d="M533.0771,900.793 L533.0771,910.793 L543.0771,910.793 L533.0771,900.793" fill="#FEFFDD" style="stroke:#181818;stroke-width:0.5;"/><text fill="#000000" font-family="sans-serif" font-size="13" lengthAdjust="spacing" textLength="185.8213" x="342.2559" y="917.8599">Uses startClass or recv.class</text><rect fill="#F1F1F1" height="33.9688" rx="12.5" ry="12.5" style="stroke:#181818;stroke-width:0.5;" width="187.5195" x="128.7363" y="896.375"/><text fill="#000000" font-family="sans-serif" font-size="12" lengthAdjust="spacing" textLength="167.5195" x="138.7363" y="917.5137">Start class hierarchy search</text><rect fill="#F1F1F1" height="33.9688" rx="12.5" ry="12.5" style="stroke:#181818;stroke-width:0.5;" width="182.8496" x="131.0713" y="1042.7461"/><text fill="#000000" font-family="sans-serif" font-size="12" lengthAdjust="spacing" textLength="162.8496" x="141.0713" y="1063.8848">invoke(recv, method, args)</text><ellipse cx="222.4961" cy="1120.2305" fill="none" rx="11" ry="11" style="stroke:#222222;stroke-width:1;"/><ellipse cx="222.4961" cy="1120.2305" fill="#222222" rx="6" ry="6" style="stroke:#222222;stroke-width:1;"/><polygon fill="#F1F1F1" points="180.8245,994.3438,264.1677,994.3438,276.1677,1006.3438,264.1677,1018.3438,180.8245,1018.3438,168.8245,1006.3438,180.8245,994.3438" style="stroke:#181818;stroke-width:0.5;"/><text fill="#000000" font-family="sans-serif" font-size="11" lengthAdjust="spacing" textLength="19.0083" x="226.4961" y="1028.5542">yes</text><text fill="#000000" font-family="sans-serif" font-size="11" lengthAdjust="spacing" textLength="83.3433" x="180.8245" y="1010.1519">method found?</text><rect fill="#F1F1F1" height="33.9688" rx="12.5" ry="12.5" style="stroke:#181818;stroke-width:0.5;" width="145.0566" x="149.9678" y="1173.2305"/><text fill="#000000" font-family="sans-serif" font-size="12" lengthAdjust="spacing" textLength="125.0566" x="159.9678" y="1194.3691">Move to parent class</text><polygon fill="#F1F1F1" points="166.634,950.3438,278.3582,950.3438,290.3582,962.3438,278.3582,974.3438,166.634,974.3438,154.634,962.3438,166.634,950.3438" style="stroke:#181818;stroke-width:0.5;"/><text fill="#000000" font-family="sans-serif" font-size="11" lengthAdjust="spacing" textLength="111.7241" x="166.634" y="966.1519">traversing hierarchy</text><rect fill="#F1F1F1" height="33.9688" rx="12.5" ry="12.5" style="stroke:#181818;stroke-width:0.5;" width="179.2988" x="132.8467" y="1249.1992"/><text fill="#000000" font-family="sans-serif" font-size="12" lengthAdjust="spacing" textLength="159.2988" x="142.8467" y="1270.3379">Try second builtin attempt</text><polygon fill="#F1F1F1" points="175.1016,1303.168,269.8906,1303.168,281.8906,1315.168,269.8906,1327.168,175.1016,1327.168,163.1016,1315.168,175.1016,1303.168" style="stroke:#181818;stroke-width:0.5;"/><text fill="#000000" font-family="sans-serif" font-size="11" lengthAdjust="spacing" textLength="94.7891" x="175.1016" y="1318.9761">builtin succeeds?</text><text fill="#000000" font-family="sans-serif" font-size="11" lengthAdjust="spacing" textLength="19.0083" x="281.8906" y="1312.5737">yes</text><ellipse cx="322.8989" cy="1315.168" fill="none" rx="11" ry="11" style="stroke:#222222;stroke-width:1;"/><ellipse cx="322.8989" cy="1315.168" fill="#222222" rx="6" ry="6" style="stroke:#222222;stroke-width:1;"/><rect fill="none" height="236.9448" style="stroke:#000000;stroke-width:1.5;" width="422.9922" x="11" y="1349.168"/><path d="M135.6865,1349.168 L135.6865,1358.4648 L125.6865,1368.4648 L11,1368.4648" fill="none" style="stroke:#000000;stroke-width:1.5;"/><text fill="#000000" font-family="sans-serif" font-size="14" lengthAdjust="spacing" textLength="114.6865" x="14" y="1363.1631">Attribute Access</text><polygon fill="#F1F1F1" points="47.168,1388.4648,174.5059,1388.4648,186.5059,1400.4648,174.5059,1412.4648,47.168,1412.4648,35.168,1400.4648,47.168,1388.4648" style="stroke:#181818;stroke-width:0.5;"/><text fill="#000000" font-family="sans-serif" font-size="11" lengthAdjust="spacing" textLength="19.0083" x="114.8369" y="1422.6753">yes</text><text fill="#000000" font-family="sans-serif" font-size="11" lengthAdjust="spacing" textLength="127.3379" x="47.168" y="1404.2729">setter? sel ends with ':'</text><rect fill="#F1F1F1" height="33.9688" rx="12.5" ry="12.5" style="stroke:#181818;stroke-width:0.5;" width="179.6738" x="21" y="1444.1753"/><text fill="#000000" font-family="sans-serif" font-size="12" lengthAdjust="spacing" textLength="159.6738" x="31" y="1465.314">Check for method collision</text><rect fill="#F1F1F1" height="33.9688" rx="12.5" ry="12.5" style="stroke:#181818;stroke-width:0.5;" width="95.8613" x="62.9063" y="1498.144"/><text fill="#000000" font-family="sans-serif" font-size="12" lengthAdjust="spacing" textLength="75.8613" x="72.9063" y="1519.2827">Set attribute</text><ellipse cx="110.8369" cy="1563.1128" fill="none" rx="11" ry="11" style="stroke:#222222;stroke-width:1;"/><ellipse cx="110.8369" cy="1563.1128" fill="#222222" rx="6" ry="6" style="stroke:#222222;stroke-width:1;"/><polygon fill="#F1F1F1" points="234.04,1388.4648,360.626,1388.4648,372.626,1400.4648,360.626,1412.4648,234.04,1412.4648,222.04,1400.4648,234.04,1388.4648" style="stroke:#181818;stroke-width:0.5;"/><text fill="#000000" font-family="sans-serif" font-size="11" lengthAdjust="spacing" textLength="19.0083" x="301.333" y="1422.6753">yes</text><text fill="#000000" font-family="sans-serif" font-size="11" lengthAdjust="spacing" textLength="126.5859" x="234.04" y="1404.2729">getter? attribute exists</text><rect fill="#F1F1F1" height="33.9688" rx="12.5" ry="12.5" style="stroke:#181818;stroke-width:0.5;" width="153.3184" x="220.6738" y="1444.1753"/><text fill="#000000" font-family="sans-serif" font-size="12" lengthAdjust="spacing" textLength="133.3184" x="230.6738" y="1465.314">Return attribute value</text><ellipse cx="297.333" cy="1509.144" fill="none" rx="11" ry="11" style="stroke:#222222;stroke-width:1;"/><ellipse cx="297.333" cy="1509.144" fill="#222222" rx="6" ry="6" style="stroke:#222222;stroke-width:1;"/><rect fill="#F1F1F1" height="33.9688" rx="12.5" ry="12.5" style="stroke:#181818;stroke-width:0.5;" width="163.9414" x="140.5254" y="1606.1128"/><text fill="#000000" font-family="sans-serif" font-size="12" lengthAdjust="spacing" textLength="143.9414" x="150.5254" y="1627.2515">Throw MethodNotFound</text><ellipse cx="222.4961" cy="1671.0815" fill="none" rx="11" ry="11" style="stroke:#222222;stroke-width:1;"/><ellipse cx="222.4961" cy="1671.0815" fill="#222222" rx="6" ry="6" style="stroke:#222222;stroke-width:1;"/><line style="stroke:#181818;stroke-width:1;" x1="222.4961" x2="222.4961" y1="195.9648" y2="230.9648"/><polygon fill="#181818" points="218.4961,220.9648,222.4961,230.9648,226.4961,220.9648,222.4961,224.9648" style="stroke:#181818;stroke-width:1;"/><line style="stroke:#181818;stroke-width:1;" x1="222.4961" x2="222.4961" y1="137.5938" y2="161.9961"/><polygon fill="#181818" points="218.4961,151.9961,222.4961,161.9961,226.4961,151.9961,222.4961,155.9961" style="stroke:#181818;stroke-width:1;"/><line style="stroke:#181818;stroke-width:1;" x1="288.7952" x2="306.2021" y1="125.5938" y2="125.5938"/><polygon fill="#181818" points="302.2021,203.4648,306.2021,213.4648,310.2021,203.4648,306.2021,207.4648" style="stroke:#181818;stroke-width:1;"/><line style="stroke:#181818;stroke-width:1;" x1="306.2021" x2="306.2021" y1="125.5938" y2="296.9336"/><line style="stroke:#181818;stroke-width:1;" x1="306.2021" x2="234.4961" y1="296.9336" y2="296.9336"/><polygon fill="#181818" points="244.4961,292.9336,234.4961,296.9336,244.4961,300.9336,240.4961,296.9336" style="stroke:#181818;stroke-width:1;"/><line style="stroke:#181818;stroke-width:1;" x1="222.4961" x2="222.4961" y1="264.9336" y2="284.9336"/><polygon fill="#181818" points="218.4961,274.9336,222.4961,284.9336,226.4961,274.9336,222.4961,278.9336" style="stroke:#181818;stroke-width:1;"/><line style="stroke:#181818;stroke-width:1;" x1="222.4961" x2="222.4961" y1="455.3047" y2="475.3047"/><polygon fill="#181818" points="218.4961,465.3047,222.4961,475.3047,226.4961,465.3047,222.4961,469.3047" style="stroke:#181818;stroke-width:1;"/><line style="stroke:#181818;stroke-width:1;" x1="292.8503" x2="322.8586" y1="443.3047" y2="443.3047"/><polygon fill="#181818" points="312.8586,439.3047,322.8586,443.3047,312.8586,447.3047,316.8586,443.3047" style="stroke:#181818;stroke-width:1;"/><line style="stroke:#181818;stroke-width:1;" x1="222.4961" x2="222.4961" y1="411.3047" y2="431.3047"/><polygon fill="#181818" points="218.4961,421.3047,222.4961,431.3047,226.4961,421.3047,222.4961,425.3047" style="stroke:#181818;stroke-width:1;"/><line style="stroke:#181818;stroke-width:1;" x1="222.4961" x2="222.4961" y1="352.9336" y2="377.3359"/><polygon fill="#181818" points="218.4961,367.3359,222.4961,377.3359,226.4961,367.3359,222.4961,371.3359" style="stroke:#181818;stroke-width:1;"/><line style="stroke:#181818;stroke-width:1;" x1="281.2542" x2="480.7476" y1="340.9336" y2="340.9336"/><polygon fill="#181818" points="476.7476,422.8203,480.7476,432.8203,484.7476,422.8203,480.7476,426.8203" style="stroke:#181818;stroke-width:1;"/><line style="stroke:#181818;stroke-width:1;" x1="480.7476" x2="480.7476" y1="340.9336" y2="487.3047"/><line style="stroke:#181818;stroke-width:1;" x1="480.7476" x2="234.4961" y1="487.3047" y2="487.3047"/><polygon fill="#181818" points="244.4961,483.3047,234.4961,487.3047,244.4961,491.3047,240.4961,487.3047" style="stroke:#181818;stroke-width:1;"/><line style="stroke:#181818;stroke-width:1;" x1="222.4961" x2="222.4961" y1="308.9336" y2="328.9336"/><polygon fill="#181818" points="218.4961,318.9336,222.4961,328.9336,226.4961,318.9336,222.4961,322.9336" style="stroke:#181818;stroke-width:1;"/><line style="stroke:#181818;stroke-width:1;" x1="222.4961" x2="222.4961" y1="67.2969" y2="113.5938"/><polygon fill="#181818" points="218.4961,103.5938,222.4961,113.5938,226.4961,103.5938,222.4961,107.5938" style="stroke:#181818;stroke-width:1;"/><line style="stroke:#181818;stroke-width:1;" x1="222.4961" x2="222.4961" y1="788.375" y2="808.375"/><polygon fill="#181818" points="218.4961,798.375,222.4961,808.375,226.4961,798.375,222.4961,802.375" style="stroke:#181818;stroke-width:1;"/><line style="stroke:#181818;stroke-width:1;" x1="281.8906" x2="311.8989" y1="776.375" y2="776.375"/><polygon fill="#181818" points="301.8989,772.375,311.8989,776.375,301.8989,780.375,305.8989,776.375" style="stroke:#181818;stroke-width:1;"/><line style="stroke:#181818;stroke-width:1;" x1="222.4961" x2="222.4961" y1="742.3438" y2="764.375"/><polygon fill="#181818" points="218.4961,754.375,222.4961,764.375,226.4961,754.375,222.4961,758.375" style="stroke:#181818;stroke-width:1;"/><line style="stroke:#181818;stroke-width:1;" x1="222.4961" x2="222.4961" y1="683.9727" y2="708.375"/><polygon fill="#181818" points="218.4961,698.375,222.4961,708.375,226.4961,698.375,222.4961,702.375" style="stroke:#181818;stroke-width:1;"/><line style="stroke:#181818;stroke-width:1;" x1="280.999" x2="355.8989" y1="671.9727" y2="671.9727"/><polygon fill="#181818" points="351.8989,755.8906,355.8989,765.8906,359.8989,755.8906,355.8989,759.8906" style="stroke:#181818;stroke-width:1;"/><line style="stroke:#181818;stroke-width:1;" x1="355.8989" x2="355.8989" y1="671.9727" y2="820.375"/><line style="stroke:#181818;stroke-width:1;" x1="355.8989" x2="234.4961" y1="820.375" y2="820.375"/><polygon fill="#181818" points="244.4961,816.375,234.4961,820.375,244.4961,824.375,240.4961,820.375" style="stroke:#181818;stroke-width:1;"/><line style="stroke:#181818;stroke-width:1;" x1="222.4961" x2="222.4961" y1="639.9727" y2="659.9727"/><polygon fill="#181818" points="218.4961,649.9727,222.4961,659.9727,226.4961,649.9727,222.4961,653.9727" style="stroke:#181818;stroke-width:1;"/><line style="stroke:#181818;stroke-width:1;" x1="222.4961" x2="222.4961" y1="581.6016" y2="606.0039"/><polygon fill="#181818" points="218.4961,596.0039,222.4961,606.0039,226.4961,596.0039,222.4961,600.0039" style="stroke:#181818;stroke-width:1;"/><line style="stroke:#181818;stroke-width:1;" x1="288.5696" x2="377.8989" y1="569.6016" y2="569.6016"/><polygon fill="#181818" points="373.8989,734.375,377.8989,744.375,381.8989,734.375,377.8989,738.375" style="stroke:#181818;stroke-width:1;"/><line style="stroke:#181818;stroke-width:1;" x1="377.8989" x2="377.8989" y1="569.6016" y2="864.375"/><line style="stroke:#181818;stroke-width:1;" x1="377.8989" x2="234.4961" y1="864.375" y2="864.375"/><polygon fill="#181818" points="244.4961,860.375,234.4961,864.375,244.4961,868.375,240.4961,864.375" style="stroke:#181818;stroke-width:1;"/><line style="stroke:#181818;stroke-width:1;" x1="222.4961" x2="222.4961" y1="832.375" y2="852.375"/><polygon fill="#181818" points="218.4961,842.375,222.4961,852.375,226.4961,842.375,222.4961,846.375" style="stroke:#181818;stroke-width:1;"/><line style="stroke:#181818;stroke-width:1;" x1="222.4961" x2="222.4961" y1="876.375" y2="896.375"/><polygon fill="#181818" points="218.4961,886.375,222.4961,896.375,226.4961,886.375,222.4961,890.375" style="stroke:#181818;stroke-width:1;"/><line style="stroke:#181818;stroke-width:1;" x1="222.4961" x2="222.4961" y1="1076.7148" y2="1109.2305"/><polygon fill="#181818" points="218.4961,1099.2305,222.4961,1109.2305,226.4961,1099.2305,222.4961,1103.2305" style="stroke:#181818;stroke-width:1;"/><line style="stroke:#181818;stroke-width:1;" x1="222.4961" x2="222.4961" y1="1018.3438" y2="1042.7461"/><polygon fill="#181818" points="218.4961,1032.7461,222.4961,1042.7461,226.4961,1032.7461,222.4961,1036.7461" style="stroke:#181818;stroke-width:1;"/><line style="stroke:#181818;stroke-width:1;" x1="276.1677" x2="323.9209" y1="1006.3438" y2="1006.3438"/><polygon fill="#181818" points="319.9209,1075.2305,323.9209,1085.2305,327.9209,1075.2305,323.9209,1079.2305" style="stroke:#181818;stroke-width:1;"/><line style="stroke:#181818;stroke-width:1;" x1="323.9209" x2="323.9209" y1="1006.3438" y2="1153.2305"/><line style="stroke:#181818;stroke-width:1;" x1="323.9209" x2="222.4961" y1="1153.2305" y2="1153.2305"/><line style="stroke:#181818;stroke-width:1;" x1="222.4961" x2="222.4961" y1="1153.2305" y2="1173.2305"/><polygon fill="#181818" points="218.4961,1163.2305,222.4961,1173.2305,226.4961,1163.2305,222.4961,1167.2305" style="stroke:#181818;stroke-width:1;"/><line style="stroke:#181818;stroke-width:1;" x1="222.4961" x2="222.4961" y1="974.3438" y2="994.3438"/><polygon fill="#181818" points="218.4961,984.3438,222.4961,994.3438,226.4961,984.3438,222.4961,988.3438" style="stroke:#181818;stroke-width:1;"/><line style="stroke:#181818;stroke-width:1;" x1="222.4961" x2="222.4961" y1="1207.1992" y2="1217.1992"/><line style="stroke:#181818;stroke-width:1;" x1="222.4961" x2="347.9209" y1="1217.1992" y2="1217.1992"/><polygon fill="#181818" points="343.9209,1109.2305,347.9209,1099.2305,351.9209,1109.2305,347.9209,1105.2305" style="stroke:#181818;stroke-width:1;"/><line style="stroke:#181818;stroke-width:1;" x1="347.9209" x2="347.9209" y1="962.3438" y2="1217.1992"/><line style="stroke:#181818;stroke-width:1;" x1="347.9209" x2="290.3582" y1="962.3438" y2="962.3438"/><polygon fill="#181818" points="300.3582,958.3438,290.3582,962.3438,300.3582,966.3438,296.3582,962.3438" style="stroke:#181818;stroke-width:1;"/><line style="stroke:#181818;stroke-width:1;" x1="154.634" x2="109.0713" y1="962.3438" y2="962.3438"/><polygon fill="#181818" points="105.0713,1095.2305,109.0713,1105.2305,113.0713,1095.2305,109.0713,1099.2305" style="stroke:#181818;stroke-width:1;"/><line style="stroke:#181818;stroke-width:1;" x1="109.0713" x2="109.0713" y1="962.3438" y2="1229.1992"/><line style="stroke:#181818;stroke-width:1;" x1="109.0713" x2="222.4961" y1="1229.1992" y2="1229.1992"/><line style="stroke:#181818;stroke-width:1;" x1="222.4961" x2="222.4961" y1="1229.1992" y2="1249.1992"/><polygon fill="#181818" points="218.4961,1239.1992,222.4961,1249.1992,226.4961,1239.1992,222.4961,1243.1992" style="stroke:#181818;stroke-width:1;"/><line style="stroke:#181818;stroke-width:1;" x1="222.4961" x2="222.4961" y1="930.3438" y2="950.3438"/><polygon fill="#181818" points="218.4961,940.3438,222.4961,950.3438,226.4961,940.3438,222.4961,944.3438" style="stroke:#181818;stroke-width:1;"/><line style="stroke:#181818;stroke-width:1;" x1="222.4961" x2="222.4961" y1="1327.168" y2="1373.4648"/><line style="stroke:#181818;stroke-width:1;" x1="281.8906" x2="311.8989" y1="1315.168" y2="1315.168"/><polygon fill="#181818" points="301.8989,1311.168,311.8989,1315.168,301.8989,1319.168,305.8989,1315.168" style="stroke:#181818;stroke-width:1;"/><line style="stroke:#181818;stroke-width:1;" x1="222.4961" x2="222.4961" y1="1283.168" y2="1303.168"/><polygon fill="#181818" points="218.4961,1293.168,222.4961,1303.168,226.4961,1293.168,222.4961,1297.168" style="stroke:#181818;stroke-width:1;"/><line style="stroke:#181818;stroke-width:1;" x1="222.4961" x2="222.4961" y1="499.3047" y2="557.6016"/><polygon fill="#181818" points="218.4961,547.6016,222.4961,557.6016,226.4961,547.6016,222.4961,551.6016" style="stroke:#181818;stroke-width:1;"/><line style="stroke:#181818;stroke-width:1;" x1="110.8369" x2="110.8369" y1="1478.144" y2="1498.144"/><polygon fill="#181818" points="106.8369,1488.144,110.8369,1498.144,114.8369,1488.144,110.8369,1492.144" style="stroke:#181818;stroke-width:1;"/><line style="stroke:#181818;stroke-width:1;" x1="110.8369" x2="110.8369" y1="1532.1128" y2="1552.1128"/><polygon fill="#181818" points="106.8369,1542.1128,110.8369,1552.1128,114.8369,1542.1128,110.8369,1546.1128" style="stroke:#181818;stroke-width:1;"/><line style="stroke:#181818;stroke-width:1;" x1="297.333" x2="297.333" y1="1478.144" y2="1498.144"/><polygon fill="#181818" points="293.333,1488.144,297.333,1498.144,301.333,1488.144,297.333,1492.144" style="stroke:#181818;stroke-width:1;"/><line style="stroke:#181818;stroke-width:1;" x1="110.8369" x2="110.8369" y1="1412.4648" y2="1444.1753"/><polygon fill="#181818" points="106.8369,1434.1753,110.8369,1444.1753,114.8369,1434.1753,110.8369,1438.1753" style="stroke:#181818;stroke-width:1;"/><line style="stroke:#181818;stroke-width:1;" x1="297.333" x2="297.333" y1="1412.4648" y2="1444.1753"/><polygon fill="#181818" points="293.333,1434.1753,297.333,1444.1753,301.333,1434.1753,297.333,1438.1753" style="stroke:#181818;stroke-width:1;"/><line style="stroke:#181818;stroke-width:1;" x1="186.5059" x2="222.04" y1="1400.4648" y2="1400.4648"/><polygon fill="#181818" points="212.04,1396.4648,222.04,1400.4648,212.04,1404.4648,216.04,1400.4648" style="stroke:#181818;stroke-width:1;"/><line style="stroke:#181818;stroke-width:1;" x1="222.4961" x2="110.8369" y1="1373.4648" y2="1373.4648"/><line style="stroke:#181818;stroke-width:1;" x1="110.8369" x2="110.8369" y1="1373.4648" y2="1388.4648"/><polygon fill="#181818" points="106.8369,1378.4648,110.8369,1388.4648,114.8369,1378.4648,110.8369,1382.4648" style="stroke:#181818;stroke-width:1;"/><line style="stroke:#181818;stroke-width:1;" x1="372.626" x2="408.9922" y1="1400.4648" y2="1400.4648"/><line style="stroke:#181818;stroke-width:1;" x1="408.9922" x2="408.9922" y1="1400.4648" y2="1579.1128"/><line style="stroke:#181818;stroke-width:1;" x1="408.9922" x2="222.4961" y1="1579.1128" y2="1579.1128"/><line style="stroke:#181818;stroke-width:1;" x1="222.4961" x2="222.4961" y1="1579.1128" y2="1606.1128"/><polygon fill="#181818" points="218.4961,1596.1128,222.4961,1606.1128,226.4961,1596.1128,222.4961,1600.1128" style="stroke:#181818;stroke-width:1;"/><line style="stroke:#181818;stroke-width:1;" x1="222.4961" x2="222.4961" y1="1640.0815" y2="1660.0815"/><polygon fill="#181818" points="218.4961,1650.0815,222.4961,1660.0815,226.4961,1650.0815,222.4961,1654.0815" style="stroke:#181818;stroke-width:1;"/><!--SRC=[ZLF1Rjim3BtxAuXUcW31Fi0-54MxOfSCHTD-W2BJiLP7CaZQJZ3itqVPJkAcxh2BPKWa7z_ZepYf4DR8R7RuwBWsOakaD6NqEJnLeKiI5aEI9BL-dRZWuUO5BReM2Pu9QmfMqvtVtS3l1C0Li22qBJY6JLCZFLCu7E-M82LwM1oHbne5a7u_21ahq9T_g0npDZoy-OvC3NgzGu6m_OLMufDsv0ezhq3wr4SiPY1-69yhFHiy2pLM0i5-e3fY-I08v7QbfE2nMq51OP-kWD3aVK04cgQNVSNyCnOeZr3tlwS-X_FF1-NMA6N8uQJqHRB2i83UbM1QuogphN26q4E9zXqARQHXZ6JwQiv3wP0CsVAOdTlsOHeqrt7wIaSe72dojd6LQ1qZWljQiZ4YrZazSMCjOivpbIRiB_olbT2VT1E73JQExD8pCCOpWau7yiR84tU0ieup_zPd3pxeIgVpNQYHr8tHWvUYoxCGeqf5QFoy3CwtuHrxGwr6kLQWxkDbzjLiDMiTMWG9EZH2Ft8QRTgtDNJOQyoe7ihdHFu_WKVuEKFTYv3RDghQlOrxU74KeyBGdO9NCPEXS-gks_JsNxOQjRAXgXmhmBYI6rr4SqBAFlHKCKQqtOXsZW8yE1R-3FQ2qf2V1BQcQgwAdeYchoM53eQj-HdaASumIsBONm00]--></g></svg>