<svg xmlns="http://www.w3.org/2000/svg" xmlns:xlink="http://www.w3.org/1999/xlink" contentStyleType="text/css" data-diagram-type="ACTIVITY" height="1429px" preserveAspectRatio="none" style="width:621px;height:1429px;background:#FFFFFF;" version="1.1" viewBox="0 0 621 1429" width="621px" zoomAndPan="magnify"><title>Block Implementation Detail</title><defs/><g><g class="title" data-source-line="1"><text fill="#000000" font-family="sans-serif" font-size="14" font-weight="bold" lengthAdjust="spacing" textLength="224.6768" x="197.054" y="32.9951">Block Implementation Detail</text></g><ellipse cx="250.4331" cy="57.2969" fill="#222222" rx="10" ry="10" style="stroke:#222222;stroke-width:1;"/><rect fill="#F1F1F1" height="33.9688" rx="12.5" ry="12.5" style="stroke:#181818;stroke-width:0.5;" width="184.8828" x="157.9917" y="87.2969"/><text fill="#000000" font-family="sans-serif" font-size="12" lengthAdjust="spacing" textLength="164.8828" x="167.9917" y="108.4355">Block.builtin(selector, args)</text><polygon fill="#F1F1F1" points="47.783,141.2656,165.802,141.2656,177.802,153.2656,165.802,165.2656,47.783,165.2656,35.783,153.2656,47.783,141.2656" style="stroke:#181818;stroke-width:0.5;"/><text fill="#000000" font-family="sans-serif" font-size="11" lengthAdjust="spacing" textLength="19.0083" x="110.7925" y="175.4761">yes</text><text fill="#000000" font-family="sans-serif" font-size="11" lengthAdjust="spacing" textLength="118.019" x="47.783" y="157.0737">selector == "isBlock"</text><rect fill="#F1F1F1" height="33.9688" rx="12.5" ry="12.5" style="stroke:#181818;stroke-width:0.5;" width="129.3477" x="42.1187" y="196.9761"/><text fill="#000000" font-family="sans-serif" font-size="12" lengthAdjust="spacing" textLength="109.3477" x="52.1187" y="218.1147">return TrueB.get()</text><ellipse cx="106.7925" cy="261.9448" fill="none" rx="11" ry="11" style="stroke:#222222;stroke-width:1;"/><ellipse cx="106.7925" cy="261.9448" fill="#222222" rx="6" ry="6" style="stroke:#222222;stroke-width:1;"/><polygon fill="#F1F1F1" points="219.9343,141.2656,356.9509,141.2656,368.9509,153.2656,356.9509,165.2656,219.9343,165.2656,207.9343,153.2656,219.9343,141.2656" style="stroke:#181818;stroke-width:0.5;"/><text fill="#000000" font-family="sans-serif" font-size="11" lengthAdjust="spacing" textLength="19.0083" x="292.4426" y="175.4761">yes</text><text fill="#000000" font-family="sans-serif" font-size="11" lengthAdjust="spacing" textLength="137.0166" x="219.9343" y="157.0737">selector == "whileTrue:"</text><rect fill="#F1F1F1" height="33.9688" rx="12.5" ry="12.5" style="stroke:#181818;stroke-width:0.5;" width="140.0234" x="218.4309" y="253.9761"/><text fill="#000000" font-family="sans-serif" font-size="12" lengthAdjust="spacing" textLength="120.0234" x="228.4309" y="275.1147">Execute this.value()</text><rect fill="#F1F1F1" height="33.9688" rx="12.5" ry="12.5" style="stroke:#181818;stroke-width:0.5;" width="94.9414" x="240.9719" y="307.9448"/><text fill="#000000" font-family="sans-serif" font-size="12" lengthAdjust="spacing" textLength="74.9414" x="250.9719" y="329.0835">Check result</text><rect fill="#F1F1F1" height="33.9688" rx="12.5" ry="12.5" style="stroke:#181818;stroke-width:0.5;" width="161.2813" x="207.802" y="410.3159"/><text fill="#000000" font-family="sans-serif" font-size="12" lengthAdjust="spacing" textLength="141.2813" x="217.802" y="431.4546">Execute args[0].value()</text><polygon fill="#F1F1F1" points="253.5842,361.9136,323.301,361.9136,335.301,373.9136,323.301,385.9136,253.5842,385.9136,241.5842,373.9136,253.5842,361.9136" style="stroke:#181818;stroke-width:0.5;"/><text fill="#000000" font-family="sans-serif" font-size="11" lengthAdjust="spacing" textLength="19.0083" x="292.4426" y="396.124">yes</text><text fill="#000000" font-family="sans-serif" font-size="11" lengthAdjust="spacing" textLength="69.7168" x="253.5842" y="377.7217">result is true</text><polygon fill="#F1F1F1" points="288.4426,464.2847,300.4426,476.2847,288.4426,488.2847,276.4426,476.2847,288.4426,464.2847" style="stroke:#181818;stroke-width:0.5;"/><polygon fill="#F1F1F1" points="288.4426,196.9761,300.4426,208.9761,288.4426,220.9761,276.4426,208.9761,288.4426,196.9761" style="stroke:#181818;stroke-width:0.5;"/><polygon fill="#F1F1F1" points="253.5842,508.2847,323.301,508.2847,335.301,520.2847,323.301,532.2847,253.5842,532.2847,241.5842,520.2847,253.5842,508.2847" style="stroke:#181818;stroke-width:0.5;"/><text fill="#000000" font-family="sans-serif" font-size="11" lengthAdjust="spacing" textLength="69.7168" x="253.5842" y="524.0928">result is true</text><text fill="#000000" font-family="sans-serif" font-size="11" lengthAdjust="spacing" textLength="19.0083" x="335.301" y="517.6904">yes</text><rect fill="#F1F1F1" height="33.9688" rx="12.5" ry="12.5" style="stroke:#181818;stroke-width:0.5;" width="117.7402" x="229.5725" y="552.2847"/><text fill="#000000" font-family="sans-serif" font-size="12" lengthAdjust="spacing" textLength="97.7402" x="239.5725" y="573.4233">return NilB.get()</text><ellipse cx="288.4426" cy="617.2534" fill="none" rx="11" ry="11" style="stroke:#222222;stroke-width:1;"/><ellipse cx="288.4426" cy="617.2534" fill="#222222" rx="6" ry="6" style="stroke:#222222;stroke-width:1;"/><path d="M364.1284,652.6714 L364.1284,661.2378 L344.1284,665.2378 L364.1284,669.2378 L364.1284,677.8042 A0,0 0 0 0 364.1284,677.8042 L609.7847,677.8042 A0,0 0 0 0 609.7847,677.8042 L609.7847,662.6714 L599.7847,652.6714 L364.1284,652.6714 A0,0 0 0 0 364.1284,652.6714" fill="#FEFFDD" style="stroke:#181818;stroke-width:0.5;"/><path d="M599.7847,652.6714 L599.7847,662.6714 L609.7847,662.6714 L599.7847,652.6714" fill="#FEFFDD" style="stroke:#181818;stroke-width:0.5;"/><text fill="#000000" font-family="sans-serif" font-size="13" lengthAdjust="spacing" textLength="224.6563" x="370.1284" y="669.7383">Based on arity (value, value:, etc.)</text><rect fill="#F1F1F1" height="33.9688" rx="12.5" ry="12.5" style="stroke:#181818;stroke-width:0.5;" width="187.3906" x="156.7378" y="648.2534"/><text fill="#000000" font-family="sans-serif" font-size="12" lengthAdjust="spacing" textLength="167.3906" x="166.7378" y="669.3921">Calculate expected selector</text><polygon fill="#F1F1F1" points="167.5894,702.2222,333.2769,702.2222,345.2769,714.2222,333.2769,726.2222,167.5894,726.2222,155.5894,714.2222,167.5894,702.2222" style="stroke:#181818;stroke-width:0.5;"/><text fill="#000000" font-family="sans-serif" font-size="11" lengthAdjust="spacing" textLength="165.6875" x="167.5894" y="718.0303">selector == expectedSelector</text><text fill="#000000" font-family="sans-serif" font-size="11" lengthAdjust="spacing" textLength="19.0083" x="136.5811" y="711.6279">yes</text><text fill="#000000" font-family="sans-serif" font-size="11" lengthAdjust="spacing" textLength="13.7017" x="345.2769" y="711.6279">no</text><rect fill="#F1F1F1" height="33.9688" rx="12.5" ry="12.5" style="stroke:#181818;stroke-width:0.5;" width="163.9414" x="54.6611" y="784.6245"/><text fill="#000000" font-family="sans-serif" font-size="12" lengthAdjust="spacing" textLength="143.9414" x="64.6611" y="805.7632">Throw MethodNotFound</text><ellipse cx="136.6318" cy="858.1909" fill="none" rx="11" ry="11" style="stroke:#222222;stroke-width:1;"/><ellipse cx="136.6318" cy="858.1909" fill="#222222" rx="6" ry="6" style="stroke:#222222;stroke-width:1;"/><polygon fill="#F1F1F1" points="38.8323,736.2222,234.4314,736.2222,246.4314,748.2222,234.4314,760.2222,38.8323,760.2222,26.8323,748.2222,38.8323,736.2222" style="stroke:#181818;stroke-width:0.5;"/><text fill="#000000" font-family="sans-serif" font-size="11" lengthAdjust="spacing" textLength="19.0083" x="140.6318" y="770.4326">yes</text><text fill="#000000" font-family="sans-serif" font-size="11" lengthAdjust="spacing" textLength="195.5991" x="38.8323" y="752.0303">captureSelf == null || body == null</text><rect fill="#F1F1F1" height="33.9688" rx="12.5" ry="12.5" style="stroke:#181818;stroke-width:0.5;" width="169.4551" x="51.9043" y="911.1909"/><text fill="#000000" font-family="sans-serif" font-size="12" lengthAdjust="spacing" textLength="149.4551" x="61.9043" y="932.3296">Create new Environment</text><rect fill="#F1F1F1" height="33.9688" rx="12.5" ry="12.5" style="stroke:#181818;stroke-width:0.5;" width="251.2637" x="11" y="965.1597"/><text fill="#000000" font-family="sans-serif" font-size="12" lengthAdjust="spacing" textLength="231.2637" x="21" y="986.2983">Prepare frameVars with self and super</text><rect fill="#F1F1F1" height="33.9688" rx="12.5" ry="12.5" style="stroke:#181818;stroke-width:0.5;" width="172.3379" x="50.4629" y="1019.1284"/><text fill="#000000" font-family="sans-serif" font-size="12" lengthAdjust="spacing" textLength="152.3379" x="60.4629" y="1040.2671">Collect parameter names</text><rect fill="#F1F1F1" height="33.9688" rx="12.5" ry="12.5" style="stroke:#181818;stroke-width:0.5;" width="205.0273" x="34.1182" y="1073.0972"/><text fill="#000000" font-family="sans-serif" font-size="12" lengthAdjust="spacing" textLength="185.0273" x="44.1182" y="1094.2358">Bind parameters to arguments</text><rect fill="#F1F1F1" height="33.9688" rx="12.5" ry="12.5" style="stroke:#181818;stroke-width:0.5;" width="208.9531" x="32.1553" y="1127.0659"/><text fill="#000000" font-family="sans-serif" font-size="12" lengthAdjust="spacing" textLength="188.9531" x="42.1553" y="1148.2046">Mark parameters as immutable</text><rect fill="#F1F1F1" height="33.9688" rx="12.5" ry="12.5" style="stroke:#181818;stroke-width:0.5;" width="215.7559" x="28.7539" y="1181.0347"/><text fill="#000000" font-family="sans-serif" font-size="12" lengthAdjust="spacing" textLength="195.7559" x="38.7539" y="1202.1733">Push new Frame to environment</text><rect fill="#F1F1F1" height="33.9688" rx="12.5" ry="12.5" style="stroke:#181818;stroke-width:0.5;" width="220.0449" x="26.6094" y="1235.0034"/><text fill="#000000" font-family="sans-serif" font-size="12" lengthAdjust="spacing" textLength="200.0449" x="36.6094" y="1256.1421">invokeBlockBody(body, self, env)</text><rect fill="#F1F1F1" height="33.9688" rx="12.5" ry="12.5" style="stroke:#181818;stroke-width:0.5;" width="81.5938" x="95.835" y="1288.9722"/><text fill="#000000" font-family="sans-serif" font-size="12" lengthAdjust="spacing" textLength="61.5938" x="105.835" y="1310.1108">Pop frame</text><rect fill="#F1F1F1" height="33.9688" rx="12.5" ry="12.5" style="stroke:#181818;stroke-width:0.5;" width="98.5977" x="87.333" y="1342.9409"/><text fill="#000000" font-family="sans-serif" font-size="12" lengthAdjust="spacing" textLength="78.5977" x="97.333" y="1364.0796">Return result</text><ellipse cx="136.6318" cy="1407.9097" fill="none" rx="11" ry="11" style="stroke:#222222;stroke-width:1;"/><ellipse cx="136.6318" cy="1407.9097" fill="#222222" rx="6" ry="6" style="stroke:#222222;stroke-width:1;"/><rect fill="#F1F1F1" height="33.9688" rx="12.5" ry="12.5" style="stroke:#181818;stroke-width:0.5;" width="163.9414" x="282.2637" y="736.2222"/><text fill="#000000" font-family="sans-serif" font-size="12" lengthAdjust="spacing" textLength="143.9414" x="292.2637" y="757.3608">Throw MethodNotFound</text><ellipse cx="364.2344" cy="816.1909" fill="none" rx="11" ry="11" style="stroke:#222222;stroke-width:1;"/><ellipse cx="364.2344" cy="816.1909" fill="#222222" rx="6" ry="6" style="stroke:#222222;stroke-width:1;"/><line style="stroke:#181818;stroke-width:1;" x1="250.4331" x2="250.4331" y1="67.2969" y2="87.2969"/><polygon fill="#181818" points="246.4331,77.2969,250.4331,87.2969,254.4331,77.2969,250.4331,81.2969" style="stroke:#181818;stroke-width:1;"/><line style="stroke:#181818;stroke-width:1;" x1="106.7925" x2="106.7925" y1="230.9448" y2="250.9448"/><polygon fill="#181818" points="102.7925,240.9448,106.7925,250.9448,110.7925,240.9448,106.7925,244.9448" style="stroke:#181818;stroke-width:1;"/><line style="stroke:#181818;stroke-width:1;" x1="288.4426" x2="288.4426" y1="287.9448" y2="307.9448"/><polygon fill="#181818" points="284.4426,297.9448,288.4426,307.9448,292.4426,297.9448,288.4426,301.9448" style="stroke:#181818;stroke-width:1;"/><line style="stroke:#181818;stroke-width:1;" x1="288.4426" x2="288.4426" y1="385.9136" y2="410.3159"/><polygon fill="#181818" points="284.4426,400.3159,288.4426,410.3159,292.4426,400.3159,288.4426,404.3159" style="stroke:#181818;stroke-width:1;"/><line style="stroke:#181818;stroke-width:1;" x1="335.301" x2="379.0833" y1="373.9136" y2="373.9136"/><polygon fill="#181818" points="375.0833,417.3003,379.0833,427.3003,383.0833,417.3003,379.0833,421.3003" style="stroke:#181818;stroke-width:1;"/><line style="stroke:#181818;stroke-width:1;" x1="379.0833" x2="379.0833" y1="373.9136" y2="476.2847"/><line style="stroke:#181818;stroke-width:1;" x1="379.0833" x2="300.4426" y1="476.2847" y2="476.2847"/><polygon fill="#181818" points="310.4426,472.2847,300.4426,476.2847,310.4426,480.2847,306.4426,476.2847" style="stroke:#181818;stroke-width:1;"/><line style="stroke:#181818;stroke-width:1;" x1="288.4426" x2="288.4426" y1="444.2847" y2="464.2847"/><polygon fill="#181818" points="284.4426,454.2847,288.4426,464.2847,292.4426,454.2847,288.4426,458.2847" style="stroke:#181818;stroke-width:1;"/><line style="stroke:#181818;stroke-width:1;" x1="288.4426" x2="288.4426" y1="341.9136" y2="361.9136"/><polygon fill="#181818" points="284.4426,351.9136,288.4426,361.9136,292.4426,351.9136,288.4426,355.9136" style="stroke:#181818;stroke-width:1;"/><line style="stroke:#181818;stroke-width:1;" x1="288.4426" x2="288.4426" y1="220.9761" y2="253.9761"/><polygon fill="#181818" points="284.4426,243.9761,288.4426,253.9761,292.4426,243.9761,288.4426,247.9761" style="stroke:#181818;stroke-width:1;"/><line style="stroke:#181818;stroke-width:1;" x1="335.301" x2="403.0833" y1="520.2847" y2="520.2847"/><polygon fill="#181818" points="399.0833,368.3315,403.0833,358.3315,407.0833,368.3315,403.0833,364.3315" style="stroke:#181818;stroke-width:1;"/><line style="stroke:#181818;stroke-width:1;" x1="403.0833" x2="403.0833" y1="208.9761" y2="520.2847"/><line style="stroke:#181818;stroke-width:1;" x1="403.0833" x2="300.4426" y1="208.9761" y2="208.9761"/><polygon fill="#181818" points="310.4426,204.9761,300.4426,208.9761,310.4426,212.9761,306.4426,208.9761" style="stroke:#181818;stroke-width:1;"/><line style="stroke:#181818;stroke-width:1;" x1="288.4426" x2="288.4426" y1="488.2847" y2="508.2847"/><polygon fill="#181818" points="284.4426,498.2847,288.4426,508.2847,292.4426,498.2847,288.4426,502.2847" style="stroke:#181818;stroke-width:1;"/><line style="stroke:#181818;stroke-width:1;" x1="288.4426" x2="288.4426" y1="532.2847" y2="552.2847"/><polygon fill="#181818" points="284.4426,542.2847,288.4426,552.2847,292.4426,542.2847,288.4426,546.2847" style="stroke:#181818;stroke-width:1;"/><line style="stroke:#181818;stroke-width:1;" x1="288.4426" x2="288.4426" y1="586.2534" y2="606.2534"/><polygon fill="#181818" points="284.4426,596.2534,288.4426,606.2534,292.4426,596.2534,288.4426,600.2534" style="stroke:#181818;stroke-width:1;"/><line style="stroke:#181818;stroke-width:1;" x1="106.7925" x2="106.7925" y1="165.2656" y2="196.9761"/><polygon fill="#181818" points="102.7925,186.9761,106.7925,196.9761,110.7925,186.9761,106.7925,190.9761" style="stroke:#181818;stroke-width:1;"/><line style="stroke:#181818;stroke-width:1;" x1="288.4426" x2="288.4426" y1="165.2656" y2="196.9761"/><polygon fill="#181818" points="284.4426,186.9761,288.4426,196.9761,292.4426,186.9761,288.4426,190.9761" style="stroke:#181818;stroke-width:1;"/><line style="stroke:#181818;stroke-width:1;" x1="177.802" x2="207.9343" y1="153.2656" y2="153.2656"/><polygon fill="#181818" points="197.9343,149.2656,207.9343,153.2656,197.9343,157.2656,201.9343,153.2656" style="stroke:#181818;stroke-width:1;"/><line style="stroke:#181818;stroke-width:1;" x1="250.4331" x2="250.4331" y1="121.2656" y2="126.2656"/><line style="stroke:#181818;stroke-width:1;" x1="250.4331" x2="106.7925" y1="126.2656" y2="126.2656"/><line style="stroke:#181818;stroke-width:1;" x1="106.7925" x2="106.7925" y1="126.2656" y2="141.2656"/><polygon fill="#181818" points="102.7925,131.2656,106.7925,141.2656,110.7925,131.2656,106.7925,135.2656" style="stroke:#181818;stroke-width:1;"/><line style="stroke:#181818;stroke-width:1;" x1="368.9509" x2="450.0833" y1="153.2656" y2="153.2656"/><line style="stroke:#181818;stroke-width:1;" x1="450.0833" x2="450.0833" y1="153.2656" y2="633.2534"/><line style="stroke:#181818;stroke-width:1;" x1="450.0833" x2="250.4331" y1="633.2534" y2="633.2534"/><line style="stroke:#181818;stroke-width:1;" x1="250.4331" x2="250.4331" y1="633.2534" y2="648.2534"/><polygon fill="#181818" points="246.4331,638.2534,250.4331,648.2534,254.4331,638.2534,250.4331,642.2534" style="stroke:#181818;stroke-width:1;"/><line style="stroke:#181818;stroke-width:1;" x1="136.6318" x2="136.6318" y1="818.5933" y2="847.1909"/><polygon fill="#181818" points="132.6318,837.1909,136.6318,847.1909,140.6318,837.1909,136.6318,841.1909" style="stroke:#181818;stroke-width:1;"/><line style="stroke:#181818;stroke-width:1;" x1="136.6318" x2="136.6318" y1="760.2222" y2="784.6245"/><polygon fill="#181818" points="132.6318,774.6245,136.6318,784.6245,140.6318,774.6245,136.6318,778.6245" style="stroke:#181818;stroke-width:1;"/><line style="stroke:#181818;stroke-width:1;" x1="246.4314" x2="258.4314" y1="748.2222" y2="748.2222"/><polygon fill="#181818" points="254.4314,817.1089,258.4314,827.1089,262.4314,817.1089,258.4314,821.1089" style="stroke:#181818;stroke-width:1;"/><line style="stroke:#181818;stroke-width:1;" x1="258.4314" x2="258.4314" y1="748.2222" y2="891.1909"/><line style="stroke:#181818;stroke-width:1;" x1="258.4314" x2="136.6318" y1="891.1909" y2="891.1909"/><line style="stroke:#181818;stroke-width:1;" x1="136.6318" x2="136.6318" y1="891.1909" y2="911.1909"/><polygon fill="#181818" points="132.6318,901.1909,136.6318,911.1909,140.6318,901.1909,136.6318,905.1909" style="stroke:#181818;stroke-width:1;"/><line style="stroke:#181818;stroke-width:1;" x1="136.6318" x2="136.6318" y1="945.1597" y2="965.1597"/><polygon fill="#181818" points="132.6318,955.1597,136.6318,965.1597,140.6318,955.1597,136.6318,959.1597" style="stroke:#181818;stroke-width:1;"/><line style="stroke:#181818;stroke-width:1;" x1="136.6318" x2="136.6318" y1="999.1284" y2="1019.1284"/><polygon fill="#181818" points="132.6318,1009.1284,136.6318,1019.1284,140.6318,1009.1284,136.6318,1013.1284" style="stroke:#181818;stroke-width:1;"/><line style="stroke:#181818;stroke-width:1;" x1="136.6318" x2="136.6318" y1="1053.0972" y2="1073.0972"/><polygon fill="#181818" points="132.6318,1063.0972,136.6318,1073.0972,140.6318,1063.0972,136.6318,1067.0972" style="stroke:#181818;stroke-width:1;"/><line style="stroke:#181818;stroke-width:1;" x1="136.6318" x2="136.6318" y1="1107.0659" y2="1127.0659"/><polygon fill="#181818" points="132.6318,1117.0659,136.6318,1127.0659,140.6318,1117.0659,136.6318,1121.0659" style="stroke:#181818;stroke-width:1;"/><line style="stroke:#181818;stroke-width:1;" x1="136.6318" x2="136.6318" y1="1161.0347" y2="1181.0347"/><polygon fill="#181818" points="132.6318,1171.0347,136.6318,1181.0347,140.6318,1171.0347,136.6318,1175.0347" style="stroke:#181818;stroke-width:1;"/><line style="stroke:#181818;stroke-width:1;" x1="136.6318" x2="136.6318" y1="1215.0034" y2="1235.0034"/><polygon fill="#181818" points="132.6318,1225.0034,136.6318,1235.0034,140.6318,1225.0034,136.6318,1229.0034" style="stroke:#181818;stroke-width:1;"/><line style="stroke:#181818;stroke-width:1;" x1="136.6318" x2="136.6318" y1="1268.9722" y2="1288.9722"/><polygon fill="#181818" points="132.6318,1278.9722,136.6318,1288.9722,140.6318,1278.9722,136.6318,1282.9722" style="stroke:#181818;stroke-width:1;"/><line style="stroke:#181818;stroke-width:1;" x1="136.6318" x2="136.6318" y1="1322.9409" y2="1342.9409"/><polygon fill="#181818" points="132.6318,1332.9409,136.6318,1342.9409,140.6318,1332.9409,136.6318,1336.9409" style="stroke:#181818;stroke-width:1;"/><line style="stroke:#181818;stroke-width:1;" x1="136.6318" x2="136.6318" y1="1376.9097" y2="1396.9097"/><polygon fill="#181818" points="132.6318,1386.9097,136.6318,1396.9097,140.6318,1386.9097,136.6318,1390.9097" style="stroke:#181818;stroke-width:1;"/><line style="stroke:#181818;stroke-width:1;" x1="364.2344" x2="364.2344" y1="770.1909" y2="805.1909"/><polygon fill="#181818" points="360.2344,795.1909,364.2344,805.1909,368.2344,795.1909,364.2344,799.1909" style="stroke:#181818;stroke-width:1;"/><line style="stroke:#181818;stroke-width:1;" x1="155.5894" x2="136.6318" y1="714.2222" y2="714.2222"/><line style="stroke:#181818;stroke-width:1;" x1="136.6318" x2="136.6318" y1="714.2222" y2="736.2222"/><polygon fill="#181818" points="132.6318,726.2222,136.6318,736.2222,140.6318,726.2222,136.6318,730.2222" style="stroke:#181818;stroke-width:1;"/><line style="stroke:#181818;stroke-width:1;" x1="345.2769" x2="364.2344" y1="714.2222" y2="714.2222"/><line style="stroke:#181818;stroke-width:1;" x1="364.2344" x2="364.2344" y1="714.2222" y2="736.2222"/><polygon fill="#181818" points="360.2344,726.2222,364.2344,736.2222,368.2344,726.2222,364.2344,730.2222" style="stroke:#181818;stroke-width:1;"/><line style="stroke:#181818;stroke-width:1;" x1="250.4331" x2="250.4331" y1="682.2222" y2="702.2222"/><polygon fill="#181818" points="246.4331,692.2222,250.4331,702.2222,254.4331,692.2222,250.4331,696.2222" style="stroke:#181818;stroke-width:1;"/><!--SRC=[TLB1JkCm4BtdAqQS4YcgEAVYaW8I1n3QHNjPxS5D9erLnux6uvPAVFoE7Tf28awsPvwVttiUrcmGQkEQFJmDey41BIlMpi8zij8copmhugnAcDKsQCFQvXuDDkoe14KxNwopJ7TmgSBT7TnedwxS5C0zMiXFw8iCe2BaG1RUA62zsY7dSXl0inipD1uNFCTU6upeQav5EA9YsGZhmpisWL40sgyEoWISUAMrwL7S4VfWU2h5DwOpQ0yit3FcRvJHuT_RVzzPqRQwksY09799AfkvxnTj5hOJLrPjb6c2KV8aleyI0BPmJcATMITrqhkUAwYLbvxyaIBD9yYJiXBIKfM0tAoAvO-SINz_rcQU8xnHeuX4GNJnXWt6mCS7R5rxEfyNILLlFRaZF2Fthdrn_EY2RQUGahjhLZ653M4qQF483_QWoTauSH5UlKgMYX0wKWF-KUJXgBcF4NIWh6GHHgI4t3WJBO301Sf8O6NrgLThWLuQyX4kVc28hqo0PqNxhm3bGGz3OBKrkFvK-HfydpG-HbZam9bORGzkZsd2QqadZn6LIMiPiSNao8sJcpFlhsa6hhDu6Nl8hKjZybEQrqdv3m00]--></g></svg>