<svg xmlns="http://www.w3.org/2000/svg" xmlns:xlink="http://www.w3.org/1999/xlink" contentStyleType="text/css" data-diagram-type="ACTIVITY" height="1054px" preserveAspectRatio="none" style="width:1505px;height:1054px;background:#FFFFFF;" version="1.1" viewBox="0 0 1505 1054" width="1505px" zoomAndPan="magnify"><title>Class Loading and Instantiation</title><defs/><g><g class="title" data-source-line="1"><text fill="#000000" font-family="sans-serif" font-size="14" font-weight="bold" lengthAdjust="spacing" textLength="249.6689" x="626.473" y="32.9951">Class Loading and Instantiation</text></g><ellipse cx="761.8835" cy="57.2969" fill="#222222" rx="10" ry="10" style="stroke:#222222;stroke-width:1;"/><rect fill="#F1F1F1" height="33.9688" rx="12.5" ry="12.5" style="stroke:#181818;stroke-width:0.5;" width="175.4609" x="674.1531" y="87.2969"/><text fill="#000000" font-family="sans-serif" font-size="12" lengthAdjust="spacing" textLength="155.4609" x="684.1531" y="108.4355">loadFromDOM(document)</text><path d="M863.3152,138.1172 L863.3152,154.25 L843.3152,158.25 L863.3152,162.25 L863.3152,178.3828 A0,0 0 0 0 863.3152,178.3828 L1032.8757,178.3828 A0,0 0 0 0 1032.8757,178.3828 L1032.8757,148.1172 L1022.8757,138.1172 L863.3152,138.1172 A0,0 0 0 0 863.3152,138.1172" fill="#FEFFDD" style="stroke:#181818;stroke-width:0.5;"/><path d="M1022.8757,138.1172 L1022.8757,148.1172 L1032.8757,148.1172 L1022.8757,138.1172" fill="#FEFFDD" style="stroke:#181818;stroke-width:0.5;"/><text fill="#000000" font-family="sans-serif" font-size="13" lengthAdjust="spacing" textLength="148.5605" x="869.3152" y="155.1841">Object, Integer, String,</text><text fill="#000000" font-family="sans-serif" font-size="13" lengthAdjust="spacing" textLength="140.2515" x="869.3152" y="170.3169">Nil, True, False, Block</text><rect fill="#F1F1F1" height="33.9688" rx="12.5" ry="12.5" style="stroke:#181818;stroke-width:0.5;" width="162.8633" x="680.4519" y="141.2656"/><text fill="#000000" font-family="sans-serif" font-size="12" lengthAdjust="spacing" textLength="142.8633" x="690.4519" y="162.4043">Register built-in classes</text><rect fill="#F1F1F1" height="33.9688" rx="12.5" ry="12.5" style="stroke:#181818;stroke-width:0.5;" width="175.7188" x="674.0242" y="198.3828"/><text fill="#000000" font-family="sans-serif" font-size="12" lengthAdjust="spacing" textLength="155.7188" x="684.0242" y="219.5215">Load user-defined classes</text><rect fill="#F1F1F1" height="33.9688" rx="12.5" ry="12.5" style="stroke:#181818;stroke-width:0.5;" width="90.3652" x="716.7009" y="300.7539"/><text fill="#000000" font-family="sans-serif" font-size="12" lengthAdjust="spacing" textLength="70.3652" x="726.7009" y="321.8926">Throw error</text><ellipse cx="761.8835" cy="374.2383" fill="none" rx="11" ry="11" style="stroke:#222222;stroke-width:1;"/><ellipse cx="761.8835" cy="374.2383" fill="#222222" rx="6" ry="6" style="stroke:#222222;stroke-width:1;"/><polygon fill="#F1F1F1" points="710.0525,252.3516,813.7146,252.3516,825.7146,264.3516,813.7146,276.3516,710.0525,276.3516,698.0525,264.3516,710.0525,252.3516" style="stroke:#181818;stroke-width:0.5;"/><text fill="#000000" font-family="sans-serif" font-size="11" lengthAdjust="spacing" textLength="19.0083" x="765.8835" y="286.562">yes</text><text fill="#000000" font-family="sans-serif" font-size="11" lengthAdjust="spacing" textLength="103.6621" x="710.0525" y="268.1597">redefining built-in?</text><rect fill="#F1F1F1" height="33.9688" rx="12.5" ry="12.5" style="stroke:#181818;stroke-width:0.5;" width="178.4375" x="672.6648" y="427.2383"/><text fill="#000000" font-family="sans-serif" font-size="12" lengthAdjust="spacing" textLength="158.4375" x="682.6648" y="448.377">Resolve parent references</text><rect fill="#F1F1F1" height="33.9688" rx="12.5" ry="12.5" style="stroke:#181818;stroke-width:0.5;" width="150.5059" x="686.6306" y="529.6094"/><text fill="#000000" font-family="sans-serif" font-size="12" lengthAdjust="spacing" textLength="130.5059" x="696.6306" y="550.748">Throw ClassNotFound</text><ellipse cx="761.8835" cy="603.0938" fill="none" rx="11" ry="11" style="stroke:#222222;stroke-width:1;"/><ellipse cx="761.8835" cy="603.0938" fill="#222222" rx="6" ry="6" style="stroke:#222222;stroke-width:1;"/><polygon fill="#F1F1F1" points="702.5437,481.207,821.2234,481.207,833.2234,493.207,821.2234,505.207,702.5437,505.207,690.5437,493.207,702.5437,481.207" style="stroke:#181818;stroke-width:0.5;"/><text fill="#000000" font-family="sans-serif" font-size="11" lengthAdjust="spacing" textLength="19.0083" x="765.8835" y="515.4175">yes</text><text fill="#000000" font-family="sans-serif" font-size="11" lengthAdjust="spacing" textLength="118.6797" x="702.5437" y="497.0151">parent class missing?</text><rect fill="#F1F1F1" height="33.9688" rx="12.5" ry="12.5" style="stroke:#181818;stroke-width:0.5;" width="192.0781" x="665.8445" y="656.0938"/><text fill="#000000" font-family="sans-serif" font-size="12" lengthAdjust="spacing" textLength="172.0781" x="675.8445" y="677.2324">Load methods for each class</text><rect fill="none" height="300.9448" style="stroke:#000000;stroke-width:1.5;" width="1483.615" x="11" y="700.0625"/><path d="M172.5869,700.0625 L172.5869,709.3594 L162.5869,719.3594 L11,719.3594" fill="none" style="stroke:#000000;stroke-width:1.5;"/><text fill="#000000" font-family="sans-serif" font-size="14" lengthAdjust="spacing" textLength="151.5869" x="14" y="714.0576">ClassDef.instantiate()</text><rect fill="#F1F1F1" height="33.9688" rx="12.5" ry="12.5" style="stroke:#181818;stroke-width:0.5;" width="185.3633" x="669.2019" y="736.3594"/><text fill="#000000" font-family="sans-serif" font-size="12" lengthAdjust="spacing" textLength="165.3633" x="679.2019" y="757.498">Receive instantiate request</text><polygon fill="#F1F1F1" points="40.4731,790.3281,126.5503,790.3281,138.5503,802.3281,126.5503,814.3281,40.4731,814.3281,28.4731,802.3281,40.4731,790.3281" style="stroke:#181818;stroke-width:0.5;"/><text fill="#000000" font-family="sans-serif" font-size="11" lengthAdjust="spacing" textLength="19.0083" x="87.5117" y="824.5386">yes</text><text fill="#000000" font-family="sans-serif" font-size="11" lengthAdjust="spacing" textLength="86.0771" x="40.4731" y="806.1362">Block subclass?</text><rect fill="#F1F1F1" height="33.9688" rx="12.5" ry="12.5" style="stroke:#181818;stroke-width:0.5;" width="125.0234" x="21" y="846.0386"/><text fill="#000000" font-family="sans-serif" font-size="12" lengthAdjust="spacing" textLength="105.0234" x="31" y="867.1772">Create new Block</text><polygon fill="#F1F1F1" points="178.0234,790.3281,273.9189,790.3281,285.9189,802.3281,273.9189,814.3281,178.0234,814.3281,166.0234,802.3281,178.0234,790.3281" style="stroke:#181818;stroke-width:0.5;"/><text fill="#000000" font-family="sans-serif" font-size="11" lengthAdjust="spacing" textLength="19.0083" x="229.9712" y="824.5386">yes</text><text fill="#000000" font-family="sans-serif" font-size="11" lengthAdjust="spacing" textLength="95.8955" x="178.0234" y="806.1362">Integer subclass?</text><rect fill="#F1F1F1" height="33.9688" rx="12.5" ry="12.5" style="stroke:#181818;stroke-width:0.5;" width="132.3477" x="159.7974" y="846.0386"/><text fill="#000000" font-family="sans-serif" font-size="12" lengthAdjust="spacing" textLength="112.3477" x="169.7974" y="867.1772">Create IntegerB(0)</text><polygon fill="#F1F1F1" points="324.145,790.3281,413.2998,790.3281,425.2998,802.3281,413.2998,814.3281,324.145,814.3281,312.145,802.3281,324.145,790.3281" style="stroke:#181818;stroke-width:0.5;"/><text fill="#000000" font-family="sans-serif" font-size="11" lengthAdjust="spacing" textLength="19.0083" x="372.7224" y="824.5386">yes</text><text fill="#000000" font-family="sans-serif" font-size="11" lengthAdjust="spacing" textLength="89.1548" x="324.145" y="806.1362">String subclass?</text><rect fill="#F1F1F1" height="33.9688" rx="12.5" ry="12.5" style="stroke:#181818;stroke-width:0.5;" width="128.3984" x="304.5232" y="846.0386"/><text fill="#000000" font-family="sans-serif" font-size="12" lengthAdjust="spacing" textLength="108.3984" x="314.5232" y="867.1772">Create StringB("")</text><polygon fill="#F1F1F1" points="865.4546,790.3281,940.4727,790.3281,952.4727,802.3281,940.4727,814.3281,865.4546,814.3281,853.4546,802.3281,865.4546,790.3281" style="stroke:#181818;stroke-width:0.5;"/><text fill="#000000" font-family="sans-serif" font-size="11" lengthAdjust="spacing" textLength="19.0083" x="906.9636" y="824.5386">yes</text><text fill="#000000" font-family="sans-serif" font-size="11" lengthAdjust="spacing" textLength="75.0181" x="865.4546" y="806.1362">built-in class?</text><text fill="#000000" font-family="sans-serif" font-size="11" lengthAdjust="spacing" textLength="54.7959" x="952.4727" y="799.7339">user class</text><polygon fill="#F1F1F1" points="489.311,871.0386,528.8799,871.0386,540.8799,883.0386,528.8799,895.0386,489.311,895.0386,477.311,883.0386,489.311,871.0386" style="stroke:#181818;stroke-width:0.5;"/><text fill="#000000" font-family="sans-serif" font-size="11" lengthAdjust="spacing" textLength="39.5688" x="489.311" y="886.8467">Integer</text><rect fill="#F1F1F1" height="33.9688" rx="12.5" ry="12.5" style="stroke:#181818;stroke-width:0.5;" width="132.3477" x="442.9216" y="915.0386"/><text fill="#000000" font-family="sans-serif" font-size="12" lengthAdjust="spacing" textLength="112.3477" x="452.9216" y="936.1772">Create IntegerB(0)</text><polygon fill="#F1F1F1" points="633.0544,871.0386,665.8826,871.0386,677.8826,883.0386,665.8826,895.0386,633.0544,895.0386,621.0544,883.0386,633.0544,871.0386" style="stroke:#181818;stroke-width:0.5;"/><text fill="#000000" font-family="sans-serif" font-size="11" lengthAdjust="spacing" textLength="32.8281" x="633.0544" y="886.8467">String</text><rect fill="#F1F1F1" height="33.9688" rx="12.5" ry="12.5" style="stroke:#181818;stroke-width:0.5;" width="128.3984" x="585.2693" y="915.0386"/><text fill="#000000" font-family="sans-serif" font-size="12" lengthAdjust="spacing" textLength="108.3984" x="595.2693" y="936.1772">Create StringB("")</text><polygon fill="#F1F1F1" points="782.24,871.0386,806.24,871.0386,818.24,883.0386,806.24,895.0386,782.24,895.0386,770.24,883.0386,782.24,871.0386" style="stroke:#181818;stroke-width:0.5;"/><text fill="#000000" font-family="sans-serif" font-size="11" lengthAdjust="spacing" textLength="14.3408" x="787.0696" y="886.8467">Nil</text><rect fill="#F1F1F1" height="33.9688" rx="12.5" ry="12.5" style="stroke:#181818;stroke-width:0.5;" width="121.1445" x="733.6677" y="915.0386"/><text fill="#000000" font-family="sans-serif" font-size="12" lengthAdjust="spacing" textLength="101.1445" x="743.6677" y="936.1772">Return NilB.get()</text><polygon fill="#F1F1F1" points="928.6978,871.0386,953.6787,871.0386,965.6787,883.0386,953.6787,895.0386,928.6978,895.0386,916.6978,883.0386,928.6978,871.0386" style="stroke:#181818;stroke-width:0.5;"/><text fill="#000000" font-family="sans-serif" font-size="11" lengthAdjust="spacing" textLength="24.981" x="928.6978" y="886.8467">True</text><rect fill="#F1F1F1" height="33.9688" rx="12.5" ry="12.5" style="stroke:#181818;stroke-width:0.5;" width="132.752" x="874.8123" y="915.0386"/><text fill="#000000" font-family="sans-serif" font-size="12" lengthAdjust="spacing" textLength="112.752" x="884.8123" y="936.1772">Return TrueB.get()</text><polygon fill="#F1F1F1" points="1081.6152,871.0386,1110.2378,871.0386,1122.2378,883.0386,1110.2378,895.0386,1081.6152,895.0386,1069.6152,883.0386,1081.6152,871.0386" style="stroke:#181818;stroke-width:0.5;"/><text fill="#000000" font-family="sans-serif" font-size="11" lengthAdjust="spacing" textLength="28.6226" x="1081.6152" y="886.8467">False</text><rect fill="#F1F1F1" height="33.9688" rx="12.5" ry="12.5" style="stroke:#181818;stroke-width:0.5;" width="136.7246" x="1027.5642" y="915.0386"/><text fill="#000000" font-family="sans-serif" font-size="12" lengthAdjust="spacing" textLength="116.7246" x="1037.5642" y="936.1772">Return FalseB.get()</text><polygon fill="#F1F1F1" points="1228.772,871.0386,1258.5225,871.0386,1270.5225,883.0386,1258.5225,895.0386,1228.772,895.0386,1216.772,883.0386,1228.772,871.0386" style="stroke:#181818;stroke-width:0.5;"/><text fill="#000000" font-family="sans-serif" font-size="11" lengthAdjust="spacing" textLength="29.7505" x="1228.772" y="886.8467">Block</text><rect fill="#F1F1F1" height="33.9688" rx="12.5" ry="12.5" style="stroke:#181818;stroke-width:0.5;" width="138.7168" x="1174.2888" y="915.0386"/><text fill="#000000" font-family="sans-serif" font-size="12" lengthAdjust="spacing" textLength="118.7168" x="1184.2888" y="936.1772">Create empty Block</text><rect fill="#F1F1F1" height="33.9688" rx="12.5" ry="12.5" style="stroke:#181818;stroke-width:0.5;" width="143.6094" x="1341.0056" y="914.6362"/><text fill="#000000" font-family="sans-serif" font-size="12" lengthAdjust="spacing" textLength="123.6094" x="1351.0056" y="935.7749">Create new Instance</text><ellipse cx="761.8835" cy="1032.0073" fill="none" rx="11" ry="11" style="stroke:#222222;stroke-width:1;"/><ellipse cx="761.8835" cy="1032.0073" fill="#222222" rx="6" ry="6" style="stroke:#222222;stroke-width:1;"/><line style="stroke:#181818;stroke-width:1;" x1="761.8835" x2="761.8835" y1="67.2969" y2="87.2969"/><polygon fill="#181818" points="757.8835,77.2969,761.8835,87.2969,765.8835,77.2969,761.8835,81.2969" style="stroke:#181818;stroke-width:1;"/><line style="stroke:#181818;stroke-width:1;" x1="761.8835" x2="761.8835" y1="121.2656" y2="141.2656"/><polygon fill="#181818" points="757.8835,131.2656,761.8835,141.2656,765.8835,131.2656,761.8835,135.2656" style="stroke:#181818;stroke-width:1;"/><line style="stroke:#181818;stroke-width:1;" x1="761.8835" x2="761.8835" y1="175.2344" y2="198.3828"/><polygon fill="#181818" points="757.8835,188.3828,761.8835,198.3828,765.8835,188.3828,761.8835,192.3828" style="stroke:#181818;stroke-width:1;"/><line style="stroke:#181818;stroke-width:1;" x1="761.8835" x2="761.8835" y1="334.7227" y2="363.2383"/><polygon fill="#181818" points="757.8835,353.2383,761.8835,363.2383,765.8835,353.2383,761.8835,357.2383" style="stroke:#181818;stroke-width:1;"/><line style="stroke:#181818;stroke-width:1;" x1="761.8835" x2="761.8835" y1="276.3516" y2="300.7539"/><polygon fill="#181818" points="757.8835,290.7539,761.8835,300.7539,765.8835,290.7539,761.8835,294.7539" style="stroke:#181818;stroke-width:1;"/><line style="stroke:#181818;stroke-width:1;" x1="825.7146" x2="837.7146" y1="264.3516" y2="264.3516"/><polygon fill="#181818" points="833.7146,333.2383,837.7146,343.2383,841.7146,333.2383,837.7146,337.2383" style="stroke:#181818;stroke-width:1;"/><line style="stroke:#181818;stroke-width:1;" x1="837.7146" x2="837.7146" y1="264.3516" y2="407.2383"/><line style="stroke:#181818;stroke-width:1;" x1="837.7146" x2="761.8835" y1="407.2383" y2="407.2383"/><line style="stroke:#181818;stroke-width:1;" x1="761.8835" x2="761.8835" y1="407.2383" y2="427.2383"/><polygon fill="#181818" points="757.8835,417.2383,761.8835,427.2383,765.8835,417.2383,761.8835,421.2383" style="stroke:#181818;stroke-width:1;"/><line style="stroke:#181818;stroke-width:1;" x1="761.8835" x2="761.8835" y1="232.3516" y2="252.3516"/><polygon fill="#181818" points="757.8835,242.3516,761.8835,252.3516,765.8835,242.3516,761.8835,246.3516" style="stroke:#181818;stroke-width:1;"/><line style="stroke:#181818;stroke-width:1;" x1="761.8835" x2="761.8835" y1="563.5781" y2="592.0938"/><polygon fill="#181818" points="757.8835,582.0938,761.8835,592.0938,765.8835,582.0938,761.8835,586.0938" style="stroke:#181818;stroke-width:1;"/><line style="stroke:#181818;stroke-width:1;" x1="761.8835" x2="761.8835" y1="505.207" y2="529.6094"/><polygon fill="#181818" points="757.8835,519.6094,761.8835,529.6094,765.8835,519.6094,761.8835,523.6094" style="stroke:#181818;stroke-width:1;"/><line style="stroke:#181818;stroke-width:1;" x1="833.2234" x2="847.1365" y1="493.207" y2="493.207"/><polygon fill="#181818" points="843.1365,562.0938,847.1365,572.0938,851.1365,562.0938,847.1365,566.0938" style="stroke:#181818;stroke-width:1;"/><line style="stroke:#181818;stroke-width:1;" x1="847.1365" x2="847.1365" y1="493.207" y2="636.0938"/><line style="stroke:#181818;stroke-width:1;" x1="847.1365" x2="761.8835" y1="636.0938" y2="636.0938"/><line style="stroke:#181818;stroke-width:1;" x1="761.8835" x2="761.8835" y1="636.0938" y2="656.0938"/><polygon fill="#181818" points="757.8835,646.0938,761.8835,656.0938,765.8835,646.0938,761.8835,650.0938" style="stroke:#181818;stroke-width:1;"/><line style="stroke:#181818;stroke-width:1;" x1="761.8835" x2="761.8835" y1="461.207" y2="481.207"/><polygon fill="#181818" points="757.8835,471.207,761.8835,481.207,765.8835,471.207,761.8835,475.207" style="stroke:#181818;stroke-width:1;"/><line style="stroke:#181818;stroke-width:1;" x1="509.0955" x2="509.0955" y1="895.0386" y2="915.0386"/><polygon fill="#181818" points="505.0955,905.0386,509.0955,915.0386,513.0955,905.0386,509.0955,909.0386" style="stroke:#181818;stroke-width:1;"/><line style="stroke:#181818;stroke-width:1;" x1="509.0955" x2="509.0955" y1="949.0073" y2="969.0073"/><polygon fill="#181818" points="505.0955,959.0073,509.0955,969.0073,513.0955,959.0073,509.0955,963.0073" style="stroke:#181818;stroke-width:1;"/><line style="stroke:#181818;stroke-width:1;" x1="649.4685" x2="649.4685" y1="895.0386" y2="915.0386"/><polygon fill="#181818" points="645.4685,905.0386,649.4685,915.0386,653.4685,905.0386,649.4685,909.0386" style="stroke:#181818;stroke-width:1;"/><line style="stroke:#181818;stroke-width:1;" x1="649.4685" x2="649.4685" y1="949.0073" y2="969.0073"/><polygon fill="#181818" points="645.4685,959.0073,649.4685,969.0073,653.4685,959.0073,649.4685,963.0073" style="stroke:#181818;stroke-width:1;"/><line style="stroke:#181818;stroke-width:1;" x1="794.24" x2="794.24" y1="895.0386" y2="915.0386"/><polygon fill="#181818" points="790.24,905.0386,794.24,915.0386,798.24,905.0386,794.24,909.0386" style="stroke:#181818;stroke-width:1;"/><line style="stroke:#181818;stroke-width:1;" x1="794.24" x2="794.24" y1="949.0073" y2="969.0073"/><polygon fill="#181818" points="790.24,959.0073,794.24,969.0073,798.24,959.0073,794.24,963.0073" style="stroke:#181818;stroke-width:1;"/><line style="stroke:#181818;stroke-width:1;" x1="941.1882" x2="941.1882" y1="895.0386" y2="915.0386"/><polygon fill="#181818" points="937.1882,905.0386,941.1882,915.0386,945.1882,905.0386,941.1882,909.0386" style="stroke:#181818;stroke-width:1;"/><line style="stroke:#181818;stroke-width:1;" x1="941.1882" x2="941.1882" y1="949.0073" y2="969.0073"/><polygon fill="#181818" points="937.1882,959.0073,941.1882,969.0073,945.1882,959.0073,941.1882,963.0073" style="stroke:#181818;stroke-width:1;"/><line style="stroke:#181818;stroke-width:1;" x1="1095.9265" x2="1095.9265" y1="895.0386" y2="915.0386"/><polygon fill="#181818" points="1091.9265,905.0386,1095.9265,915.0386,1099.9265,905.0386,1095.9265,909.0386" style="stroke:#181818;stroke-width:1;"/><line style="stroke:#181818;stroke-width:1;" x1="1095.9265" x2="1095.9265" y1="949.0073" y2="969.0073"/><polygon fill="#181818" points="1091.9265,959.0073,1095.9265,969.0073,1099.9265,959.0073,1095.9265,963.0073" style="stroke:#181818;stroke-width:1;"/><line style="stroke:#181818;stroke-width:1;" x1="1243.6472" x2="1243.6472" y1="895.0386" y2="915.0386"/><polygon fill="#181818" points="1239.6472,905.0386,1243.6472,915.0386,1247.6472,905.0386,1243.6472,909.0386" style="stroke:#181818;stroke-width:1;"/><line style="stroke:#181818;stroke-width:1;" x1="1243.6472" x2="1243.6472" y1="949.0073" y2="969.0073"/><polygon fill="#181818" points="1239.6472,959.0073,1243.6472,969.0073,1247.6472,959.0073,1243.6472,963.0073" style="stroke:#181818;stroke-width:1;"/><line style="stroke:#181818;stroke-width:1;" x1="540.8799" x2="621.0544" y1="883.0386" y2="883.0386"/><polygon fill="#181818" points="611.0544,879.0386,621.0544,883.0386,611.0544,887.0386,615.0544,883.0386" style="stroke:#181818;stroke-width:1;"/><line style="stroke:#181818;stroke-width:1;" x1="677.8826" x2="770.24" y1="883.0386" y2="883.0386"/><polygon fill="#181818" points="760.24,879.0386,770.24,883.0386,760.24,887.0386,764.24,883.0386" style="stroke:#181818;stroke-width:1;"/><line style="stroke:#181818;stroke-width:1;" x1="818.24" x2="916.6978" y1="883.0386" y2="883.0386"/><polygon fill="#181818" points="906.6978,879.0386,916.6978,883.0386,906.6978,887.0386,910.6978,883.0386" style="stroke:#181818;stroke-width:1;"/><line style="stroke:#181818;stroke-width:1;" x1="965.6787" x2="1069.6152" y1="883.0386" y2="883.0386"/><polygon fill="#181818" points="1059.6152,879.0386,1069.6152,883.0386,1059.6152,887.0386,1063.6152,883.0386" style="stroke:#181818;stroke-width:1;"/><line style="stroke:#181818;stroke-width:1;" x1="1122.2378" x2="1216.772" y1="883.0386" y2="883.0386"/><polygon fill="#181818" points="1206.772,879.0386,1216.772,883.0386,1206.772,887.0386,1210.772,883.0386" style="stroke:#181818;stroke-width:1;"/><line style="stroke:#181818;stroke-width:1;" x1="902.9636" x2="902.9636" y1="814.3281" y2="846.0386"/><line style="stroke:#181818;stroke-width:1;" x1="902.9636" x2="509.0955" y1="846.0386" y2="846.0386"/><line style="stroke:#181818;stroke-width:1;" x1="509.0955" x2="509.0955" y1="846.0386" y2="871.0386"/><polygon fill="#181818" points="505.0955,861.0386,509.0955,871.0386,513.0955,861.0386,509.0955,865.0386" style="stroke:#181818;stroke-width:1;"/><line style="stroke:#181818;stroke-width:1;" x1="1270.5225" x2="1327.0056" y1="883.0386" y2="883.0386"/><line style="stroke:#181818;stroke-width:1;" x1="1327.0056" x2="1327.0056" y1="883.0386" y2="969.0073"/><polygon fill="#181818" points="1323.0056,959.0073,1327.0056,969.0073,1331.0056,959.0073,1327.0056,963.0073" style="stroke:#181818;stroke-width:1;"/><line style="stroke:#181818;stroke-width:1;" x1="509.0955" x2="1327.0056" y1="969.0073" y2="969.0073"/><line style="stroke:#181818;stroke-width:1;" x1="83.5117" x2="83.5117" y1="814.3281" y2="846.0386"/><polygon fill="#181818" points="79.5117,836.0386,83.5117,846.0386,87.5117,836.0386,83.5117,840.0386" style="stroke:#181818;stroke-width:1;"/><line style="stroke:#181818;stroke-width:1;" x1="83.5117" x2="83.5117" y1="880.0073" y2="989.0073"/><polygon fill="#181818" points="79.5117,979.0073,83.5117,989.0073,87.5117,979.0073,83.5117,983.0073" style="stroke:#181818;stroke-width:1;"/><line style="stroke:#181818;stroke-width:1;" x1="225.9712" x2="225.9712" y1="814.3281" y2="846.0386"/><polygon fill="#181818" points="221.9712,836.0386,225.9712,846.0386,229.9712,836.0386,225.9712,840.0386" style="stroke:#181818;stroke-width:1;"/><line style="stroke:#181818;stroke-width:1;" x1="225.9712" x2="225.9712" y1="880.0073" y2="989.0073"/><polygon fill="#181818" points="221.9712,979.0073,225.9712,989.0073,229.9712,979.0073,225.9712,983.0073" style="stroke:#181818;stroke-width:1;"/><line style="stroke:#181818;stroke-width:1;" x1="368.7224" x2="368.7224" y1="814.3281" y2="846.0386"/><polygon fill="#181818" points="364.7224,836.0386,368.7224,846.0386,372.7224,836.0386,368.7224,840.0386" style="stroke:#181818;stroke-width:1;"/><line style="stroke:#181818;stroke-width:1;" x1="368.7224" x2="368.7224" y1="880.0073" y2="989.0073"/><polygon fill="#181818" points="364.7224,979.0073,368.7224,989.0073,372.7224,979.0073,368.7224,983.0073" style="stroke:#181818;stroke-width:1;"/><line style="stroke:#181818;stroke-width:1;" x1="902.9636" x2="902.9636" y1="969.0073" y2="989.0073"/><polygon fill="#181818" points="898.9636,979.0073,902.9636,989.0073,906.9636,979.0073,902.9636,983.0073" style="stroke:#181818;stroke-width:1;"/><line style="stroke:#181818;stroke-width:1;" x1="138.5503" x2="166.0234" y1="802.3281" y2="802.3281"/><polygon fill="#181818" points="156.0234,798.3281,166.0234,802.3281,156.0234,806.3281,160.0234,802.3281" style="stroke:#181818;stroke-width:1;"/><line style="stroke:#181818;stroke-width:1;" x1="285.9189" x2="312.145" y1="802.3281" y2="802.3281"/><polygon fill="#181818" points="302.145,798.3281,312.145,802.3281,302.145,806.3281,306.145,802.3281" style="stroke:#181818;stroke-width:1;"/><line style="stroke:#181818;stroke-width:1;" x1="425.2998" x2="853.4546" y1="802.3281" y2="802.3281"/><polygon fill="#181818" points="843.4546,798.3281,853.4546,802.3281,843.4546,806.3281,847.4546,802.3281" style="stroke:#181818;stroke-width:1;"/><line style="stroke:#181818;stroke-width:1;" x1="761.8835" x2="761.8835" y1="770.3281" y2="775.3281"/><line style="stroke:#181818;stroke-width:1;" x1="761.8835" x2="83.5117" y1="775.3281" y2="775.3281"/><line style="stroke:#181818;stroke-width:1;" x1="83.5117" x2="83.5117" y1="775.3281" y2="790.3281"/><polygon fill="#181818" points="79.5117,780.3281,83.5117,790.3281,87.5117,780.3281,83.5117,784.3281" style="stroke:#181818;stroke-width:1;"/><line style="stroke:#181818;stroke-width:1;" x1="952.4727" x2="1412.8103" y1="802.3281" y2="802.3281"/><line style="stroke:#181818;stroke-width:1;" x1="1412.8103" x2="1412.8103" y1="802.3281" y2="914.6362"/><polygon fill="#181818" points="1408.8103,904.6362,1412.8103,914.6362,1416.8103,904.6362,1412.8103,908.6362" style="stroke:#181818;stroke-width:1;"/><line style="stroke:#181818;stroke-width:1;" x1="1412.8103" x2="1412.8103" y1="948.605" y2="989.0073"/><polygon fill="#181818" points="1408.8103,979.0073,1412.8103,989.0073,1416.8103,979.0073,1412.8103,983.0073" style="stroke:#181818;stroke-width:1;"/><line style="stroke:#181818;stroke-width:1;" x1="83.5117" x2="1412.8103" y1="989.0073" y2="989.0073"/><line style="stroke:#181818;stroke-width:1;" x1="761.8835" x2="761.8835" y1="690.0625" y2="736.3594"/><polygon fill="#181818" points="757.8835,726.3594,761.8835,736.3594,765.8835,726.3594,761.8835,730.3594" style="stroke:#181818;stroke-width:1;"/><line style="stroke:#181818;stroke-width:1;" x1="761.8835" x2="761.8835" y1="989.0073" y2="1021.0073"/><polygon fill="#181818" points="757.8835,1011.0073,761.8835,1021.0073,765.8835,1011.0073,761.8835,1015.0073" style="stroke:#181818;stroke-width:1;"/><!--SRC=[ZLJRQkCm47ttLmnvii4j-vmyBAGbKEWsaEqFEFQnhTQMigFnXhBqtpkIqytDXOB1baRdCXTPZ7IWkwxmdXvTKHdRK64hUh1U2Ykc4EDiakY29PbtUcB5hhzV_qehLmuzh6IB99blq1WlODeEffCROwaCbF2Bn3e1iMbQIOZMsnUKaYkze07dz5jO9NCDFPakfsSUaDEgwBo-bfqhNnEecy2XAi4W3HvyKw4s5jLHnTIKCk9sIE7Jni-Cf8Mbz0q-Kv7vSyjkJs1slD2r5xSB2gQEINZN_GNj2jQyY553FyfF-iDsbAJUUAz2N_37UZuvMRd1LbSwCOqUqhhAK-sOK9JjoAkrL1aneUeqYpJtg6_D_suWpMRqBoXjKCAesvEOMlupm4jGr2UOZZKaFsmZ_QLTfRbZ1AJ5Vgntm4BB7y27Bdq3VZYvJ7zafmHZTx-17mykqzdi37y-JTVm4vDZBEv-QUlIs2JcmieHemDw3jX01hPXS9Ut3IIzE1zcUH8G0fE8EFUJa1YPnCIcJIQ2VYTlnwOg9CxV2AKqtAEnhjUJCDx-4h4N4VKU_W5kzm40]--></g></svg>