<svg xmlns="http://www.w3.org/2000/svg" xmlns:xlink="http://www.w3.org/1999/xlink" contentStyleType="text/css" data-diagram-type="ACTIVITY" height="650px" preserveAspectRatio="none" style="width:2054px;height:650px;background:#FFFFFF;" version="1.1" viewBox="0 0 2054 650" width="2054px" zoomAndPan="magnify"><title>Expression Evaluation</title><defs/><g><g class="title" data-source-line="1"><text fill="#000000" font-family="sans-serif" font-size="14" font-weight="bold" lengthAdjust="spacing" textLength="174.3643" x="938.5387" y="32.9951">Expression Evaluation</text></g><ellipse cx="1029.2129" cy="57.2969" fill="#222222" rx="10" ry="10" style="stroke:#222222;stroke-width:1;"/><rect fill="#F1F1F1" height="33.9688" rx="12.5" ry="12.5" style="stroke:#181818;stroke-width:0.5;" width="167.3457" x="945.54" y="87.2969"/><text fill="#000000" font-family="sans-serif" font-size="12" lengthAdjust="spacing" textLength="147.3457" x="955.54" y="108.4355">evalExpr(expr, self, env)</text><rect fill="#F1F1F1" height="33.9688" rx="12.5" ry="12.5" style="stroke:#181818;stroke-width:0.5;" width="154.25" x="952.0879" y="141.2656"/><text fill="#000000" font-family="sans-serif" font-size="12" lengthAdjust="spacing" textLength="134.25" x="962.0879" y="162.4043">Get first element child</text><polygon fill="#F1F1F1" points="498.9224,195.2344,601.7358,195.2344,613.7358,207.2344,601.7358,219.2344,498.9224,219.2344,486.9224,207.2344,498.9224,195.2344" style="stroke:#181818;stroke-width:0.5;"/><text fill="#000000" font-family="sans-serif" font-size="11" lengthAdjust="spacing" textLength="19.0083" x="554.3291" y="229.4448">yes</text><text fill="#000000" font-family="sans-serif" font-size="11" lengthAdjust="spacing" textLength="102.8135" x="498.9224" y="211.0425">node type is literal</text><rect fill="#F1F1F1" height="33.9688" rx="12.5" ry="12.5" style="stroke:#181818;stroke-width:0.5;" width="137.9727" x="481.3428" y="250.9448"/><text fill="#000000" font-family="sans-serif" font-size="12" lengthAdjust="spacing" textLength="117.9727" x="491.3428" y="272.0835">Get class and value</text><polygon fill="#F1F1F1" points="32,344.9136,114.6558,344.9136,126.6558,356.9136,114.6558,368.9136,32,368.9136,20,356.9136,32,344.9136" style="stroke:#181818;stroke-width:0.5;"/><text fill="#000000" font-family="sans-serif" font-size="11" lengthAdjust="spacing" textLength="19.0083" x="77.3279" y="379.124">yes</text><text fill="#000000" font-family="sans-serif" font-size="11" lengthAdjust="spacing" textLength="82.6558" x="32" y="360.7217">class is Integer</text><rect fill="#F1F1F1" height="33.9688" rx="12.5" ry="12.5" style="stroke:#181818;stroke-width:0.5;" width="115.3496" x="15.6531" y="401.7183"/><text fill="#000000" font-family="sans-serif" font-size="12" lengthAdjust="spacing" textLength="95.3496" x="25.6531" y="422.8569">Create IntegerB</text><polygon fill="#F1F1F1" points="163.0027,344.9136,238.9177,344.9136,250.9177,356.9136,238.9177,368.9136,163.0027,368.9136,151.0027,356.9136,163.0027,344.9136" style="stroke:#181818;stroke-width:0.5;"/><text fill="#000000" font-family="sans-serif" font-size="11" lengthAdjust="spacing" textLength="19.0083" x="204.9602" y="379.124">yes</text><text fill="#000000" font-family="sans-serif" font-size="11" lengthAdjust="spacing" textLength="75.915" x="163.0027" y="360.7217">class is String</text><path d="M274.9583,406.1362 L274.9583,414.7026 L254.9583,418.7026 L274.9583,422.7026 L274.9583,431.269 A0,0 0 0 0 274.9583,431.269 L440.3992,431.269 A0,0 0 0 0 440.3992,431.269 L440.3992,416.1362 L430.3992,406.1362 L274.9583,406.1362 A0,0 0 0 0 274.9583,406.1362" fill="#FEFFDD" style="stroke:#181818;stroke-width:0.5;"/><path d="M430.3992,406.1362 L430.3992,416.1362 L440.3992,416.1362 L430.3992,406.1362" fill="#FEFFDD" style="stroke:#181818;stroke-width:0.5;"/><text fill="#000000" font-family="sans-serif" font-size="13" lengthAdjust="spacing" textLength="144.4409" x="280.9583" y="423.2031">With unescaped value</text><rect fill="#F1F1F1" height="33.9688" rx="12.5" ry="12.5" style="stroke:#181818;stroke-width:0.5;" width="107.9961" x="146.9622" y="401.7183"/><text fill="#000000" font-family="sans-serif" font-size="12" lengthAdjust="spacing" textLength="87.9961" x="156.9622" y="422.8569">Create StringB</text><polygon fill="#F1F1F1" points="482.2576,344.9136,539.6853,344.9136,551.6853,356.9136,539.6853,368.9136,482.2576,368.9136,470.2576,356.9136,482.2576,344.9136" style="stroke:#181818;stroke-width:0.5;"/><text fill="#000000" font-family="sans-serif" font-size="11" lengthAdjust="spacing" textLength="19.0083" x="514.9714" y="379.124">yes</text><text fill="#000000" font-family="sans-serif" font-size="11" lengthAdjust="spacing" textLength="57.4277" x="482.2576" y="360.7217">class is Nil</text><rect fill="#F1F1F1" height="33.9688" rx="12.5" ry="12.5" style="stroke:#181818;stroke-width:0.5;" width="121.1445" x="450.3992" y="401.7183"/><text fill="#000000" font-family="sans-serif" font-size="12" lengthAdjust="spacing" textLength="101.1445" x="460.3992" y="422.8569">Return NilB.get()</text><polygon fill="#F1F1F1" points="623.8857,344.9136,691.9536,344.9136,703.9536,356.9136,691.9536,368.9136,623.8857,368.9136,611.8857,356.9136,623.8857,344.9136" style="stroke:#181818;stroke-width:0.5;"/><text fill="#000000" font-family="sans-serif" font-size="11" lengthAdjust="spacing" textLength="19.0083" x="661.9197" y="379.124">yes</text><text fill="#000000" font-family="sans-serif" font-size="11" lengthAdjust="spacing" textLength="68.0679" x="623.8857" y="360.7217">class is True</text><rect fill="#F1F1F1" height="33.9688" rx="12.5" ry="12.5" style="stroke:#181818;stroke-width:0.5;" width="132.752" x="591.5437" y="401.7183"/><text fill="#000000" font-family="sans-serif" font-size="12" lengthAdjust="spacing" textLength="112.752" x="601.5437" y="422.8569">Return TrueB.get()</text><polygon fill="#F1F1F1" points="766.8032,344.9136,838.5127,344.9136,850.5127,356.9136,838.5127,368.9136,766.8032,368.9136,754.8032,356.9136,766.8032,344.9136" style="stroke:#181818;stroke-width:0.5;"/><text fill="#000000" font-family="sans-serif" font-size="11" lengthAdjust="spacing" textLength="19.0083" x="806.658" y="379.124">yes</text><text fill="#000000" font-family="sans-serif" font-size="11" lengthAdjust="spacing" textLength="71.7095" x="766.8032" y="360.7217">class is False</text><text fill="#000000" font-family="sans-serif" font-size="11" lengthAdjust="spacing" textLength="27.3066" x="850.5127" y="354.3193">class</text><rect fill="#F1F1F1" height="33.9688" rx="12.5" ry="12.5" style="stroke:#181818;stroke-width:0.5;" width="136.7246" x="734.2957" y="401.7183"/><text fill="#000000" font-family="sans-serif" font-size="12" lengthAdjust="spacing" textLength="116.7246" x="744.2957" y="422.8569">Return FalseB.get()</text><rect fill="#F1F1F1" height="33.9688" rx="12.5" ry="12.5" style="stroke:#181818;stroke-width:0.5;" width="198.0254" x="887.8193" y="398.3159"/><text fill="#000000" font-family="sans-serif" font-size="12" lengthAdjust="spacing" textLength="178.0254" x="897.8193" y="419.4546">Get ClassDef from ClassTable</text><rect fill="#F1F1F1" height="33.9688" rx="12.5" ry="12.5" style="stroke:#181818;stroke-width:0.5;" width="139.5547" x="480.5518" y="543.5229"/><text fill="#000000" font-family="sans-serif" font-size="12" lengthAdjust="spacing" textLength="119.5547" x="490.5518" y="564.6616">Return literal object</text><polygon fill="#F1F1F1" points="1148.2441,195.2344,1237.3184,195.2344,1249.3184,207.2344,1237.3184,219.2344,1148.2441,219.2344,1136.2441,207.2344,1148.2441,195.2344" style="stroke:#181818;stroke-width:0.5;"/><text fill="#000000" font-family="sans-serif" font-size="11" lengthAdjust="spacing" textLength="19.0083" x="1196.7813" y="229.4448">yes</text><text fill="#000000" font-family="sans-serif" font-size="11" lengthAdjust="spacing" textLength="89.0742" x="1148.2441" y="211.0425">node type is var</text><rect fill="#F1F1F1" height="33.9688" rx="12.5" ry="12.5" style="stroke:#181818;stroke-width:0.5;" width="131.457" x="1127.0527" y="250.9448"/><text fill="#000000" font-family="sans-serif" font-size="12" lengthAdjust="spacing" textLength="111.457" x="1137.0527" y="272.0835">Get variable name</text><rect fill="#F1F1F1" height="33.9688" rx="12.5" ry="12.5" style="stroke:#181818;stroke-width:0.5;" width="173.873" x="1105.8447" y="319.9136"/><text fill="#000000" font-family="sans-serif" font-size="12" lengthAdjust="spacing" textLength="153.873" x="1115.8447" y="341.0522">Return env.lookup(name)</text><polygon fill="#F1F1F1" points="1311.7178,195.2344,1412.2056,195.2344,1424.2056,207.2344,1412.2056,219.2344,1311.7178,219.2344,1299.7178,207.2344,1311.7178,195.2344" style="stroke:#181818;stroke-width:0.5;"/><text fill="#000000" font-family="sans-serif" font-size="11" lengthAdjust="spacing" textLength="19.0083" x="1365.9617" y="229.4448">yes</text><text fill="#000000" font-family="sans-serif" font-size="11" lengthAdjust="spacing" textLength="100.4878" x="1311.7178" y="211.0425">node type is block</text><path d="M1444.4734,250.9448 L1444.4734,289.7769 L1424.4734,293.7769 L1444.4734,297.7769 L1444.4734,336.6089 A0,0 0 0 0 1444.4734,336.6089 L1604.7092,336.6089 A0,0 0 0 0 1604.7092,336.6089 L1604.7092,260.9448 L1594.7092,250.9448 L1444.4734,250.9448 A0,0 0 0 0 1444.4734,250.9448" fill="#FEFFDD" style="stroke:#181818;stroke-width:0.5;"/><path d="M1594.7092,250.9448 L1594.7092,260.9448 L1604.7092,260.9448 L1594.7092,250.9448" fill="#FEFFDD" style="stroke:#181818;stroke-width:0.5;"/><text fill="#000000" font-family="sans-serif" font-size="13" lengthAdjust="spacing" textLength="39.0254" x="1450.4734" y="268.0117">Store:</text><text fill="#000000" font-family="sans-serif" font-size="13" lengthAdjust="spacing" textLength="38.5366" x="1450.4734" y="283.1445">- arity</text><text fill="#000000" font-family="sans-serif" font-size="13" lengthAdjust="spacing" textLength="31.7827" x="1450.4734" y="298.2773">- self</text><text fill="#000000" font-family="sans-serif" font-size="13" lengthAdjust="spacing" textLength="139.2358" x="1450.4734" y="313.4102">- cloned environment</text><text fill="#000000" font-family="sans-serif" font-size="13" lengthAdjust="spacing" textLength="79.8916" x="1450.4734" y="328.543">- block node</text><rect fill="#F1F1F1" height="33.9688" rx="12.5" ry="12.5" style="stroke:#181818;stroke-width:0.5;" width="125.0234" x="1299.45" y="276.7925"/><text fill="#000000" font-family="sans-serif" font-size="12" lengthAdjust="spacing" textLength="105.0234" x="1309.45" y="297.9312">Create new Block</text><rect fill="#F1F1F1" height="33.9688" rx="12.5" ry="12.5" style="stroke:#181818;stroke-width:0.5;" width="137.6328" x="1293.1453" y="371.6089"/><text fill="#000000" font-family="sans-serif" font-size="12" lengthAdjust="spacing" textLength="117.6328" x="1303.1453" y="392.7476">Return Block object</text><polygon fill="#F1F1F1" points="1713.3372,195.2344,1811.0911,195.2344,1823.0911,207.2344,1811.0911,219.2344,1713.3372,219.2344,1701.3372,207.2344,1713.3372,195.2344" style="stroke:#181818;stroke-width:0.5;"/><text fill="#000000" font-family="sans-serif" font-size="11" lengthAdjust="spacing" textLength="19.0083" x="1766.2141" y="229.4448">yes</text><text fill="#000000" font-family="sans-serif" font-size="11" lengthAdjust="spacing" textLength="97.7539" x="1713.3372" y="211.0425">node type is send</text><text fill="#000000" font-family="sans-serif" font-size="11" lengthAdjust="spacing" textLength="49.9834" x="1823.0911" y="204.6401">unknown</text><rect fill="#F1F1F1" height="33.9688" rx="12.5" ry="12.5" style="stroke:#181818;stroke-width:0.5;" width="194.2988" x="1665.0647" y="250.9448"/><text fill="#000000" font-family="sans-serif" font-size="12" lengthAdjust="spacing" textLength="174.2988" x="1675.0647" y="272.0835">Evaluate receiver expression</text><rect fill="#F1F1F1" height="33.9688" rx="12.5" ry="12.5" style="stroke:#181818;stroke-width:0.5;" width="184.5898" x="1669.9192" y="319.9136"/><text fill="#000000" font-family="sans-serif" font-size="12" lengthAdjust="spacing" textLength="164.5898" x="1679.9192" y="341.0522">Collect arguments by order</text><rect fill="#F1F1F1" height="33.9688" rx="12.5" ry="12.5" style="stroke:#181818;stroke-width:0.5;" width="167.8789" x="1678.2747" y="388.8823"/><text fill="#000000" font-family="sans-serif" font-size="12" lengthAdjust="spacing" textLength="147.8789" x="1688.2747" y="410.021">Evaluate each argument</text><rect fill="#F1F1F1" height="33.9688" rx="12.5" ry="12.5" style="stroke:#181818;stroke-width:0.5;" width="295.0098" x="1614.7092" y="455.687"/><text fill="#000000" font-family="sans-serif" font-size="12" lengthAdjust="spacing" textLength="275.0098" x="1624.7092" y="476.8257">MessageDispatcher.send(recv, selector, args)</text><rect fill="#F1F1F1" height="33.9688" rx="12.5" ry="12.5" style="stroke:#181818;stroke-width:0.5;" width="98.5977" x="1712.9153" y="524.6558"/><text fill="#000000" font-family="sans-serif" font-size="12" lengthAdjust="spacing" textLength="78.5977" x="1722.9153" y="545.7944">Return result</text><rect fill="#F1F1F1" height="33.9688" rx="12.5" ry="12.5" style="stroke:#181818;stroke-width:0.5;" width="123.7227" x="1919.719" y="394.9136"/><text fill="#000000" font-family="sans-serif" font-size="12" lengthAdjust="spacing" textLength="103.7227" x="1929.719" y="416.0522">Throw ParseError</text><ellipse cx="1029.2129" cy="628.4917" fill="none" rx="11" ry="11" style="stroke:#222222;stroke-width:1;"/><ellipse cx="1029.2129" cy="628.4917" fill="#222222" rx="6" ry="6" style="stroke:#222222;stroke-width:1;"/><line style="stroke:#181818;stroke-width:1;" x1="1029.2129" x2="1029.2129" y1="67.2969" y2="87.2969"/><polygon fill="#181818" points="1025.2129,77.2969,1029.2129,87.2969,1033.2129,77.2969,1029.2129,81.2969" style="stroke:#181818;stroke-width:1;"/><line style="stroke:#181818;stroke-width:1;" x1="1029.2129" x2="1029.2129" y1="121.2656" y2="141.2656"/><polygon fill="#181818" points="1025.2129,131.2656,1029.2129,141.2656,1033.2129,131.2656,1029.2129,135.2656" style="stroke:#181818;stroke-width:1;"/><line style="stroke:#181818;stroke-width:1;" x1="73.3279" x2="73.3279" y1="368.9136" y2="401.7183"/><polygon fill="#181818" points="69.3279,391.7183,73.3279,401.7183,77.3279,391.7183,73.3279,395.7183" style="stroke:#181818;stroke-width:1;"/><line style="stroke:#181818;stroke-width:1;" x1="73.3279" x2="73.3279" y1="435.687" y2="508.5229"/><polygon fill="#181818" points="69.3279,498.5229,73.3279,508.5229,77.3279,498.5229,73.3279,502.5229" style="stroke:#181818;stroke-width:1;"/><line style="stroke:#181818;stroke-width:1;" x1="200.9602" x2="200.9602" y1="368.9136" y2="401.7183"/><polygon fill="#181818" points="196.9602,391.7183,200.9602,401.7183,204.9602,391.7183,200.9602,395.7183" style="stroke:#181818;stroke-width:1;"/><line style="stroke:#181818;stroke-width:1;" x1="200.9602" x2="200.9602" y1="435.687" y2="508.5229"/><polygon fill="#181818" points="196.9602,498.5229,200.9602,508.5229,204.9602,498.5229,200.9602,502.5229" style="stroke:#181818;stroke-width:1;"/><line style="stroke:#181818;stroke-width:1;" x1="510.9714" x2="510.9714" y1="368.9136" y2="401.7183"/><polygon fill="#181818" points="506.9714,391.7183,510.9714,401.7183,514.9714,391.7183,510.9714,395.7183" style="stroke:#181818;stroke-width:1;"/><line style="stroke:#181818;stroke-width:1;" x1="510.9714" x2="510.9714" y1="435.687" y2="508.5229"/><polygon fill="#181818" points="506.9714,498.5229,510.9714,508.5229,514.9714,498.5229,510.9714,502.5229" style="stroke:#181818;stroke-width:1;"/><line style="stroke:#181818;stroke-width:1;" x1="657.9197" x2="657.9197" y1="368.9136" y2="401.7183"/><polygon fill="#181818" points="653.9197,391.7183,657.9197,401.7183,661.9197,391.7183,657.9197,395.7183" style="stroke:#181818;stroke-width:1;"/><line style="stroke:#181818;stroke-width:1;" x1="657.9197" x2="657.9197" y1="435.687" y2="508.5229"/><polygon fill="#181818" points="653.9197,498.5229,657.9197,508.5229,661.9197,498.5229,657.9197,502.5229" style="stroke:#181818;stroke-width:1;"/><line style="stroke:#181818;stroke-width:1;" x1="802.658" x2="802.658" y1="368.9136" y2="401.7183"/><polygon fill="#181818" points="798.658,391.7183,802.658,401.7183,806.658,391.7183,802.658,395.7183" style="stroke:#181818;stroke-width:1;"/><line style="stroke:#181818;stroke-width:1;" x1="802.658" x2="802.658" y1="435.687" y2="508.5229"/><polygon fill="#181818" points="798.658,498.5229,802.658,508.5229,806.658,498.5229,802.658,502.5229" style="stroke:#181818;stroke-width:1;"/><line style="stroke:#181818;stroke-width:1;" x1="126.6558" x2="151.0027" y1="356.9136" y2="356.9136"/><polygon fill="#181818" points="141.0027,352.9136,151.0027,356.9136,141.0027,360.9136,145.0027,356.9136" style="stroke:#181818;stroke-width:1;"/><line style="stroke:#181818;stroke-width:1;" x1="250.9177" x2="470.2576" y1="356.9136" y2="356.9136"/><polygon fill="#181818" points="460.2576,352.9136,470.2576,356.9136,460.2576,360.9136,464.2576,356.9136" style="stroke:#181818;stroke-width:1;"/><line style="stroke:#181818;stroke-width:1;" x1="551.6853" x2="611.8857" y1="356.9136" y2="356.9136"/><polygon fill="#181818" points="601.8857,352.9136,611.8857,356.9136,601.8857,360.9136,605.8857,356.9136" style="stroke:#181818;stroke-width:1;"/><line style="stroke:#181818;stroke-width:1;" x1="703.9536" x2="754.8032" y1="356.9136" y2="356.9136"/><polygon fill="#181818" points="744.8032,352.9136,754.8032,356.9136,744.8032,360.9136,748.8032,356.9136" style="stroke:#181818;stroke-width:1;"/><line style="stroke:#181818;stroke-width:1;" x1="550.3291" x2="550.3291" y1="284.9136" y2="319.9136"/><line style="stroke:#181818;stroke-width:1;" x1="550.3291" x2="73.3279" y1="319.9136" y2="319.9136"/><line style="stroke:#181818;stroke-width:1;" x1="73.3279" x2="73.3279" y1="319.9136" y2="344.9136"/><polygon fill="#181818" points="69.3279,334.9136,73.3279,344.9136,77.3279,334.9136,73.3279,338.9136" style="stroke:#181818;stroke-width:1;"/><line style="stroke:#181818;stroke-width:1;" x1="850.5127" x2="986.832" y1="356.9136" y2="356.9136"/><line style="stroke:#181818;stroke-width:1;" x1="986.832" x2="986.832" y1="356.9136" y2="398.3159"/><polygon fill="#181818" points="982.832,388.3159,986.832,398.3159,990.832,388.3159,986.832,392.3159" style="stroke:#181818;stroke-width:1;"/><line style="stroke:#181818;stroke-width:1;" x1="986.832" x2="986.832" y1="432.2847" y2="508.5229"/><polygon fill="#181818" points="982.832,498.5229,986.832,508.5229,990.832,498.5229,986.832,502.5229" style="stroke:#181818;stroke-width:1;"/><line style="stroke:#181818;stroke-width:1;" x1="73.3279" x2="986.832" y1="508.5229" y2="508.5229"/><line style="stroke:#181818;stroke-width:1;" x1="550.3291" x2="550.3291" y1="508.5229" y2="543.5229"/><polygon fill="#181818" points="546.3291,533.5229,550.3291,543.5229,554.3291,533.5229,550.3291,537.5229" style="stroke:#181818;stroke-width:1;"/><line style="stroke:#181818;stroke-width:1;" x1="1192.7813" x2="1192.7813" y1="284.9136" y2="319.9136"/><polygon fill="#181818" points="1188.7813,309.9136,1192.7813,319.9136,1196.7813,309.9136,1192.7813,313.9136" style="stroke:#181818;stroke-width:1;"/><line style="stroke:#181818;stroke-width:1;" x1="1361.9617" x2="1361.9617" y1="310.7612" y2="371.6089"/><polygon fill="#181818" points="1357.9617,361.6089,1361.9617,371.6089,1365.9617,361.6089,1361.9617,365.6089" style="stroke:#181818;stroke-width:1;"/><line style="stroke:#181818;stroke-width:1;" x1="1762.2141" x2="1762.2141" y1="284.9136" y2="319.9136"/><polygon fill="#181818" points="1758.2141,309.9136,1762.2141,319.9136,1766.2141,309.9136,1762.2141,313.9136" style="stroke:#181818;stroke-width:1;"/><line style="stroke:#181818;stroke-width:1;" x1="1762.2141" x2="1762.2141" y1="353.8823" y2="388.8823"/><polygon fill="#181818" points="1758.2141,378.8823,1762.2141,388.8823,1766.2141,378.8823,1762.2141,382.8823" style="stroke:#181818;stroke-width:1;"/><line style="stroke:#181818;stroke-width:1;" x1="1762.2141" x2="1762.2141" y1="422.8511" y2="455.687"/><polygon fill="#181818" points="1758.2141,445.687,1762.2141,455.687,1766.2141,445.687,1762.2141,449.687" style="stroke:#181818;stroke-width:1;"/><line style="stroke:#181818;stroke-width:1;" x1="1762.2141" x2="1762.2141" y1="489.6558" y2="524.6558"/><polygon fill="#181818" points="1758.2141,514.6558,1762.2141,524.6558,1766.2141,514.6558,1762.2141,518.6558" style="stroke:#181818;stroke-width:1;"/><line style="stroke:#181818;stroke-width:1;" x1="550.3291" x2="550.3291" y1="219.2344" y2="250.9448"/><polygon fill="#181818" points="546.3291,240.9448,550.3291,250.9448,554.3291,240.9448,550.3291,244.9448" style="stroke:#181818;stroke-width:1;"/><line style="stroke:#181818;stroke-width:1;" x1="550.3291" x2="550.3291" y1="577.4917" y2="597.4917"/><polygon fill="#181818" points="546.3291,587.4917,550.3291,597.4917,554.3291,587.4917,550.3291,591.4917" style="stroke:#181818;stroke-width:1;"/><line style="stroke:#181818;stroke-width:1;" x1="1192.7813" x2="1192.7813" y1="219.2344" y2="250.9448"/><polygon fill="#181818" points="1188.7813,240.9448,1192.7813,250.9448,1196.7813,240.9448,1192.7813,244.9448" style="stroke:#181818;stroke-width:1;"/><line style="stroke:#181818;stroke-width:1;" x1="1192.7813" x2="1192.7813" y1="353.8823" y2="597.4917"/><polygon fill="#181818" points="1188.7813,587.4917,1192.7813,597.4917,1196.7813,587.4917,1192.7813,591.4917" style="stroke:#181818;stroke-width:1;"/><line style="stroke:#181818;stroke-width:1;" x1="1361.9617" x2="1361.9617" y1="219.2344" y2="276.7925"/><polygon fill="#181818" points="1357.9617,266.7925,1361.9617,276.7925,1365.9617,266.7925,1361.9617,270.7925" style="stroke:#181818;stroke-width:1;"/><line style="stroke:#181818;stroke-width:1;" x1="1361.9617" x2="1361.9617" y1="405.5776" y2="597.4917"/><polygon fill="#181818" points="1357.9617,587.4917,1361.9617,597.4917,1365.9617,587.4917,1361.9617,591.4917" style="stroke:#181818;stroke-width:1;"/><line style="stroke:#181818;stroke-width:1;" x1="1762.2141" x2="1762.2141" y1="219.2344" y2="250.9448"/><polygon fill="#181818" points="1758.2141,240.9448,1762.2141,250.9448,1766.2141,240.9448,1762.2141,244.9448" style="stroke:#181818;stroke-width:1;"/><line style="stroke:#181818;stroke-width:1;" x1="1762.2141" x2="1762.2141" y1="558.6245" y2="597.4917"/><polygon fill="#181818" points="1758.2141,587.4917,1762.2141,597.4917,1766.2141,587.4917,1762.2141,591.4917" style="stroke:#181818;stroke-width:1;"/><line style="stroke:#181818;stroke-width:1;" x1="613.7358" x2="1136.2441" y1="207.2344" y2="207.2344"/><polygon fill="#181818" points="1126.2441,203.2344,1136.2441,207.2344,1126.2441,211.2344,1130.2441,207.2344" style="stroke:#181818;stroke-width:1;"/><line style="stroke:#181818;stroke-width:1;" x1="1249.3184" x2="1299.7178" y1="207.2344" y2="207.2344"/><polygon fill="#181818" points="1289.7178,203.2344,1299.7178,207.2344,1289.7178,211.2344,1293.7178,207.2344" style="stroke:#181818;stroke-width:1;"/><line style="stroke:#181818;stroke-width:1;" x1="1424.2056" x2="1701.3372" y1="207.2344" y2="207.2344"/><polygon fill="#181818" points="1691.3372,203.2344,1701.3372,207.2344,1691.3372,211.2344,1695.3372,207.2344" style="stroke:#181818;stroke-width:1;"/><line style="stroke:#181818;stroke-width:1;" x1="1029.2129" x2="1029.2129" y1="175.2344" y2="180.2344"/><line style="stroke:#181818;stroke-width:1;" x1="1029.2129" x2="550.3291" y1="180.2344" y2="180.2344"/><line style="stroke:#181818;stroke-width:1;" x1="550.3291" x2="550.3291" y1="180.2344" y2="195.2344"/><polygon fill="#181818" points="546.3291,185.2344,550.3291,195.2344,554.3291,185.2344,550.3291,189.2344" style="stroke:#181818;stroke-width:1;"/><line style="stroke:#181818;stroke-width:1;" x1="1823.0911" x2="1981.5803" y1="207.2344" y2="207.2344"/><line style="stroke:#181818;stroke-width:1;" x1="1981.5803" x2="1981.5803" y1="207.2344" y2="394.9136"/><polygon fill="#181818" points="1977.5803,384.9136,1981.5803,394.9136,1985.5803,384.9136,1981.5803,388.9136" style="stroke:#181818;stroke-width:1;"/><line style="stroke:#181818;stroke-width:1;" x1="1981.5803" x2="1981.5803" y1="428.8823" y2="597.4917"/><polygon fill="#181818" points="1977.5803,587.4917,1981.5803,597.4917,1985.5803,587.4917,1981.5803,591.4917" style="stroke:#181818;stroke-width:1;"/><line style="stroke:#181818;stroke-width:1;" x1="550.3291" x2="1981.5803" y1="597.4917" y2="597.4917"/><line style="stroke:#181818;stroke-width:1;" x1="1029.2129" x2="1029.2129" y1="597.4917" y2="617.4917"/><polygon fill="#181818" points="1025.2129,607.4917,1029.2129,617.4917,1033.2129,607.4917,1029.2129,611.4917" style="stroke:#181818;stroke-width:1;"/><!--SRC=[XLJHZjem47pFL-nZ8btv07Y3erKVMbKzf3wRC4bSZ1sjDr3-lcidt1qKUX92pevdTh9ZHwmuqFfFpuZH1a_het634LqMHHJ3KioXfRIZXFuzKOHhdWZ-M2sAOlu5GetbA0I70xnGtLctKyWsLFgm0ycv1zb8pWhOk8gaWwVoZ5WLH5cXTYP6Cdv7gJqMMjTVKXWHPN_rWXPymrR-Yc445toPk70HL-GNOUlRXzmHpbGY7xJ2jkraJh-iT3HunDhqcCpTq_zktR_YFo43-uGjPosahEvQs_20Xzm4_e_ysMZb8JkZD_I9F6rCir-bvsSqr70uZ4yRitKv1FYTRSOmBg9JYXIslr5BJkfYwohje-5xIMlP9dNovf1RN7JrGCrS2FkXBnDKFLRUkb3lRxMd93rEj4nuehybcT_sHG9ZdfUVI6t8ULgd4pqjQnUy1grcB0UVplC4vAQKV8nZoUBlxEUc7mubAlFM-NJZr2bgs2EOy7eTyu1MmJbLLSlja1pf1CuKU0TUNF5XwkvrKuQ-gOffyMnZRwJkmBDaeDH6ntoFLJNeZLPEhDvdeTq7z_OQL0v-xyF9Px-RZiE9VXYEM3C7DJ6U4lrSXFul]--></g></svg>