<svg xmlns="http://www.w3.org/2000/svg" xmlns:xlink="http://www.w3.org/1999/xlink" contentStyleType="text/css" data-diagram-type="SEQUENCE" height="1338px" preserveAspectRatio="none" style="width:951px;height:1338px;background:#FFFFFF;" version="1.1" viewBox="0 0 951 1338" width="951px" zoomAndPan="magnify"><title>SOL25 Interpreter - Message Dispatch Communication Diagram</title><defs/><g><text fill="#000000" font-family="sans-serif" font-size="14" font-weight="bold" lengthAdjust="spacing" textLength="500.9102" x="226.8506" y="27.9951">SOL25 Interpreter - Message Dispatch Communication Diagram</text><rect fill="none" height="101.3984" style="stroke:#000000;stroke-width:1.5;" width="242.6387" x="133.0347" y="164.7266"/><rect fill="none" height="75.3984" style="stroke:#000000;stroke-width:1.5;" width="415.8599" x="133.0347" y="280.125"/><rect fill="none" height="646.5938" style="stroke:#000000;stroke-width:1.5;" width="842.5767" x="103.0347" y="369.5234"/><rect fill="none" height="498.9297" style="stroke:#000000;stroke-width:1.5;" width="822.5767" x="113.0347" y="510.1875"/><rect fill="none" height="409.5313" style="stroke:#000000;stroke-width:1.5;" width="802.5767" x="123.0347" y="592.5859"/><rect fill="none" height="234.0625" style="stroke:#000000;stroke-width:1.5;" width="782.5767" x="133.0347" y="658.8516"/><rect fill="none" height="75.3984" style="stroke:#000000;stroke-width:1.5;" width="600.2368" x="133.0347" y="1030.1172"/><rect fill="none" height="121.3359" style="stroke:#000000;stroke-width:1.5;" width="620.2368" x="123.0347" y="1119.5156"/><rect fill="none" height="90.2031" style="stroke:#000000;stroke-width:1.5;" width="600.2368" x="133.0347" y="1143.6484"/><g><title>Client</title><rect fill="#000000" fill-opacity="0.00000" height="1139.2578" width="8" x="24.2651" y="118.5938"/><line style="stroke:#181818;stroke-width:0.5;stroke-dasharray:5.0,5.0;" x1="28" x2="28" y1="118.5938" y2="1257.8516"/></g><g><title>MessageDispatcher</title><rect fill="#000000" fill-opacity="0.00000" height="1139.2578" width="8" x="214.6436" y="118.5938"/><line style="stroke:#181818;stroke-width:0.5;stroke-dasharray:5.0,5.0;" x1="218.0347" x2="218.0347" y1="118.5938" y2="1257.8516"/></g><g><title>ClassTable</title><rect fill="#000000" fill-opacity="0.00000" height="1139.2578" width="8" x="405.064" y="118.5938"/><line style="stroke:#181818;stroke-width:0.5;stroke-dasharray:5.0,5.0;" x1="408.3877" x2="408.3877" y1="118.5938" y2="1257.8516"/></g><g><title>ClassDef</title><rect fill="#000000" fill-opacity="0.00000" height="1139.2578" width="8" x="497.3174" y="118.5938"/><line style="stroke:#181818;stroke-width:0.5;stroke-dasharray:5.0,5.0;" x1="500.7402" x2="500.7402" y1="118.5938" y2="1257.8516"/></g><g><title>MethodDef</title><rect fill="#000000" fill-opacity="0.00000" height="1139.2578" width="8" x="590.3091" y="118.5938"/><line style="stroke:#181818;stroke-width:0.5;stroke-dasharray:5.0,5.0;" x1="593.8945" x2="593.8945" y1="118.5938" y2="1257.8516"/></g><g><title>Instance</title><rect fill="#000000" fill-opacity="0.00000" height="1139.2578" width="8" x="682.4976" y="118.5938"/><line style="stroke:#181818;stroke-width:0.5;stroke-dasharray:5.0,5.0;" x1="685.7236" x2="685.7236" y1="118.5938" y2="1257.8516"/></g><g><title>Environment</title><rect fill="#000000" fill-opacity="0.00000" height="1139.2578" width="8" x="781.1221" y="118.5938"/><line style="stroke:#181818;stroke-width:0.5;stroke-dasharray:5.0,5.0;" x1="784.2715" x2="784.2715" y1="118.5938" y2="1257.8516"/></g><g><title>Frame</title><rect fill="#000000" fill-opacity="0.00000" height="1139.2578" width="8" x="872.292" y="118.5938"/><line style="stroke:#181818;stroke-width:0.5;stroke-dasharray:5.0,5.0;" x1="875.9727" x2="875.9727" y1="118.5938" y2="1257.8516"/></g><g class="participant participant-head" data-participant="Client"><text fill="#000000" font-family="sans-serif" font-size="14" lengthAdjust="spacing" textLength="40.5303" x="5" y="115.292">Client</text><ellipse cx="28.2651" cy="50.7969" fill="#E2E2F0" rx="8" ry="8" style="stroke:#181818;stroke-width:0.5;"/><path d="M28.2651,58.7969 L28.2651,85.7969 M15.2651,66.7969 L41.2651,66.7969 M28.2651,85.7969 L15.2651,100.7969 M28.2651,85.7969 L41.2651,100.7969" fill="none" style="stroke:#181818;stroke-width:0.5;"/></g><g class="participant participant-tail" data-participant="Client"><text fill="#000000" font-family="sans-serif" font-size="14" lengthAdjust="spacing" textLength="40.5303" x="5" y="1269.8467">Client</text><ellipse cx="28.2651" cy="1281.6484" fill="#E2E2F0" rx="8" ry="8" style="stroke:#181818;stroke-width:0.5;"/><path d="M28.2651,1289.6484 L28.2651,1316.6484 M15.2651,1297.6484 L41.2651,1297.6484 M28.2651,1316.6484 L15.2651,1331.6484 M28.2651,1316.6484 L41.2651,1331.6484" fill="none" style="stroke:#181818;stroke-width:0.5;"/></g><g class="participant participant-head" data-participant="MessageDispatcher"><rect fill="#E2E2F0" height="30.2969" rx="2.5" ry="2.5" style="stroke:#181818;stroke-width:0.5;" width="151.2178" x="143.0347" y="87.2969"/><text fill="#000000" font-family="sans-serif" font-size="14" lengthAdjust="spacing" textLength="137.2178" x="150.0347" y="107.292">MessageDispatcher</text></g><g class="participant participant-tail" data-participant="MessageDispatcher"><rect fill="#E2E2F0" height="30.2969" rx="2.5" ry="2.5" style="stroke:#181818;stroke-width:0.5;" width="151.2178" x="143.0347" y="1256.8516"/><text fill="#000000" font-family="sans-serif" font-size="14" lengthAdjust="spacing" textLength="137.2178" x="150.0347" y="1276.8467">MessageDispatcher</text></g><g class="participant participant-head" data-participant="ClassTable"><rect fill="#E2E2F0" height="30.2969" rx="2.5" ry="2.5" style="stroke:#181818;stroke-width:0.5;" width="89.3525" x="364.3877" y="87.2969"/><text fill="#000000" font-family="sans-serif" font-size="14" lengthAdjust="spacing" textLength="75.3525" x="371.3877" y="107.292">ClassTable</text></g><g class="participant participant-tail" data-participant="ClassTable"><rect fill="#E2E2F0" height="30.2969" rx="2.5" ry="2.5" style="stroke:#181818;stroke-width:0.5;" width="89.3525" x="364.3877" y="1256.8516"/><text fill="#000000" font-family="sans-serif" font-size="14" lengthAdjust="spacing" textLength="75.3525" x="371.3877" y="1276.8467">ClassTable</text></g><g class="participant participant-head" data-participant="ClassDef"><rect fill="#E2E2F0" height="30.2969" rx="2.5" ry="2.5" style="stroke:#181818;stroke-width:0.5;" width="75.1543" x="463.7402" y="87.2969"/><text fill="#000000" font-family="sans-serif" font-size="14" lengthAdjust="spacing" textLength="61.1543" x="470.7402" y="107.292">ClassDef</text></g><g class="participant participant-tail" data-participant="ClassDef"><rect fill="#E2E2F0" height="30.2969" rx="2.5" ry="2.5" style="stroke:#181818;stroke-width:0.5;" width="75.1543" x="463.7402" y="1256.8516"/><text fill="#000000" font-family="sans-serif" font-size="14" lengthAdjust="spacing" textLength="61.1543" x="470.7402" y="1276.8467">ClassDef</text></g><g class="participant participant-head" data-participant="MethodDef"><rect fill="#E2E2F0" height="30.2969" rx="2.5" ry="2.5" style="stroke:#181818;stroke-width:0.5;" width="90.8291" x="548.8945" y="87.2969"/><text fill="#000000" font-family="sans-serif" font-size="14" lengthAdjust="spacing" textLength="76.8291" x="555.8945" y="107.292">MethodDef</text></g><g class="participant participant-tail" data-participant="MethodDef"><rect fill="#E2E2F0" height="30.2969" rx="2.5" ry="2.5" style="stroke:#181818;stroke-width:0.5;" width="90.8291" x="548.8945" y="1256.8516"/><text fill="#000000" font-family="sans-serif" font-size="14" lengthAdjust="spacing" textLength="76.8291" x="555.8945" y="1276.8467">MethodDef</text></g><g class="participant participant-head" data-participant="Instance"><rect fill="#E2E2F0" height="30.2969" rx="2.5" ry="2.5" style="stroke:#181818;stroke-width:0.5;" width="73.5479" x="649.7236" y="87.2969"/><text fill="#000000" font-family="sans-serif" font-size="14" lengthAdjust="spacing" textLength="59.5479" x="656.7236" y="107.292">Instance</text></g><g class="participant participant-tail" data-participant="Instance"><rect fill="#E2E2F0" height="30.2969" rx="2.5" ry="2.5" style="stroke:#181818;stroke-width:0.5;" width="73.5479" x="649.7236" y="1256.8516"/><text fill="#000000" font-family="sans-serif" font-size="14" lengthAdjust="spacing" textLength="59.5479" x="656.7236" y="1276.8467">Instance</text></g><g class="participant participant-head" data-participant="Environment"><rect fill="#E2E2F0" height="30.2969" rx="2.5" ry="2.5" style="stroke:#181818;stroke-width:0.5;" width="103.7012" x="733.2715" y="87.2969"/><text fill="#000000" font-family="sans-serif" font-size="14" lengthAdjust="spacing" textLength="89.7012" x="740.2715" y="107.292">Environment</text></g><g class="participant participant-tail" data-participant="Environment"><rect fill="#E2E2F0" height="30.2969" rx="2.5" ry="2.5" style="stroke:#181818;stroke-width:0.5;" width="103.7012" x="733.2715" y="1256.8516"/><text fill="#000000" font-family="sans-serif" font-size="14" lengthAdjust="spacing" textLength="89.7012" x="740.2715" y="1276.8467">Environment</text></g><g class="participant participant-head" data-participant="Frame"><rect fill="#E2E2F0" height="30.2969" rx="2.5" ry="2.5" style="stroke:#181818;stroke-width:0.5;" width="58.6387" x="846.9727" y="87.2969"/><text fill="#000000" font-family="sans-serif" font-size="14" lengthAdjust="spacing" textLength="44.6387" x="853.9727" y="107.292">Frame</text></g><g class="participant participant-tail" data-participant="Frame"><rect fill="#E2E2F0" height="30.2969" rx="2.5" ry="2.5" style="stroke:#181818;stroke-width:0.5;" width="58.6387" x="846.9727" y="1256.8516"/><text fill="#000000" font-family="sans-serif" font-size="14" lengthAdjust="spacing" textLength="44.6387" x="853.9727" y="1276.8467">Frame</text></g><g class="message" data-participant-1="Client" data-participant-2="MessageDispatcher"><polygon fill="#181818" points="206.6436,145.7266,216.6436,149.7266,206.6436,153.7266,210.6436,149.7266" style="stroke:#181818;stroke-width:1;"/><line style="stroke:#181818;stroke-width:1;" x1="28.2651" x2="212.6436" y1="149.7266" y2="149.7266"/><text fill="#000000" font-family="sans-serif" font-size="13" lengthAdjust="spacing" textLength="166.3784" x="35.2651" y="144.6606">send(recv, selector, args)</text></g><path d="M133.0347,164.7266 L331.502,164.7266 L331.502,171.8594 L321.502,181.8594 L133.0347,181.8594 L133.0347,164.7266" fill="#EEEEEE" style="stroke:#000000;stroke-width:1.5;"/><rect fill="none" height="101.3984" style="stroke:#000000;stroke-width:1.5;" width="242.6387" x="133.0347" y="164.7266"/><text fill="#000000" font-family="sans-serif" font-size="13" font-weight="bold" lengthAdjust="spacing" textLength="153.4673" x="148.0347" y="177.7935">SuperProxy handling</text><g class="message" data-participant-1="MessageDispatcher" data-participant-2="MessageDispatcher"><line style="stroke:#181818;stroke-width:1;" x1="218.6436" x2="260.6436" y1="202.9922" y2="202.9922"/><line style="stroke:#181818;stroke-width:1;" x1="260.6436" x2="260.6436" y1="202.9922" y2="215.9922"/><line style="stroke:#181818;stroke-width:1;" x1="219.6436" x2="260.6436" y1="215.9922" y2="215.9922"/><polygon fill="#181818" points="229.6436,211.9922,219.6436,215.9922,229.6436,219.9922,225.6436,215.9922" style="stroke:#181818;stroke-width:1;"/><text fill="#000000" font-family="sans-serif" font-size="13" lengthAdjust="spacing" textLength="115.1719" x="225.6436" y="197.9263">Extract startClass</text></g><g class="message" data-participant-1="MessageDispatcher" data-participant-2="MessageDispatcher"><line style="stroke:#181818;stroke-width:1;" x1="218.6436" x2="260.6436" y1="245.125" y2="245.125"/><line style="stroke:#181818;stroke-width:1;" x1="260.6436" x2="260.6436" y1="245.125" y2="258.125"/><line style="stroke:#181818;stroke-width:1;" x1="219.6436" x2="260.6436" y1="258.125" y2="258.125"/><polygon fill="#181818" points="229.6436,254.125,219.6436,258.125,229.6436,262.125,225.6436,258.125" style="stroke:#181818;stroke-width:1;"/><text fill="#000000" font-family="sans-serif" font-size="13" lengthAdjust="spacing" textLength="138.0298" x="225.6436" y="240.0591">Unwrap target object</text></g><path d="M133.0347,280.125 L372.8569,280.125 L372.8569,287.2578 L362.8569,297.2578 L133.0347,297.2578 L133.0347,280.125" fill="#EEEEEE" style="stroke:#000000;stroke-width:1.5;"/><rect fill="none" height="75.3984" style="stroke:#000000;stroke-width:1.5;" width="415.8599" x="133.0347" y="280.125"/><text fill="#000000" font-family="sans-serif" font-size="13" font-weight="bold" lengthAdjust="spacing" textLength="194.8223" x="148.0347" y="293.1919">Class constructor dispatch</text><g class="message" data-participant-1="MessageDispatcher" data-participant-2="ClassDef"><polygon fill="#181818" points="489.3174,314.3906,499.3174,318.3906,489.3174,322.3906,493.3174,318.3906" style="stroke:#181818;stroke-width:1;"/><line style="stroke:#181818;stroke-width:1;" x1="218.6436" x2="495.3174" y1="318.3906" y2="318.3906"/><text fill="#000000" font-family="sans-serif" font-size="13" lengthAdjust="spacing" textLength="205.7656" x="225.6436" y="313.3247">instantiate() / instantiateFrom()</text></g><g class="message" data-participant-1="ClassDef" data-participant-2="MessageDispatcher"><polygon fill="#181818" points="229.6436,343.5234,219.6436,347.5234,229.6436,351.5234,225.6436,347.5234" style="stroke:#181818;stroke-width:1;"/><line style="stroke:#181818;stroke-width:1;stroke-dasharray:2.0,2.0;" x1="223.6436" x2="500.3174" y1="347.5234" y2="347.5234"/><text fill="#000000" font-family="sans-serif" font-size="13" lengthAdjust="spacing" textLength="86.0742" x="235.6436" y="342.4575">new instance</text></g><path d="M103.0347,369.5234 L340.686,369.5234 L340.686,376.6563 L330.686,386.6563 L103.0347,386.6563 L103.0347,369.5234" fill="#EEEEEE" style="stroke:#000000;stroke-width:1.5;"/><rect fill="none" height="646.5938" style="stroke:#000000;stroke-width:1.5;" width="842.5767" x="103.0347" y="369.5234"/><text fill="#000000" font-family="sans-serif" font-size="13" font-weight="bold" lengthAdjust="spacing" textLength="192.6514" x="118.0347" y="382.5903">Method lookup &amp; dispatch</text><g class="message" data-participant-1="MessageDispatcher" data-participant-2="ClassTable"><polygon fill="#181818" points="397.064,403.7891,407.064,407.7891,397.064,411.7891,401.064,407.7891" style="stroke:#181818;stroke-width:1;"/><line style="stroke:#181818;stroke-width:1;" x1="218.6436" x2="403.064" y1="407.7891" y2="407.7891"/><text fill="#000000" font-family="sans-serif" font-size="13" lengthAdjust="spacing" textLength="86.7852" x="225.6436" y="402.7231">getInstance()</text></g><g class="message" data-participant-1="ClassTable" data-participant-2="MessageDispatcher"><polygon fill="#181818" points="229.6436,432.9219,219.6436,436.9219,229.6436,440.9219,225.6436,436.9219" style="stroke:#181818;stroke-width:1;"/><line style="stroke:#181818;stroke-width:1;stroke-dasharray:2.0,2.0;" x1="223.6436" x2="408.064" y1="436.9219" y2="436.9219"/><text fill="#000000" font-family="sans-serif" font-size="13" lengthAdjust="spacing" textLength="59.7759" x="235.6436" y="431.856">singleton</text></g><g class="message" data-participant-1="MessageDispatcher" data-participant-2="ClassTable"><polygon fill="#181818" points="397.064,462.0547,407.064,466.0547,397.064,470.0547,401.064,466.0547" style="stroke:#181818;stroke-width:1;"/><line style="stroke:#181818;stroke-width:1;" x1="218.6436" x2="403.064" y1="466.0547" y2="466.0547"/><text fill="#000000" font-family="sans-serif" font-size="13" lengthAdjust="spacing" textLength="130.2793" x="225.6436" y="460.9888">getClass(recv.class)</text></g><g class="message" data-participant-1="ClassTable" data-participant-2="MessageDispatcher"><polygon fill="#181818" points="229.6436,491.1875,219.6436,495.1875,229.6436,499.1875,225.6436,495.1875" style="stroke:#181818;stroke-width:1;"/><line style="stroke:#181818;stroke-width:1;stroke-dasharray:2.0,2.0;" x1="223.6436" x2="408.064" y1="495.1875" y2="495.1875"/><text fill="#000000" font-family="sans-serif" font-size="13" lengthAdjust="spacing" textLength="56.7861" x="235.6436" y="490.1216">ClassDef</text></g><path d="M113.0347,510.1875 L189.6587,510.1875 L189.6587,517.3203 L179.6587,527.3203 L113.0347,527.3203 L113.0347,510.1875" fill="#EEEEEE" style="stroke:#000000;stroke-width:1.5;"/><rect fill="none" height="498.9297" style="stroke:#000000;stroke-width:1.5;" width="822.5767" x="113.0347" y="510.1875"/><text fill="#000000" font-family="sans-serif" font-size="13" font-weight="bold" lengthAdjust="spacing" textLength="31.624" x="128.0347" y="523.2544">loop</text><text fill="#000000" font-family="sans-serif" font-size="11" font-weight="bold" lengthAdjust="spacing" textLength="163.2813" x="204.6587" y="522.3979">[class hierarchy traversal]</text><g class="message" data-participant-1="MessageDispatcher" data-participant-2="ClassDef"><polygon fill="#181818" points="489.3174,544.4531,499.3174,548.4531,489.3174,552.4531,493.3174,548.4531" style="stroke:#181818;stroke-width:1;"/><line style="stroke:#181818;stroke-width:1;" x1="218.6436" x2="495.3174" y1="548.4531" y2="548.4531"/><text fill="#000000" font-family="sans-serif" font-size="13" lengthAdjust="spacing" textLength="132.1709" x="225.6436" y="543.3872">getMethod(selector)</text></g><g class="message" data-participant-1="ClassDef" data-participant-2="MessageDispatcher"><polygon fill="#181818" points="229.6436,573.5859,219.6436,577.5859,229.6436,581.5859,225.6436,577.5859" style="stroke:#181818;stroke-width:1;"/><line style="stroke:#181818;stroke-width:1;stroke-dasharray:2.0,2.0;" x1="223.6436" x2="500.3174" y1="577.5859" y2="577.5859"/><text fill="#000000" font-family="sans-serif" font-size="13" lengthAdjust="spacing" textLength="95.4688" x="235.6436" y="572.52">method or null</text></g><path d="M123.0347,592.5859 L187.4775,592.5859 L187.4775,599.7188 L177.4775,609.7188 L123.0347,609.7188 L123.0347,592.5859" fill="#EEEEEE" style="stroke:#000000;stroke-width:1.5;"/><rect fill="none" height="409.5313" style="stroke:#000000;stroke-width:1.5;" width="802.5767" x="123.0347" y="592.5859"/><text fill="#000000" font-family="sans-serif" font-size="13" font-weight="bold" lengthAdjust="spacing" textLength="19.4429" x="138.0347" y="605.6528">alt</text><text fill="#000000" font-family="sans-serif" font-size="11" font-weight="bold" lengthAdjust="spacing" textLength="97.2061" x="202.4775" y="604.7964">[method found]</text><g class="message" data-participant-1="MessageDispatcher" data-participant-2="MessageDispatcher"><line style="stroke:#181818;stroke-width:1;" x1="218.6436" x2="260.6436" y1="630.8516" y2="630.8516"/><line style="stroke:#181818;stroke-width:1;" x1="260.6436" x2="260.6436" y1="630.8516" y2="643.8516"/><line style="stroke:#181818;stroke-width:1;" x1="219.6436" x2="260.6436" y1="643.8516" y2="643.8516"/><polygon fill="#181818" points="229.6436,639.8516,219.6436,643.8516,229.6436,647.8516,225.6436,643.8516" style="stroke:#181818;stroke-width:1;"/><text fill="#000000" font-family="sans-serif" font-size="13" lengthAdjust="spacing" textLength="176.4204" x="225.6436" y="625.7856">invoke(recv, method, args)</text></g><path d="M133.0347,658.8516 L314.4712,658.8516 L314.4712,665.9844 L304.4712,675.9844 L133.0347,675.9844 L133.0347,658.8516" fill="#EEEEEE" style="stroke:#000000;stroke-width:1.5;"/><rect fill="none" height="234.0625" style="stroke:#000000;stroke-width:1.5;" width="782.5767" x="133.0347" y="658.8516"/><text fill="#000000" font-family="sans-serif" font-size="13" font-weight="bold" lengthAdjust="spacing" textLength="136.4365" x="148.0347" y="671.9185">Method invocation</text><g class="message" data-participant-1="MessageDispatcher" data-participant-2="MethodDef"><polygon fill="#181818" points="582.3091,693.1172,592.3091,697.1172,582.3091,701.1172,586.3091,697.1172" style="stroke:#181818;stroke-width:1;"/><line style="stroke:#181818;stroke-width:1;" x1="218.6436" x2="588.3091" y1="697.1172" y2="697.1172"/><text fill="#000000" font-family="sans-serif" font-size="13" lengthAdjust="spacing" textLength="100.5786" x="225.6436" y="692.0513">getBlockNode()</text></g><g class="message" data-participant-1="MethodDef" data-participant-2="MessageDispatcher"><polygon fill="#181818" points="229.6436,722.25,219.6436,726.25,229.6436,730.25,225.6436,726.25" style="stroke:#181818;stroke-width:1;"/><line style="stroke:#181818;stroke-width:1;stroke-dasharray:2.0,2.0;" x1="223.6436" x2="593.3091" y1="726.25" y2="726.25"/><text fill="#000000" font-family="sans-serif" font-size="13" lengthAdjust="spacing" textLength="70.0845" x="235.6436" y="721.1841">DOM block</text></g><g class="message" data-participant-1="MessageDispatcher" data-participant-2="Environment"><polygon fill="#181818" points="773.1221,751.3828,783.1221,755.3828,773.1221,759.3828,777.1221,755.3828" style="stroke:#181818;stroke-width:1;"/><line style="stroke:#181818;stroke-width:1;" x1="218.6436" x2="779.1221" y1="755.3828" y2="755.3828"/><text fill="#000000" font-family="sans-serif" font-size="13" lengthAdjust="spacing" textLength="124.4395" x="225.6436" y="750.3169">new Environment()</text></g><g class="message" data-participant-1="MessageDispatcher" data-participant-2="Frame"><polygon fill="#181818" points="864.292,780.5156,874.292,784.5156,864.292,788.5156,868.292,784.5156" style="stroke:#181818;stroke-width:1;"/><line style="stroke:#181818;stroke-width:1;" x1="218.6436" x2="870.292" y1="784.5156" y2="784.5156"/><text fill="#000000" font-family="sans-serif" font-size="13" lengthAdjust="spacing" textLength="194.9111" x="225.6436" y="779.4497">new Frame(vars, paramFlags)</text></g><g class="message" data-participant-1="MessageDispatcher" data-participant-2="Environment"><polygon fill="#181818" points="773.1221,809.6484,783.1221,813.6484,773.1221,817.6484,777.1221,813.6484" style="stroke:#181818;stroke-width:1;"/><line style="stroke:#181818;stroke-width:1;" x1="218.6436" x2="779.1221" y1="813.6484" y2="813.6484"/><text fill="#000000" font-family="sans-serif" font-size="13" lengthAdjust="spacing" textLength="80.1963" x="225.6436" y="808.5825">push(frame)</text></g><g class="message" data-participant-1="MessageDispatcher" data-participant-2="MessageDispatcher"><line style="stroke:#181818;stroke-width:1;" x1="218.6436" x2="260.6436" y1="842.7813" y2="842.7813"/><line style="stroke:#181818;stroke-width:1;" x1="260.6436" x2="260.6436" y1="842.7813" y2="855.7813"/><line style="stroke:#181818;stroke-width:1;" x1="219.6436" x2="260.6436" y1="855.7813" y2="855.7813"/><polygon fill="#181818" points="229.6436,851.7813,219.6436,855.7813,229.6436,859.7813,225.6436,855.7813" style="stroke:#181818;stroke-width:1;"/><text fill="#000000" font-family="sans-serif" font-size="13" lengthAdjust="spacing" textLength="121.145" x="225.6436" y="837.7153">invokeBlockBody()</text></g><g class="message" data-participant-1="MessageDispatcher" data-participant-2="Environment"><polygon fill="#181818" points="773.1221,880.9141,783.1221,884.9141,773.1221,888.9141,777.1221,884.9141" style="stroke:#181818;stroke-width:1;"/><line style="stroke:#181818;stroke-width:1;" x1="218.6436" x2="779.1221" y1="884.9141" y2="884.9141"/><text fill="#000000" font-family="sans-serif" font-size="13" lengthAdjust="spacing" textLength="34.6011" x="225.6436" y="879.8481">pop()</text></g><line style="stroke:#000000;stroke-width:1;stroke-dasharray:2.0,2.0;" x1="123.0347" x2="925.6113" y1="900.9141" y2="900.9141"/><text fill="#000000" font-family="sans-serif" font-size="11" font-weight="bold" lengthAdjust="spacing" textLength="200.0249" x="128.0347" y="911.1245">[no method - try next approach]</text><g class="message" data-participant-1="MessageDispatcher" data-participant-2="ClassDef"><polygon fill="#181818" points="489.3174,931.8516,499.3174,935.8516,489.3174,939.8516,493.3174,935.8516" style="stroke:#181818;stroke-width:1;"/><line style="stroke:#181818;stroke-width:1;" x1="218.6436" x2="495.3174" y1="935.8516" y2="935.8516"/><text fill="#000000" font-family="sans-serif" font-size="13" lengthAdjust="spacing" textLength="112.3281" x="225.6436" y="930.7856">getParentName()</text></g><g class="message" data-participant-1="ClassDef" data-participant-2="MessageDispatcher"><polygon fill="#181818" points="229.6436,960.9844,219.6436,964.9844,229.6436,968.9844,225.6436,964.9844" style="stroke:#181818;stroke-width:1;"/><line style="stroke:#181818;stroke-width:1;stroke-dasharray:2.0,2.0;" x1="223.6436" x2="500.3174" y1="964.9844" y2="964.9844"/><text fill="#000000" font-family="sans-serif" font-size="13" lengthAdjust="spacing" textLength="83.897" x="235.6436" y="959.9185">parent name</text></g><g class="message" data-participant-1="MessageDispatcher" data-participant-2="ClassTable"><polygon fill="#181818" points="397.064,990.1172,407.064,994.1172,397.064,998.1172,401.064,994.1172" style="stroke:#181818;stroke-width:1;"/><line style="stroke:#181818;stroke-width:1;" x1="218.6436" x2="403.064" y1="994.1172" y2="994.1172"/><text fill="#000000" font-family="sans-serif" font-size="13" lengthAdjust="spacing" textLength="146.9419" x="225.6436" y="989.0513">getClass(parentName)</text></g><path d="M133.0347,1030.1172 L294.6221,1030.1172 L294.6221,1037.25 L284.6221,1047.25 L133.0347,1047.25 L133.0347,1030.1172" fill="#EEEEEE" style="stroke:#000000;stroke-width:1.5;"/><rect fill="none" height="75.3984" style="stroke:#000000;stroke-width:1.5;" width="600.2368" x="133.0347" y="1030.1172"/><text fill="#000000" font-family="sans-serif" font-size="13" font-weight="bold" lengthAdjust="spacing" textLength="116.5874" x="148.0347" y="1043.1841">Builtin handling</text><g class="message" data-participant-1="MessageDispatcher" data-participant-2="Instance"><polygon fill="#181818" points="674.4976,1064.3828,684.4976,1068.3828,674.4976,1072.3828,678.4976,1068.3828" style="stroke:#181818;stroke-width:1;"/><line style="stroke:#181818;stroke-width:1;" x1="218.6436" x2="680.4976" y1="1068.3828" y2="1068.3828"/><text fill="#000000" font-family="sans-serif" font-size="13" lengthAdjust="spacing" textLength="139.3311" x="225.6436" y="1063.3169">builtin(selector, args)</text></g><g class="message" data-participant-1="Instance" data-participant-2="MessageDispatcher"><polygon fill="#181818" points="229.6436,1093.5156,219.6436,1097.5156,229.6436,1101.5156,225.6436,1097.5156" style="stroke:#181818;stroke-width:1;"/><line style="stroke:#181818;stroke-width:1;stroke-dasharray:2.0,2.0;" x1="223.6436" x2="685.4976" y1="1097.5156" y2="1097.5156"/><text fill="#000000" font-family="sans-serif" font-size="13" lengthAdjust="spacing" textLength="122.6177" x="235.6436" y="1092.4497">result or exception</text></g><path d="M123.0347,1119.5156 L287.9863,1119.5156 L287.9863,1126.6484 L277.9863,1136.6484 L123.0347,1136.6484 L123.0347,1119.5156" fill="#EEEEEE" style="stroke:#000000;stroke-width:1.5;"/><rect fill="none" height="121.3359" style="stroke:#000000;stroke-width:1.5;" width="620.2368" x="123.0347" y="1119.5156"/><text fill="#000000" font-family="sans-serif" font-size="13" font-weight="bold" lengthAdjust="spacing" textLength="119.9517" x="138.0347" y="1132.5825">Attribute access</text><path d="M133.0347,1143.6484 L197.4775,1143.6484 L197.4775,1150.7813 L187.4775,1160.7813 L133.0347,1160.7813 L133.0347,1143.6484" fill="#EEEEEE" style="stroke:#000000;stroke-width:1.5;"/><rect fill="none" height="90.2031" style="stroke:#000000;stroke-width:1.5;" width="600.2368" x="133.0347" y="1143.6484"/><text fill="#000000" font-family="sans-serif" font-size="13" font-weight="bold" lengthAdjust="spacing" textLength="19.4429" x="148.0347" y="1156.7153">alt</text><text fill="#000000" font-family="sans-serif" font-size="11" font-weight="bold" lengthAdjust="spacing" textLength="136.877" x="212.4775" y="1155.8589">[setter (ends with ':')]</text><g class="message" data-participant-1="MessageDispatcher" data-participant-2="Instance"><polygon fill="#181818" points="674.4976,1177.9141,684.4976,1181.9141,674.4976,1185.9141,678.4976,1181.9141" style="stroke:#181818;stroke-width:1;"/><line style="stroke:#181818;stroke-width:1;" x1="218.6436" x2="680.4976" y1="1181.9141" y2="1181.9141"/><text fill="#000000" font-family="sans-serif" font-size="13" lengthAdjust="spacing" textLength="129.3589" x="225.6436" y="1176.8481">attr[prop] = args[0]</text></g><line style="stroke:#000000;stroke-width:1;stroke-dasharray:2.0,2.0;" x1="133.0347" x2="733.2715" y1="1190.9141" y2="1190.9141"/><text fill="#000000" font-family="sans-serif" font-size="11" font-weight="bold" lengthAdjust="spacing" textLength="48.791" x="138.0347" y="1201.1245">[getter]</text><g class="message" data-participant-1="MessageDispatcher" data-participant-2="Instance"><polygon fill="#181818" points="674.4976,1221.8516,684.4976,1225.8516,674.4976,1229.8516,678.4976,1225.8516" style="stroke:#181818;stroke-width:1;"/><line style="stroke:#181818;stroke-width:1;" x1="218.6436" x2="680.4976" y1="1225.8516" y2="1225.8516"/><text fill="#000000" font-family="sans-serif" font-size="13" lengthAdjust="spacing" textLength="140.791" x="225.6436" y="1220.7856">retrieve attr[selector]</text></g><!--SRC=[dLPBRzim3BxxL_2qsa2p3GDs2R02wmiei3w0RgSY1yLXRQso951oclpxqPALL-l5syKFIH_vaHz9sqkl41xlVtpv2ZVQ8rb2li84Rj4vKI5SIcU5BskuC4tJQbaAButcPL6HQB9CbDuGN2Y9scTMa9Ubj4BxP23XaVPsBvHmxgUOAtoxV8dF1vPyRHQ7gpVQUQ7BVVoLNaeokZaaSyrSCSiYJPYSlMKt1OTwaHEMorD-LDZ5TGg2AbTaMKMcjV3OMgG7Cgirr48lbDHL1czD3TY_MddYR07J9Xy2_GVmB_rAmW93A_HWvh-PNyQ44xLW3qh3IQ4sIBBeqKDEKggd84CclHGUym8-xRvVasdoWasaqp1vdv_6rnx7YkpmYjg1CkQ5tpwCOnNgOWeSQH9voo7i3R5mh8X2RpIV7kaXl0RPFvRTupX7cpeDVZWw2m4DjKGILDPhOB6NI4ueFd1K0YOICvMdqYi2x5ZQcvXUbbktAdeA5w5ysdisBSi1CCZY7RDIByqBziqGxQHMY8Rwsvx67IXEXtvtq5_VpY7iSsNAbpkpY18dM7zYAEpB-rkOTy0DvEykTyP2BDMTXJs_xs33w8Yey9Wl1RbJuEaYccibjZaPuzkshiwVEpF5IEg3weJ4dPl5EY_-9mlMs0qGDmKIRgWSWZQfW2PSockEV-L1M4j6XEuTLzGFWjZRNPUsvEnOITi00TqDx6Dk3jlORjn5Rp6mxhepaivRgRpKHqTucZrJc4T4VlXPWCsPeM08NSkjoFs9gn9jQ8uTAj-z9pblFO8eImmVXAvp7Vhk8vppIGUlqjTmCZqfXkV8bgbWWq-iaPt1jq3owVCiwnMjWjKnLlWVW2GkCPfBKS-sgVm3]--></g></svg>