<svg xmlns="http://www.w3.org/2000/svg" xmlns:xlink="http://www.w3.org/1999/xlink" contentStyleType="text/css" data-diagram-type="ACTIVITY" height="2273px" preserveAspectRatio="none" style="width:751px;height:2273px;background:#FFFFFF;" version="1.1" viewBox="0 0 751 2273" width="751px" zoomAndPan="magnify"><title>MessageDispatcher::send Flow</title><defs/><g><g class="title" data-source-line="1"><text fill="#000000" font-family="sans-serif" font-size="14" font-weight="bold" lengthAdjust="spacing" textLength="245.4375" x="251.4363" y="32.9951">MessageDispatcher::send Flow</text></g><ellipse cx="390.655" cy="57.2969" fill="#222222" rx="10" ry="10" style="stroke:#222222;stroke-width:1;"/><rect fill="#F1F1F1" height="33.9688" rx="12.5" ry="12.5" style="stroke:#181818;stroke-width:0.5;" width="188.8379" x="296.2361" y="87.2969"/><text fill="#000000" font-family="sans-serif" font-size="12" lengthAdjust="spacing" textLength="168.8379" x="306.2361" y="108.4355">receive(recv, selector, args)</text><rect fill="#F1F1F1" height="33.9688" rx="12.5" ry="12.5" style="stroke:#181818;stroke-width:0.5;" width="126.3125" x="327.4988" y="189.668"/><text fill="#000000" font-family="sans-serif" font-size="12" lengthAdjust="spacing" textLength="106.3125" x="337.4988" y="210.8066">Extract startClass</text><rect fill="#F1F1F1" height="33.9688" rx="12.5" ry="12.5" style="stroke:#181818;stroke-width:0.5;" width="106.6191" x="337.3455" y="258.6367"/><text fill="#000000" font-family="sans-serif" font-size="12" lengthAdjust="spacing" textLength="86.6191" x="347.3455" y="279.7754">Unwrap target</text><polygon fill="#F1F1F1" points="336.356,141.2656,444.9541,141.2656,456.9541,153.2656,444.9541,165.2656,336.356,165.2656,324.356,153.2656,336.356,141.2656" style="stroke:#181818;stroke-width:0.5;"/><text fill="#000000" font-family="sans-serif" font-size="11" lengthAdjust="spacing" textLength="19.0083" x="394.655" y="175.4761">yes</text><text fill="#000000" font-family="sans-serif" font-size="11" lengthAdjust="spacing" textLength="108.5981" x="336.356" y="157.0737">recv is SuperProxy?</text><polygon fill="#F1F1F1" points="390.655,312.6055,402.655,324.6055,390.655,336.6055,378.655,324.6055,390.655,312.6055" style="stroke:#181818;stroke-width:0.5;"/><polygon fill="#F1F1F1" points="32,412.3159,201.9146,412.3159,213.9146,424.3159,201.9146,436.3159,32,436.3159,20,424.3159,32,412.3159" style="stroke:#181818;stroke-width:0.5;"/><text fill="#000000" font-family="sans-serif" font-size="11" lengthAdjust="spacing" textLength="19.0083" x="120.9573" y="446.5264">yes</text><text fill="#000000" font-family="sans-serif" font-size="11" lengthAdjust="spacing" textLength="169.9146" x="32" y="428.124">selector is "new" with no args?</text><rect fill="#F1F1F1" height="33.9688" rx="12.5" ry="12.5" style="stroke:#181818;stroke-width:0.5;" width="93.6992" x="70.1077" y="468.0264"/><text fill="#000000" font-family="sans-serif" font-size="12" lengthAdjust="spacing" textLength="73.6992" x="80.1077" y="489.165">instantiate()</text><ellipse cx="116.9573" cy="541.1084" fill="none" rx="11" ry="11" style="stroke:#222222;stroke-width:1;"/><ellipse cx="116.9573" cy="541.1084" fill="#222222" rx="6" ry="6" style="stroke:#222222;stroke-width:1;"/><polygon fill="#F1F1F1" points="245.9146,412.3159,423.6763,412.3159,435.6763,424.3159,423.6763,436.3159,245.9146,436.3159,233.9146,424.3159,245.9146,412.3159" style="stroke:#181818;stroke-width:0.5;"/><text fill="#000000" font-family="sans-serif" font-size="11" lengthAdjust="spacing" textLength="19.0083" x="338.7954" y="446.5264">yes</text><text fill="#000000" font-family="sans-serif" font-size="11" lengthAdjust="spacing" textLength="177.7617" x="245.9146" y="428.124">selector is "from:" with one arg?</text><rect fill="#F1F1F1" height="33.9688" rx="12.5" ry="12.5" style="stroke:#181818;stroke-width:0.5;" width="144.4707" x="262.5601" y="468.0264"/><text fill="#000000" font-family="sans-serif" font-size="12" lengthAdjust="spacing" textLength="124.4707" x="272.5601" y="489.165">instantiateFrom(arg)</text><ellipse cx="334.7954" cy="541.1084" fill="none" rx="11" ry="11" style="stroke:#222222;stroke-width:1;"/><ellipse cx="334.7954" cy="541.1084" fill="#222222" rx="6" ry="6" style="stroke:#222222;stroke-width:1;"/><polygon fill="#F1F1F1" points="467.6763,412.3159,699.3101,412.3159,711.3101,424.3159,699.3101,436.3159,467.6763,436.3159,455.6763,424.3159,467.6763,412.3159" style="stroke:#181818;stroke-width:0.5;"/><text fill="#000000" font-family="sans-serif" font-size="11" lengthAdjust="spacing" textLength="19.0083" x="587.4932" y="446.5264">yes</text><text fill="#000000" font-family="sans-serif" font-size="11" lengthAdjust="spacing" textLength="231.6338" x="467.6763" y="428.124">recv is String class and selector is "read"?</text><rect fill="#F1F1F1" height="33.9688" rx="12.5" ry="12.5" style="stroke:#181818;stroke-width:0.5;" width="108.7813" x="529.1025" y="468.0264"/><text fill="#000000" font-family="sans-serif" font-size="12" lengthAdjust="spacing" textLength="88.7813" x="539.1025" y="489.165">StringB::read()</text><ellipse cx="583.4932" cy="541.1084" fill="none" rx="11" ry="11" style="stroke:#222222;stroke-width:1;"/><ellipse cx="583.4932" cy="541.1084" fill="#222222" rx="6" ry="6" style="stroke:#222222;stroke-width:1;"/><polygon fill="#F1F1F1" points="343.897,356.6055,437.4131,356.6055,449.4131,368.6055,437.4131,380.6055,343.897,380.6055,331.897,368.6055,343.897,356.6055" style="stroke:#181818;stroke-width:0.5;"/><text fill="#000000" font-family="sans-serif" font-size="11" lengthAdjust="spacing" textLength="19.0083" x="394.655" y="390.8159">yes</text><text fill="#000000" font-family="sans-serif" font-size="11" lengthAdjust="spacing" textLength="93.5161" x="343.897" y="372.4136">recv is ClassDef?</text><polygon fill="#F1F1F1" points="390.655,572.1084,402.655,584.1084,390.655,596.1084,378.655,584.1084,390.655,572.1084" style="stroke:#181818;stroke-width:0.5;"/><rect fill="#F1F1F1" height="33.9688" rx="12.5" ry="12.5" style="stroke:#181818;stroke-width:0.5;" width="221.9668" x="279.6716" y="664.5107"/><text fill="#000000" font-family="sans-serif" font-size="12" lengthAdjust="spacing" textLength="201.9668" x="289.6716" y="685.6494">Fast path check for user methods</text><rect fill="#F1F1F1" height="33.9688" rx="12.5" ry="12.5" style="stroke:#181818;stroke-width:0.5;" width="130.8711" x="325.2195" y="766.8818"/><text fill="#000000" font-family="sans-serif" font-size="12" lengthAdjust="spacing" textLength="110.8711" x="335.2195" y="788.0205">Try builtin method</text><polygon fill="#F1F1F1" points="343.2605,822.8818,438.0496,822.8818,450.0496,834.8818,438.0496,846.8818,343.2605,846.8818,331.2605,834.8818,343.2605,822.8818" style="stroke:#181818;stroke-width:0.5;"/><text fill="#000000" font-family="sans-serif" font-size="11" lengthAdjust="spacing" textLength="94.7891" x="343.2605" y="838.6899">builtin succeeds?</text><text fill="#000000" font-family="sans-serif" font-size="11" lengthAdjust="spacing" textLength="19.0083" x="450.0496" y="832.2876">yes</text><ellipse cx="491.0579" cy="834.8818" fill="none" rx="11" ry="11" style="stroke:#222222;stroke-width:1;"/><ellipse cx="491.0579" cy="834.8818" fill="#222222" rx="6" ry="6" style="stroke:#222222;stroke-width:1;"/><polygon fill="#F1F1F1" points="300.6731,718.4795,480.637,718.4795,492.637,730.4795,480.637,742.4795,300.6731,742.4795,288.6731,730.4795,300.6731,718.4795" style="stroke:#181818;stroke-width:0.5;"/><text fill="#000000" font-family="sans-serif" font-size="11" lengthAdjust="spacing" textLength="13.7017" x="394.655" y="752.6899">no</text><text fill="#000000" font-family="sans-serif" font-size="11" lengthAdjust="spacing" textLength="179.9639" x="300.6731" y="734.2876">user method found in hierarchy?</text><polygon fill="#F1F1F1" points="390.655,866.8818,402.655,878.8818,390.655,890.8818,378.655,878.8818,390.655,866.8818" style="stroke:#181818;stroke-width:0.5;"/><polygon fill="#F1F1F1" points="281.4365,616.1084,499.8735,616.1084,511.8735,628.1084,499.8735,640.1084,281.4365,640.1084,269.4365,628.1084,281.4365,616.1084" style="stroke:#181818;stroke-width:0.5;"/><text fill="#000000" font-family="sans-serif" font-size="11" lengthAdjust="spacing" textLength="19.0083" x="394.655" y="650.3188">yes</text><text fill="#000000" font-family="sans-serif" font-size="11" lengthAdjust="spacing" textLength="218.437" x="281.4365" y="631.9165">no super dispatch and recv is Instance?</text><polygon fill="#F1F1F1" points="390.655,910.8818,402.655,922.8818,390.655,934.8818,378.655,922.8818,390.655,910.8818" style="stroke:#181818;stroke-width:0.5;"/><rect fill="#F1F1F1" height="33.9688" rx="12.5" ry="12.5" style="stroke:#181818;stroke-width:0.5;" width="152.4043" x="314.4529" y="954.8818"/><text fill="#000000" font-family="sans-serif" font-size="12" lengthAdjust="spacing" textLength="132.4043" x="324.4529" y="976.0205">User method dispatch</text><polygon fill="#F1F1F1" points="342.6536,1057.2529,438.6565,1057.2529,450.6565,1069.2529,438.6565,1081.2529,342.6536,1081.2529,330.6536,1069.2529,342.6536,1057.2529" style="stroke:#181818;stroke-width:0.5;"/><text fill="#000000" font-family="sans-serif" font-size="11" lengthAdjust="spacing" textLength="96.0029" x="342.6536" y="1073.061">startClass exists?</text><text fill="#000000" font-family="sans-serif" font-size="11" lengthAdjust="spacing" textLength="19.0083" x="311.6453" y="1066.6587">yes</text><text fill="#000000" font-family="sans-serif" font-size="11" lengthAdjust="spacing" textLength="13.7017" x="450.6565" y="1066.6587">no</text><rect fill="#F1F1F1" height="33.9688" rx="12.5" ry="12.5" style="stroke:#181818;stroke-width:0.5;" width="172.5254" x="208.1047" y="1091.2529"/><text fill="#000000" font-family="sans-serif" font-size="12" lengthAdjust="spacing" textLength="152.5254" x="218.1047" y="1112.3916">Start lookup at startClass</text><rect fill="#F1F1F1" height="33.9688" rx="12.5" ry="12.5" style="stroke:#181818;stroke-width:0.5;" width="172.625" x="400.6301" y="1091.2529"/><text fill="#000000" font-family="sans-serif" font-size="12" lengthAdjust="spacing" textLength="152.625" x="410.6301" y="1112.3916">Start lookup at recv.class</text><polygon fill="#F1F1F1" points="390.655,1131.2217,402.655,1143.2217,390.655,1155.2217,378.655,1143.2217,390.655,1131.2217" style="stroke:#181818;stroke-width:0.5;"/><rect fill="#F1F1F1" height="33.9688" rx="12.5" ry="12.5" style="stroke:#181818;stroke-width:0.5;" width="182.8496" x="299.2302" y="1267.624"/><text fill="#000000" font-family="sans-serif" font-size="12" lengthAdjust="spacing" textLength="162.8496" x="309.2302" y="1288.7627">invoke(recv, method, args)</text><ellipse cx="390.655" cy="1345.1084" fill="none" rx="11" ry="11" style="stroke:#222222;stroke-width:1;"/><ellipse cx="390.655" cy="1345.1084" fill="#222222" rx="6" ry="6" style="stroke:#222222;stroke-width:1;"/><polygon fill="#F1F1F1" points="348.9834,1219.2217,432.3267,1219.2217,444.3267,1231.2217,432.3267,1243.2217,348.9834,1243.2217,336.9834,1231.2217,348.9834,1219.2217" style="stroke:#181818;stroke-width:0.5;"/><text fill="#000000" font-family="sans-serif" font-size="11" lengthAdjust="spacing" textLength="19.0083" x="394.655" y="1253.4321">yes</text><text fill="#000000" font-family="sans-serif" font-size="11" lengthAdjust="spacing" textLength="83.3433" x="348.9834" y="1235.0298">method found?</text><rect fill="#F1F1F1" height="33.9688" rx="12.5" ry="12.5" style="stroke:#181818;stroke-width:0.5;" width="145.0566" x="318.1267" y="1398.1084"/><text fill="#000000" font-family="sans-serif" font-size="12" lengthAdjust="spacing" textLength="125.0566" x="328.1267" y="1419.2471">Move to parent class</text><polygon fill="#F1F1F1" points="324.5127,1175.2217,456.7974,1175.2217,468.7974,1187.2217,456.7974,1199.2217,324.5127,1199.2217,312.5127,1187.2217,324.5127,1175.2217" style="stroke:#181818;stroke-width:0.5;"/><text fill="#000000" font-family="sans-serif" font-size="11" lengthAdjust="spacing" textLength="132.2847" x="324.5127" y="1191.0298">traverse class hierarchy</text><rect fill="#F1F1F1" height="33.9688" rx="12.5" ry="12.5" style="stroke:#181818;stroke-width:0.5;" width="167.9492" x="306.6804" y="1474.0771"/><text fill="#000000" font-family="sans-serif" font-size="12" lengthAdjust="spacing" textLength="147.9492" x="316.6804" y="1495.2158">Try builtin method again</text><polygon fill="#F1F1F1" points="343.2605,1528.0459,438.0496,1528.0459,450.0496,1540.0459,438.0496,1552.0459,343.2605,1552.0459,331.2605,1540.0459,343.2605,1528.0459" style="stroke:#181818;stroke-width:0.5;"/><text fill="#000000" font-family="sans-serif" font-size="11" lengthAdjust="spacing" textLength="94.7891" x="343.2605" y="1543.854">builtin succeeds?</text><text fill="#000000" font-family="sans-serif" font-size="11" lengthAdjust="spacing" textLength="19.0083" x="450.0496" y="1537.4517">yes</text><ellipse cx="491.0579" cy="1540.0459" fill="none" rx="11" ry="11" style="stroke:#222222;stroke-width:1;"/><ellipse cx="491.0579" cy="1540.0459" fill="#222222" rx="6" ry="6" style="stroke:#222222;stroke-width:1;"/><rect fill="#F1F1F1" height="33.9688" rx="12.5" ry="12.5" style="stroke:#181818;stroke-width:0.5;" width="179.6738" x="300.8181" y="1640.4482"/><text fill="#000000" font-family="sans-serif" font-size="12" lengthAdjust="spacing" textLength="159.6738" x="310.8181" y="1661.5869">Check for method collision</text><rect fill="#F1F1F1" height="33.9688" rx="12.5" ry="12.5" style="stroke:#181818;stroke-width:0.5;" width="95.8613" x="342.7244" y="1694.417"/><text fill="#000000" font-family="sans-serif" font-size="12" lengthAdjust="spacing" textLength="75.8613" x="352.7244" y="1715.5557">Set attribute</text><rect fill="#F1F1F1" height="33.9688" rx="12.5" ry="12.5" style="stroke:#181818;stroke-width:0.5;" width="90.4004" x="345.4548" y="1756.9014"/><text fill="#000000" font-family="sans-serif" font-size="12" lengthAdjust="spacing" textLength="70.4004" x="355.4548" y="1778.04">Return recv</text><ellipse cx="390.655" cy="1821.8701" fill="none" rx="11" ry="11" style="stroke:#222222;stroke-width:1;"/><ellipse cx="390.655" cy="1821.8701" fill="#222222" rx="6" ry="6" style="stroke:#222222;stroke-width:1;"/><polygon fill="#F1F1F1" points="301.1028,1592.0459,480.2073,1592.0459,492.2073,1604.0459,480.2073,1616.0459,301.1028,1616.0459,289.1028,1604.0459,301.1028,1592.0459" style="stroke:#181818;stroke-width:0.5;"/><text fill="#000000" font-family="sans-serif" font-size="11" lengthAdjust="spacing" textLength="19.0083" x="394.655" y="1626.2563">yes</text><text fill="#000000" font-family="sans-serif" font-size="11" lengthAdjust="spacing" textLength="179.1045" x="301.1028" y="1607.854">attr setter? selector ends with ':'</text><rect fill="#F1F1F1" height="33.9688" rx="12.5" ry="12.5" style="stroke:#181818;stroke-width:0.5;" width="122.6738" x="329.3181" y="1971.6748"/><text fill="#000000" font-family="sans-serif" font-size="12" lengthAdjust="spacing" textLength="102.6738" x="339.3181" y="1992.8135">Return attr value</text><ellipse cx="390.655" cy="2045.1592" fill="none" rx="11" ry="11" style="stroke:#222222;stroke-width:1;"/><ellipse cx="390.655" cy="2045.1592" fill="#222222" rx="6" ry="6" style="stroke:#222222;stroke-width:1;"/><polygon fill="#F1F1F1" points="359.9888,1923.2725,421.3213,1923.2725,433.3213,1935.2725,421.3213,1947.2725,359.9888,1947.2725,347.9888,1935.2725,359.9888,1923.2725" style="stroke:#181818;stroke-width:0.5;"/><text fill="#000000" font-family="sans-serif" font-size="11" lengthAdjust="spacing" textLength="19.0083" x="394.655" y="1957.4829">yes</text><text fill="#000000" font-family="sans-serif" font-size="11" lengthAdjust="spacing" textLength="61.3325" x="359.9888" y="1939.0806">attr exists?</text><polygon fill="#F1F1F1" points="359.21,1874.8701,422.1001,1874.8701,434.1001,1886.8701,422.1001,1898.8701,359.21,1898.8701,347.21,1886.8701,359.21,1874.8701" style="stroke:#181818;stroke-width:0.5;"/><text fill="#000000" font-family="sans-serif" font-size="11" lengthAdjust="spacing" textLength="19.0083" x="394.655" y="1909.0806">yes</text><text fill="#000000" font-family="sans-serif" font-size="11" lengthAdjust="spacing" textLength="62.8901" x="359.21" y="1890.6782">attr getter?</text><polygon fill="#F1F1F1" points="390.655,2098.1592,402.655,2110.1592,390.655,2122.1592,378.655,2110.1592,390.655,2098.1592" style="stroke:#181818;stroke-width:0.5;"/><polygon fill="#F1F1F1" points="344.5281,1008.8506,436.782,1008.8506,448.782,1020.8506,436.782,1032.8506,344.5281,1032.8506,332.5281,1020.8506,344.5281,1008.8506" style="stroke:#181818;stroke-width:0.5;"/><text fill="#000000" font-family="sans-serif" font-size="11" lengthAdjust="spacing" textLength="19.0083" x="394.655" y="1043.061">yes</text><text fill="#000000" font-family="sans-serif" font-size="11" lengthAdjust="spacing" textLength="92.2539" x="344.5281" y="1024.6587">recv is Instance?</text><polygon fill="#F1F1F1" points="390.655,2142.1592,402.655,2154.1592,390.655,2166.1592,378.655,2154.1592,390.655,2142.1592" style="stroke:#181818;stroke-width:0.5;"/><rect fill="#F1F1F1" height="33.9688" rx="12.5" ry="12.5" style="stroke:#181818;stroke-width:0.5;" width="163.9414" x="308.6843" y="2186.1592"/><text fill="#000000" font-family="sans-serif" font-size="12" lengthAdjust="spacing" textLength="143.9414" x="318.6843" y="2207.2979">Throw MethodNotFound</text><ellipse cx="390.655" cy="2251.1279" fill="none" rx="11" ry="11" style="stroke:#222222;stroke-width:1;"/><ellipse cx="390.655" cy="2251.1279" fill="#222222" rx="6" ry="6" style="stroke:#222222;stroke-width:1;"/><line style="stroke:#181818;stroke-width:1;" x1="390.655" x2="390.655" y1="67.2969" y2="87.2969"/><polygon fill="#181818" points="386.655,77.2969,390.655,87.2969,394.655,77.2969,390.655,81.2969" style="stroke:#181818;stroke-width:1;"/><line style="stroke:#181818;stroke-width:1;" x1="390.655" x2="390.655" y1="223.6367" y2="258.6367"/><polygon fill="#181818" points="386.655,248.6367,390.655,258.6367,394.655,248.6367,390.655,252.6367" style="stroke:#181818;stroke-width:1;"/><line style="stroke:#181818;stroke-width:1;" x1="390.655" x2="390.655" y1="165.2656" y2="189.668"/><polygon fill="#181818" points="386.655,179.668,390.655,189.668,394.655,179.668,390.655,183.668" style="stroke:#181818;stroke-width:1;"/><line style="stroke:#181818;stroke-width:1;" x1="456.9541" x2="468.9541" y1="153.2656" y2="153.2656"/><polygon fill="#181818" points="464.9541,231.1367,468.9541,241.1367,472.9541,231.1367,468.9541,235.1367" style="stroke:#181818;stroke-width:1;"/><line style="stroke:#181818;stroke-width:1;" x1="468.9541" x2="468.9541" y1="153.2656" y2="324.6055"/><line style="stroke:#181818;stroke-width:1;" x1="468.9541" x2="402.655" y1="324.6055" y2="324.6055"/><polygon fill="#181818" points="412.655,320.6055,402.655,324.6055,412.655,328.6055,408.655,324.6055" style="stroke:#181818;stroke-width:1;"/><line style="stroke:#181818;stroke-width:1;" x1="390.655" x2="390.655" y1="292.6055" y2="312.6055"/><polygon fill="#181818" points="386.655,302.6055,390.655,312.6055,394.655,302.6055,390.655,306.6055" style="stroke:#181818;stroke-width:1;"/><line style="stroke:#181818;stroke-width:1;" x1="390.655" x2="390.655" y1="121.2656" y2="141.2656"/><polygon fill="#181818" points="386.655,131.2656,390.655,141.2656,394.655,131.2656,390.655,135.2656" style="stroke:#181818;stroke-width:1;"/><line style="stroke:#181818;stroke-width:1;" x1="116.9573" x2="116.9573" y1="501.9951" y2="530.1084"/><polygon fill="#181818" points="112.9573,520.1084,116.9573,530.1084,120.9573,520.1084,116.9573,524.1084" style="stroke:#181818;stroke-width:1;"/><line style="stroke:#181818;stroke-width:1;" x1="334.7954" x2="334.7954" y1="501.9951" y2="530.1084"/><polygon fill="#181818" points="330.7954,520.1084,334.7954,530.1084,338.7954,520.1084,334.7954,524.1084" style="stroke:#181818;stroke-width:1;"/><line style="stroke:#181818;stroke-width:1;" x1="583.4932" x2="583.4932" y1="501.9951" y2="530.1084"/><polygon fill="#181818" points="579.4932,520.1084,583.4932,530.1084,587.4932,520.1084,583.4932,524.1084" style="stroke:#181818;stroke-width:1;"/><line style="stroke:#181818;stroke-width:1;" x1="116.9573" x2="116.9573" y1="436.3159" y2="468.0264"/><polygon fill="#181818" points="112.9573,458.0264,116.9573,468.0264,120.9573,458.0264,116.9573,462.0264" style="stroke:#181818;stroke-width:1;"/><line style="stroke:#181818;stroke-width:1;" x1="334.7954" x2="334.7954" y1="436.3159" y2="468.0264"/><polygon fill="#181818" points="330.7954,458.0264,334.7954,468.0264,338.7954,458.0264,334.7954,462.0264" style="stroke:#181818;stroke-width:1;"/><line style="stroke:#181818;stroke-width:1;" x1="583.4932" x2="583.4932" y1="436.3159" y2="468.0264"/><polygon fill="#181818" points="579.4932,458.0264,583.4932,468.0264,587.4932,458.0264,583.4932,462.0264" style="stroke:#181818;stroke-width:1;"/><line style="stroke:#181818;stroke-width:1;" x1="213.9146" x2="233.9146" y1="424.3159" y2="424.3159"/><polygon fill="#181818" points="223.9146,420.3159,233.9146,424.3159,223.9146,428.3159,227.9146,424.3159" style="stroke:#181818;stroke-width:1;"/><line style="stroke:#181818;stroke-width:1;" x1="435.6763" x2="455.6763" y1="424.3159" y2="424.3159"/><polygon fill="#181818" points="445.6763,420.3159,455.6763,424.3159,445.6763,428.3159,449.6763,424.3159" style="stroke:#181818;stroke-width:1;"/><line style="stroke:#181818;stroke-width:1;" x1="390.655" x2="390.655" y1="380.6055" y2="397.3159"/><line style="stroke:#181818;stroke-width:1;" x1="390.655" x2="116.9573" y1="397.3159" y2="397.3159"/><line style="stroke:#181818;stroke-width:1;" x1="116.9573" x2="116.9573" y1="397.3159" y2="412.3159"/><polygon fill="#181818" points="112.9573,402.3159,116.9573,412.3159,120.9573,402.3159,116.9573,406.3159" style="stroke:#181818;stroke-width:1;"/><line style="stroke:#181818;stroke-width:1;" x1="711.3101" x2="716.3101" y1="424.3159" y2="424.3159"/><line style="stroke:#181818;stroke-width:1;" x1="716.3101" x2="716.3101" y1="424.3159" y2="557.1084"/><line style="stroke:#181818;stroke-width:1;" x1="716.3101" x2="390.655" y1="557.1084" y2="557.1084"/><line style="stroke:#181818;stroke-width:1;" x1="390.655" x2="390.655" y1="557.1084" y2="572.1084"/><polygon fill="#181818" points="386.655,562.1084,390.655,572.1084,394.655,562.1084,390.655,566.1084" style="stroke:#181818;stroke-width:1;"/><line style="stroke:#181818;stroke-width:1;" x1="449.4131" x2="725.3101" y1="368.6055" y2="368.6055"/><polygon fill="#181818" points="721.3101,500.1084,725.3101,510.1084,729.3101,500.1084,725.3101,504.1084" style="stroke:#181818;stroke-width:1;"/><line style="stroke:#181818;stroke-width:1;" x1="725.3101" x2="725.3101" y1="368.6055" y2="584.1084"/><line style="stroke:#181818;stroke-width:1;" x1="725.3101" x2="402.655" y1="584.1084" y2="584.1084"/><polygon fill="#181818" points="412.655,580.1084,402.655,584.1084,412.655,588.1084,408.655,584.1084" style="stroke:#181818;stroke-width:1;"/><line style="stroke:#181818;stroke-width:1;" x1="390.655" x2="390.655" y1="336.6055" y2="356.6055"/><polygon fill="#181818" points="386.655,346.6055,390.655,356.6055,394.655,346.6055,390.655,350.6055" style="stroke:#181818;stroke-width:1;"/><line style="stroke:#181818;stroke-width:1;" x1="390.655" x2="390.655" y1="846.8818" y2="866.8818"/><polygon fill="#181818" points="386.655,856.8818,390.655,866.8818,394.655,856.8818,390.655,860.8818" style="stroke:#181818;stroke-width:1;"/><line style="stroke:#181818;stroke-width:1;" x1="450.0496" x2="480.0579" y1="834.8818" y2="834.8818"/><polygon fill="#181818" points="470.0579,830.8818,480.0579,834.8818,470.0579,838.8818,474.0579,834.8818" style="stroke:#181818;stroke-width:1;"/><line style="stroke:#181818;stroke-width:1;" x1="390.655" x2="390.655" y1="800.8506" y2="822.8818"/><polygon fill="#181818" points="386.655,812.8818,390.655,822.8818,394.655,812.8818,390.655,816.8818" style="stroke:#181818;stroke-width:1;"/><line style="stroke:#181818;stroke-width:1;" x1="390.655" x2="390.655" y1="742.4795" y2="766.8818"/><polygon fill="#181818" points="386.655,756.8818,390.655,766.8818,394.655,756.8818,390.655,760.8818" style="stroke:#181818;stroke-width:1;"/><line style="stroke:#181818;stroke-width:1;" x1="492.637" x2="524.0579" y1="730.4795" y2="730.4795"/><polygon fill="#181818" points="520.0579,814.3975,524.0579,824.3975,528.0579,814.3975,524.0579,818.3975" style="stroke:#181818;stroke-width:1;"/><line style="stroke:#181818;stroke-width:1;" x1="524.0579" x2="524.0579" y1="730.4795" y2="878.8818"/><line style="stroke:#181818;stroke-width:1;" x1="524.0579" x2="402.655" y1="878.8818" y2="878.8818"/><polygon fill="#181818" points="412.655,874.8818,402.655,878.8818,412.655,882.8818,408.655,878.8818" style="stroke:#181818;stroke-width:1;"/><line style="stroke:#181818;stroke-width:1;" x1="390.655" x2="390.655" y1="698.4795" y2="718.4795"/><polygon fill="#181818" points="386.655,708.4795,390.655,718.4795,394.655,708.4795,390.655,712.4795" style="stroke:#181818;stroke-width:1;"/><line style="stroke:#181818;stroke-width:1;" x1="390.655" x2="390.655" y1="640.1084" y2="664.5107"/><polygon fill="#181818" points="386.655,654.5107,390.655,664.5107,394.655,654.5107,390.655,658.5107" style="stroke:#181818;stroke-width:1;"/><line style="stroke:#181818;stroke-width:1;" x1="511.8735" x2="546.0579" y1="628.1084" y2="628.1084"/><polygon fill="#181818" points="542.0579,792.8818,546.0579,802.8818,550.0579,792.8818,546.0579,796.8818" style="stroke:#181818;stroke-width:1;"/><line style="stroke:#181818;stroke-width:1;" x1="546.0579" x2="546.0579" y1="628.1084" y2="922.8818"/><line style="stroke:#181818;stroke-width:1;" x1="546.0579" x2="402.655" y1="922.8818" y2="922.8818"/><polygon fill="#181818" points="412.655,918.8818,402.655,922.8818,412.655,926.8818,408.655,922.8818" style="stroke:#181818;stroke-width:1;"/><line style="stroke:#181818;stroke-width:1;" x1="390.655" x2="390.655" y1="890.8818" y2="910.8818"/><polygon fill="#181818" points="386.655,900.8818,390.655,910.8818,394.655,900.8818,390.655,904.8818" style="stroke:#181818;stroke-width:1;"/><line style="stroke:#181818;stroke-width:1;" x1="390.655" x2="390.655" y1="596.1084" y2="616.1084"/><polygon fill="#181818" points="386.655,606.1084,390.655,616.1084,394.655,606.1084,390.655,610.1084" style="stroke:#181818;stroke-width:1;"/><line style="stroke:#181818;stroke-width:1;" x1="390.655" x2="390.655" y1="934.8818" y2="954.8818"/><polygon fill="#181818" points="386.655,944.8818,390.655,954.8818,394.655,944.8818,390.655,948.8818" style="stroke:#181818;stroke-width:1;"/><line style="stroke:#181818;stroke-width:1;" x1="330.6536" x2="294.3674" y1="1069.2529" y2="1069.2529"/><line style="stroke:#181818;stroke-width:1;" x1="294.3674" x2="294.3674" y1="1069.2529" y2="1091.2529"/><polygon fill="#181818" points="290.3674,1081.2529,294.3674,1091.2529,298.3674,1081.2529,294.3674,1085.2529" style="stroke:#181818;stroke-width:1;"/><line style="stroke:#181818;stroke-width:1;" x1="450.6565" x2="486.9426" y1="1069.2529" y2="1069.2529"/><line style="stroke:#181818;stroke-width:1;" x1="486.9426" x2="486.9426" y1="1069.2529" y2="1091.2529"/><polygon fill="#181818" points="482.9426,1081.2529,486.9426,1091.2529,490.9426,1081.2529,486.9426,1085.2529" style="stroke:#181818;stroke-width:1;"/><line style="stroke:#181818;stroke-width:1;" x1="294.3674" x2="294.3674" y1="1125.2217" y2="1143.2217"/><line style="stroke:#181818;stroke-width:1;" x1="294.3674" x2="378.655" y1="1143.2217" y2="1143.2217"/><polygon fill="#181818" points="368.655,1139.2217,378.655,1143.2217,368.655,1147.2217,372.655,1143.2217" style="stroke:#181818;stroke-width:1;"/><line style="stroke:#181818;stroke-width:1;" x1="486.9426" x2="486.9426" y1="1125.2217" y2="1143.2217"/><line style="stroke:#181818;stroke-width:1;" x1="486.9426" x2="402.655" y1="1143.2217" y2="1143.2217"/><polygon fill="#181818" points="412.655,1139.2217,402.655,1143.2217,412.655,1147.2217,408.655,1143.2217" style="stroke:#181818;stroke-width:1;"/><line style="stroke:#181818;stroke-width:1;" x1="390.655" x2="390.655" y1="1301.5928" y2="1334.1084"/><polygon fill="#181818" points="386.655,1324.1084,390.655,1334.1084,394.655,1324.1084,390.655,1328.1084" style="stroke:#181818;stroke-width:1;"/><line style="stroke:#181818;stroke-width:1;" x1="390.655" x2="390.655" y1="1243.2217" y2="1267.624"/><polygon fill="#181818" points="386.655,1257.624,390.655,1267.624,394.655,1257.624,390.655,1261.624" style="stroke:#181818;stroke-width:1;"/><line style="stroke:#181818;stroke-width:1;" x1="444.3267" x2="492.0798" y1="1231.2217" y2="1231.2217"/><polygon fill="#181818" points="488.0798,1300.1084,492.0798,1310.1084,496.0798,1300.1084,492.0798,1304.1084" style="stroke:#181818;stroke-width:1;"/><line style="stroke:#181818;stroke-width:1;" x1="492.0798" x2="492.0798" y1="1231.2217" y2="1378.1084"/><line style="stroke:#181818;stroke-width:1;" x1="492.0798" x2="390.655" y1="1378.1084" y2="1378.1084"/><line style="stroke:#181818;stroke-width:1;" x1="390.655" x2="390.655" y1="1378.1084" y2="1398.1084"/><polygon fill="#181818" points="386.655,1388.1084,390.655,1398.1084,394.655,1388.1084,390.655,1392.1084" style="stroke:#181818;stroke-width:1;"/><line style="stroke:#181818;stroke-width:1;" x1="390.655" x2="390.655" y1="1199.2217" y2="1219.2217"/><polygon fill="#181818" points="386.655,1209.2217,390.655,1219.2217,394.655,1209.2217,390.655,1213.2217" style="stroke:#181818;stroke-width:1;"/><line style="stroke:#181818;stroke-width:1;" x1="390.655" x2="390.655" y1="1432.0771" y2="1442.0771"/><line style="stroke:#181818;stroke-width:1;" x1="390.655" x2="516.0798" y1="1442.0771" y2="1442.0771"/><polygon fill="#181818" points="512.0798,1334.1084,516.0798,1324.1084,520.0798,1334.1084,516.0798,1330.1084" style="stroke:#181818;stroke-width:1;"/><line style="stroke:#181818;stroke-width:1;" x1="516.0798" x2="516.0798" y1="1187.2217" y2="1442.0771"/><line style="stroke:#181818;stroke-width:1;" x1="516.0798" x2="468.7974" y1="1187.2217" y2="1187.2217"/><polygon fill="#181818" points="478.7974,1183.2217,468.7974,1187.2217,478.7974,1191.2217,474.7974,1187.2217" style="stroke:#181818;stroke-width:1;"/><line style="stroke:#181818;stroke-width:1;" x1="312.5127" x2="277.2302" y1="1187.2217" y2="1187.2217"/><polygon fill="#181818" points="273.2302,1320.1084,277.2302,1330.1084,281.2302,1320.1084,277.2302,1324.1084" style="stroke:#181818;stroke-width:1;"/><line style="stroke:#181818;stroke-width:1;" x1="277.2302" x2="277.2302" y1="1187.2217" y2="1454.0771"/><line style="stroke:#181818;stroke-width:1;" x1="277.2302" x2="390.655" y1="1454.0771" y2="1454.0771"/><line style="stroke:#181818;stroke-width:1;" x1="390.655" x2="390.655" y1="1454.0771" y2="1474.0771"/><polygon fill="#181818" points="386.655,1464.0771,390.655,1474.0771,394.655,1464.0771,390.655,1468.0771" style="stroke:#181818;stroke-width:1;"/><line style="stroke:#181818;stroke-width:1;" x1="390.655" x2="390.655" y1="1155.2217" y2="1175.2217"/><polygon fill="#181818" points="386.655,1165.2217,390.655,1175.2217,394.655,1165.2217,390.655,1169.2217" style="stroke:#181818;stroke-width:1;"/><line style="stroke:#181818;stroke-width:1;" x1="390.655" x2="390.655" y1="1552.0459" y2="1592.0459"/><polygon fill="#181818" points="386.655,1582.0459,390.655,1592.0459,394.655,1582.0459,390.655,1586.0459" style="stroke:#181818;stroke-width:1;"/><line style="stroke:#181818;stroke-width:1;" x1="450.0496" x2="480.0579" y1="1540.0459" y2="1540.0459"/><polygon fill="#181818" points="470.0579,1536.0459,480.0579,1540.0459,470.0579,1544.0459,474.0579,1540.0459" style="stroke:#181818;stroke-width:1;"/><line style="stroke:#181818;stroke-width:1;" x1="390.655" x2="390.655" y1="1508.0459" y2="1528.0459"/><polygon fill="#181818" points="386.655,1518.0459,390.655,1528.0459,394.655,1518.0459,390.655,1522.0459" style="stroke:#181818;stroke-width:1;"/><line style="stroke:#181818;stroke-width:1;" x1="390.655" x2="390.655" y1="1674.417" y2="1694.417"/><polygon fill="#181818" points="386.655,1684.417,390.655,1694.417,394.655,1684.417,390.655,1688.417" style="stroke:#181818;stroke-width:1;"/><line style="stroke:#181818;stroke-width:1;" x1="390.655" x2="390.655" y1="1728.3857" y2="1756.9014"/><polygon fill="#181818" points="386.655,1746.9014,390.655,1756.9014,394.655,1746.9014,390.655,1750.9014" style="stroke:#181818;stroke-width:1;"/><line style="stroke:#181818;stroke-width:1;" x1="390.655" x2="390.655" y1="1790.8701" y2="1810.8701"/><polygon fill="#181818" points="386.655,1800.8701,390.655,1810.8701,394.655,1800.8701,390.655,1804.8701" style="stroke:#181818;stroke-width:1;"/><line style="stroke:#181818;stroke-width:1;" x1="390.655" x2="390.655" y1="1616.0459" y2="1640.4482"/><polygon fill="#181818" points="386.655,1630.4482,390.655,1640.4482,394.655,1630.4482,390.655,1634.4482" style="stroke:#181818;stroke-width:1;"/><line style="stroke:#181818;stroke-width:1;" x1="492.2073" x2="504.2073" y1="1604.0459" y2="1604.0459"/><polygon fill="#181818" points="500.2073,1726.9014,504.2073,1736.9014,508.2073,1726.9014,504.2073,1730.9014" style="stroke:#181818;stroke-width:1;"/><line style="stroke:#181818;stroke-width:1;" x1="504.2073" x2="504.2073" y1="1604.0459" y2="1854.8701"/><line style="stroke:#181818;stroke-width:1;" x1="504.2073" x2="390.655" y1="1854.8701" y2="1854.8701"/><line style="stroke:#181818;stroke-width:1;" x1="390.655" x2="390.655" y1="1854.8701" y2="1874.8701"/><polygon fill="#181818" points="386.655,1864.8701,390.655,1874.8701,394.655,1864.8701,390.655,1868.8701" style="stroke:#181818;stroke-width:1;"/><line style="stroke:#181818;stroke-width:1;" x1="390.655" x2="390.655" y1="2005.6436" y2="2034.1592"/><polygon fill="#181818" points="386.655,2024.1592,390.655,2034.1592,394.655,2024.1592,390.655,2028.1592" style="stroke:#181818;stroke-width:1;"/><line style="stroke:#181818;stroke-width:1;" x1="390.655" x2="390.655" y1="1947.2725" y2="1971.6748"/><polygon fill="#181818" points="386.655,1961.6748,390.655,1971.6748,394.655,1961.6748,390.655,1965.6748" style="stroke:#181818;stroke-width:1;"/><line style="stroke:#181818;stroke-width:1;" x1="433.3213" x2="461.9919" y1="1935.2725" y2="1935.2725"/><polygon fill="#181818" points="457.9919,2004.1592,461.9919,2014.1592,465.9919,2004.1592,461.9919,2008.1592" style="stroke:#181818;stroke-width:1;"/><line style="stroke:#181818;stroke-width:1;" x1="461.9919" x2="461.9919" y1="1935.2725" y2="2078.1592"/><line style="stroke:#181818;stroke-width:1;" x1="461.9919" x2="390.655" y1="2078.1592" y2="2078.1592"/><line style="stroke:#181818;stroke-width:1;" x1="390.655" x2="390.655" y1="2078.1592" y2="2098.1592"/><polygon fill="#181818" points="386.655,2088.1592,390.655,2098.1592,394.655,2088.1592,390.655,2092.1592" style="stroke:#181818;stroke-width:1;"/><line style="stroke:#181818;stroke-width:1;" x1="390.655" x2="390.655" y1="1898.8701" y2="1923.2725"/><polygon fill="#181818" points="386.655,1913.2725,390.655,1923.2725,394.655,1913.2725,390.655,1917.2725" style="stroke:#181818;stroke-width:1;"/><line style="stroke:#181818;stroke-width:1;" x1="434.1001" x2="483.9919" y1="1886.8701" y2="1886.8701"/><polygon fill="#181818" points="479.9919,1998.1592,483.9919,2008.1592,487.9919,1998.1592,483.9919,2002.1592" style="stroke:#181818;stroke-width:1;"/><line style="stroke:#181818;stroke-width:1;" x1="483.9919" x2="483.9919" y1="1886.8701" y2="2110.1592"/><line style="stroke:#181818;stroke-width:1;" x1="483.9919" x2="402.655" y1="2110.1592" y2="2110.1592"/><polygon fill="#181818" points="412.655,2106.1592,402.655,2110.1592,412.655,2114.1592,408.655,2110.1592" style="stroke:#181818;stroke-width:1;"/><line style="stroke:#181818;stroke-width:1;" x1="390.655" x2="390.655" y1="1032.8506" y2="1057.2529"/><polygon fill="#181818" points="386.655,1047.2529,390.655,1057.2529,394.655,1047.2529,390.655,1051.2529" style="stroke:#181818;stroke-width:1;"/><line style="stroke:#181818;stroke-width:1;" x1="448.782" x2="593.2551" y1="1020.8506" y2="1020.8506"/><polygon fill="#181818" points="589.2551,1562.0459,593.2551,1572.0459,597.2551,1562.0459,593.2551,1566.0459" style="stroke:#181818;stroke-width:1;"/><line style="stroke:#181818;stroke-width:1;" x1="593.2551" x2="593.2551" y1="1020.8506" y2="2154.1592"/><line style="stroke:#181818;stroke-width:1;" x1="593.2551" x2="402.655" y1="2154.1592" y2="2154.1592"/><polygon fill="#181818" points="412.655,2150.1592,402.655,2154.1592,412.655,2158.1592,408.655,2154.1592" style="stroke:#181818;stroke-width:1;"/><line style="stroke:#181818;stroke-width:1;" x1="390.655" x2="390.655" y1="2122.1592" y2="2142.1592"/><polygon fill="#181818" points="386.655,2132.1592,390.655,2142.1592,394.655,2132.1592,390.655,2136.1592" style="stroke:#181818;stroke-width:1;"/><line style="stroke:#181818;stroke-width:1;" x1="390.655" x2="390.655" y1="988.8506" y2="1008.8506"/><polygon fill="#181818" points="386.655,998.8506,390.655,1008.8506,394.655,998.8506,390.655,1002.8506" style="stroke:#181818;stroke-width:1;"/><line style="stroke:#181818;stroke-width:1;" x1="390.655" x2="390.655" y1="2166.1592" y2="2186.1592"/><polygon fill="#181818" points="386.655,2176.1592,390.655,2186.1592,394.655,2176.1592,390.655,2180.1592" style="stroke:#181818;stroke-width:1;"/><line style="stroke:#181818;stroke-width:1;" x1="390.655" x2="390.655" y1="2220.1279" y2="2240.1279"/><polygon fill="#181818" points="386.655,2230.1279,390.655,2240.1279,394.655,2230.1279,390.655,2234.1279" style="stroke:#181818;stroke-width:1;"/><!--SRC=[ZLJBRkCm3BpxAuXScW35Ve1zAB3j1jX35qMt_G1LPcmXhXI8j9ty_LBo8uxZj0i4QC0EXyCPAcouGdX68bNWaw63ObsYJrD2cyEsScsI42lFIUfHesbmBN-RUo2iKBFpzw1yGPiiISmEul_04Foj3-XVl3kU7ZR09LfOdv0s2K3wwyXUQOR8-bWfeYoKtsthrG6aM21dYKmtkqlEY7t2tPmnO0Or0RUosAwWDLo2TL7Tl4F66IlpBHl5kDvaiKRi3l85Ay8hofrtdsbFwYm6rgz9jzAm5jGozsWJUsCBq64pK6BunL2FAbyjZEcwVgPf0CpLHzycxea55CA0l0ytpXa4_8wADLwbj5N48FWIv1pq7dQYgIQX-KGkNHup2_IJcc1geJOMIeDUULsUmxUkr_xcJ_1Hcue5rhLryWFNKATQQyHy8RPnpM7HsSBf-qJEi71sSKMtDewHZoS9U3J4j6Y-OA1oRbyVGCtFE0GysNOE3Y9-w17Sho2VjZJo3DVoCXhqGj5TnEZZPlHeQlMIFtA3ZTiFZxH3Zq_qXeNIzUmQ17QIk4VBC9KOfNKg5z83LIXZXsluFi6BC-sx5BENosT6_t1-0GAXxi7TfNVNEJoEPzaBqQwg31bdizvxP0ZCvgDcx6kloBMtCORiQpb59-TgxWYuTI3dAH7MgAh6xF-EzwtqhfNVuh3E7yVRa76MXAP_]--></g></svg>