<svg xmlns="http://www.w3.org/2000/svg" xmlns:xlink="http://www.w3.org/1999/xlink" contentStyleType="text/css" data-diagram-type="ACTIVITY" height="1857px" preserveAspectRatio="none" style="width:565px;height:1857px;background:#FFFFFF;" version="1.1" viewBox="0 0 565 1857" width="565px" zoomAndPan="magnify"><title>MessageDispatcher::send Flow</title><defs/><g><g class="title" data-source-line="1"><text fill="#000000" font-family="sans-serif" font-size="14" font-weight="bold" lengthAdjust="spacing" textLength="245.4375" x="158.5015" y="32.9951">MessageDispatcher::send Flow</text></g><ellipse cx="297.7202" cy="57.2969" fill="#222222" rx="10" ry="10" style="stroke:#222222;stroke-width:1;"/><rect fill="#F1F1F1" height="33.9688" rx="12.5" ry="12.5" style="stroke:#181818;stroke-width:0.5;" width="126.3125" x="234.564" y="135.6992"/><text fill="#000000" font-family="sans-serif" font-size="12" lengthAdjust="spacing" textLength="106.3125" x="244.564" y="156.8379">Extract startClass</text><rect fill="#F1F1F1" height="33.9688" rx="12.5" ry="12.5" style="stroke:#181818;stroke-width:0.5;" width="106.6191" x="244.4106" y="204.668"/><text fill="#000000" font-family="sans-serif" font-size="12" lengthAdjust="spacing" textLength="86.6191" x="254.4106" y="225.8066">Unwrap target</text><polygon fill="#F1F1F1" points="243.4211,87.2969,352.0193,87.2969,364.0193,99.2969,352.0193,111.2969,243.4211,111.2969,231.4211,99.2969,243.4211,87.2969" style="stroke:#181818;stroke-width:0.5;"/><text fill="#000000" font-family="sans-serif" font-size="11" lengthAdjust="spacing" textLength="19.0083" x="301.7202" y="121.5073">yes</text><text fill="#000000" font-family="sans-serif" font-size="11" lengthAdjust="spacing" textLength="108.5981" x="243.4211" y="103.105">recv is SuperProxy?</text><polygon fill="#F1F1F1" points="297.7202,258.6367,309.7202,270.6367,297.7202,282.6367,285.7202,270.6367,297.7202,258.6367" style="stroke:#181818;stroke-width:0.5;"/><polygon fill="#F1F1F1" points="32,358.3472,130.4092,358.3472,142.4092,370.3472,130.4092,382.3472,32,382.3472,20,370.3472,32,358.3472" style="stroke:#181818;stroke-width:0.5;"/><text fill="#000000" font-family="sans-serif" font-size="11" lengthAdjust="spacing" textLength="19.0083" x="85.2046" y="392.5576">yes</text><text fill="#000000" font-family="sans-serif" font-size="11" lengthAdjust="spacing" textLength="98.4092" x="32" y="374.1553">selector is "new"?</text><rect fill="#F1F1F1" height="33.9688" rx="12.5" ry="12.5" style="stroke:#181818;stroke-width:0.5;" width="93.6992" x="34.355" y="414.0576"/><text fill="#000000" font-family="sans-serif" font-size="12" lengthAdjust="spacing" textLength="73.6992" x="44.355" y="435.1963">instantiate()</text><ellipse cx="81.2046" cy="487.1396" fill="none" rx="11" ry="11" style="stroke:#222222;stroke-width:1;"/><ellipse cx="81.2046" cy="487.1396" fill="#222222" rx="6" ry="6" style="stroke:#222222;stroke-width:1;"/><polygon fill="#F1F1F1" points="182.0347,358.3472,287.2544,358.3472,299.2544,370.3472,287.2544,382.3472,182.0347,382.3472,170.0347,370.3472,182.0347,358.3472" style="stroke:#181818;stroke-width:0.5;"/><text fill="#000000" font-family="sans-serif" font-size="11" lengthAdjust="spacing" textLength="19.0083" x="238.6445" y="392.5576">yes</text><text fill="#000000" font-family="sans-serif" font-size="11" lengthAdjust="spacing" textLength="105.2197" x="182.0347" y="374.1553">selector is "from:"?</text><rect fill="#F1F1F1" height="33.9688" rx="12.5" ry="12.5" style="stroke:#181818;stroke-width:0.5;" width="144.4707" x="162.4092" y="414.0576"/><text fill="#000000" font-family="sans-serif" font-size="12" lengthAdjust="spacing" textLength="124.4707" x="172.4092" y="435.1963">instantiateFrom(arg)</text><ellipse cx="234.6445" cy="487.1396" fill="none" rx="11" ry="11" style="stroke:#222222;stroke-width:1;"/><ellipse cx="234.6445" cy="487.1396" fill="#222222" rx="6" ry="6" style="stroke:#222222;stroke-width:1;"/><polygon fill="#F1F1F1" points="338.8799,358.3472,513.4404,358.3472,525.4404,370.3472,513.4404,382.3472,338.8799,382.3472,326.8799,370.3472,338.8799,358.3472" style="stroke:#181818;stroke-width:0.5;"/><text fill="#000000" font-family="sans-serif" font-size="11" lengthAdjust="spacing" textLength="19.0083" x="430.1602" y="392.5576">yes</text><text fill="#000000" font-family="sans-serif" font-size="11" lengthAdjust="spacing" textLength="174.5605" x="338.8799" y="374.1553">recv is String class with "read"?</text><rect fill="#F1F1F1" height="33.9688" rx="12.5" ry="12.5" style="stroke:#181818;stroke-width:0.5;" width="108.7813" x="371.7695" y="414.0576"/><text fill="#000000" font-family="sans-serif" font-size="12" lengthAdjust="spacing" textLength="88.7813" x="381.7695" y="435.1963">StringB::read()</text><ellipse cx="426.1602" cy="487.1396" fill="none" rx="11" ry="11" style="stroke:#222222;stroke-width:1;"/><ellipse cx="426.1602" cy="487.1396" fill="#222222" rx="6" ry="6" style="stroke:#222222;stroke-width:1;"/><polygon fill="#F1F1F1" points="250.9622,302.6367,344.4783,302.6367,356.4783,314.6367,344.4783,326.6367,250.9622,326.6367,238.9622,314.6367,250.9622,302.6367" style="stroke:#181818;stroke-width:0.5;"/><text fill="#000000" font-family="sans-serif" font-size="11" lengthAdjust="spacing" textLength="19.0083" x="301.7202" y="336.8472">yes</text><text fill="#000000" font-family="sans-serif" font-size="11" lengthAdjust="spacing" textLength="93.5161" x="250.9622" y="318.4448">recv is ClassDef?</text><polygon fill="#F1F1F1" points="297.7202,518.1396,309.7202,530.1396,297.7202,542.1396,285.7202,530.1396,297.7202,518.1396" style="stroke:#181818;stroke-width:0.5;"/><rect fill="#F1F1F1" height="33.9688" rx="12.5" ry="12.5" style="stroke:#181818;stroke-width:0.5;" width="221.9668" x="186.7368" y="610.542"/><text fill="#000000" font-family="sans-serif" font-size="12" lengthAdjust="spacing" textLength="201.9668" x="196.7368" y="631.6807">Fast path check for user methods</text><polygon fill="#F1F1F1" points="242.304,664.5107,353.1365,664.5107,365.1365,676.5107,353.1365,688.5107,242.304,688.5107,230.304,676.5107,242.304,664.5107" style="stroke:#181818;stroke-width:0.5;"/><text fill="#000000" font-family="sans-serif" font-size="11" lengthAdjust="spacing" textLength="110.8325" x="242.304" y="680.3188">user method found?</text><text fill="#000000" font-family="sans-serif" font-size="11" lengthAdjust="spacing" textLength="19.0083" x="211.2957" y="673.9165">yes</text><text fill="#000000" font-family="sans-serif" font-size="11" lengthAdjust="spacing" textLength="13.7017" x="365.1365" y="673.9165">no</text><rect fill="#F1F1F1" height="33.9688" rx="12.5" ry="12.5" style="stroke:#181818;stroke-width:0.5;" width="72.1777" x="184.2151" y="698.5107"/><text fill="#000000" font-family="sans-serif" font-size="12" lengthAdjust="spacing" textLength="52.1777" x="194.2151" y="719.6494">continue</text><rect fill="#F1F1F1" height="33.9688" rx="12.5" ry="12.5" style="stroke:#181818;stroke-width:0.5;" width="130.8711" x="309.7009" y="698.5107"/><text fill="#000000" font-family="sans-serif" font-size="12" lengthAdjust="spacing" textLength="110.8711" x="319.7009" y="719.6494">Try builtin method</text><polygon fill="#F1F1F1" points="327.7419,752.5107,422.531,752.5107,434.531,764.5107,422.531,776.5107,327.7419,776.5107,315.7419,764.5107,327.7419,752.5107" style="stroke:#181818;stroke-width:0.5;"/><text fill="#000000" font-family="sans-serif" font-size="11" lengthAdjust="spacing" textLength="94.7891" x="327.7419" y="768.3188">builtin succeeds?</text><text fill="#000000" font-family="sans-serif" font-size="11" lengthAdjust="spacing" textLength="19.0083" x="434.531" y="761.9165">yes</text><ellipse cx="475.5393" cy="764.5107" fill="none" rx="11" ry="11" style="stroke:#222222;stroke-width:1;"/><ellipse cx="475.5393" cy="764.5107" fill="#222222" rx="6" ry="6" style="stroke:#222222;stroke-width:1;"/><polygon fill="#F1F1F1" points="297.7202,786.5107,309.7202,798.5107,297.7202,810.5107,285.7202,798.5107,297.7202,786.5107" style="stroke:#181818;stroke-width:0.5;"/><polygon fill="#F1F1F1" points="190.2715,562.1396,405.1689,562.1396,417.1689,574.1396,405.1689,586.1396,190.2715,586.1396,178.2715,574.1396,190.2715,562.1396" style="stroke:#181818;stroke-width:0.5;"/><text fill="#000000" font-family="sans-serif" font-size="11" lengthAdjust="spacing" textLength="19.0083" x="301.7202" y="596.3501">yes</text><text fill="#000000" font-family="sans-serif" font-size="11" lengthAdjust="spacing" textLength="214.8975" x="190.2715" y="577.9478">no super dispatch &amp;&amp; recv is Instance?</text><polygon fill="#F1F1F1" points="297.7202,830.5107,309.7202,842.5107,297.7202,854.5107,285.7202,842.5107,297.7202,830.5107" style="stroke:#181818;stroke-width:0.5;"/><rect fill="#F1F1F1" height="33.9688" rx="12.5" ry="12.5" style="stroke:#181818;stroke-width:0.5;" width="152.4043" x="221.5181" y="874.5107"/><text fill="#000000" font-family="sans-serif" font-size="12" lengthAdjust="spacing" textLength="132.4043" x="231.5181" y="895.6494">User method dispatch</text><polygon fill="#F1F1F1" points="249.7188,976.8818,345.7217,976.8818,357.7217,988.8818,345.7217,1000.8818,249.7188,1000.8818,237.7188,988.8818,249.7188,976.8818" style="stroke:#181818;stroke-width:0.5;"/><text fill="#000000" font-family="sans-serif" font-size="11" lengthAdjust="spacing" textLength="96.0029" x="249.7188" y="992.6899">startClass exists?</text><text fill="#000000" font-family="sans-serif" font-size="11" lengthAdjust="spacing" textLength="19.0083" x="218.7104" y="986.2876">yes</text><text fill="#000000" font-family="sans-serif" font-size="11" lengthAdjust="spacing" textLength="13.7017" x="357.7217" y="986.2876">no</text><rect fill="#F1F1F1" height="33.9688" rx="12.5" ry="12.5" style="stroke:#181818;stroke-width:0.5;" width="128.5215" x="159.1738" y="1010.8818"/><text fill="#000000" font-family="sans-serif" font-size="12" lengthAdjust="spacing" textLength="108.5215" x="169.1738" y="1032.0205">Start at startClass</text><rect fill="#F1F1F1" height="33.9688" rx="12.5" ry="12.5" style="stroke:#181818;stroke-width:0.5;" width="128.6211" x="307.6953" y="1010.8818"/><text fill="#000000" font-family="sans-serif" font-size="12" lengthAdjust="spacing" textLength="108.6211" x="317.6953" y="1032.0205">Start at recv.class</text><polygon fill="#F1F1F1" points="297.7202,1050.8506,309.7202,1062.8506,297.7202,1074.8506,285.7202,1062.8506,297.7202,1050.8506" style="stroke:#181818;stroke-width:0.5;"/><rect fill="#F1F1F1" height="33.9688" rx="12.5" ry="12.5" style="stroke:#181818;stroke-width:0.5;" width="182.8496" x="206.2954" y="1197.2217"/><text fill="#000000" font-family="sans-serif" font-size="12" lengthAdjust="spacing" textLength="162.8496" x="216.2954" y="1218.3604">invoke(recv, method, args)</text><ellipse cx="297.7202" cy="1270.7061" fill="none" rx="11" ry="11" style="stroke:#222222;stroke-width:1;"/><ellipse cx="297.7202" cy="1270.7061" fill="#222222" rx="6" ry="6" style="stroke:#222222;stroke-width:1;"/><polygon fill="#F1F1F1" points="256.0486,1148.8193,339.3918,1148.8193,351.3918,1160.8193,339.3918,1172.8193,256.0486,1172.8193,244.0486,1160.8193,256.0486,1148.8193" style="stroke:#181818;stroke-width:0.5;"/><text fill="#000000" font-family="sans-serif" font-size="11" lengthAdjust="spacing" textLength="19.0083" x="301.7202" y="1183.0298">yes</text><text fill="#000000" font-family="sans-serif" font-size="11" lengthAdjust="spacing" textLength="83.3433" x="256.0486" y="1164.6274">method found?</text><rect fill="#F1F1F1" height="33.9688" rx="12.5" ry="12.5" style="stroke:#181818;stroke-width:0.5;" width="145.0566" x="225.1919" y="1323.7061"/><text fill="#000000" font-family="sans-serif" font-size="12" lengthAdjust="spacing" textLength="125.0566" x="235.1919" y="1344.8447">Move to parent class</text><rect fill="#F1F1F1" height="33.9688" rx="12.5" ry="12.5" style="stroke:#181818;stroke-width:0.5;" width="138.0957" x="228.6724" y="1094.8506"/><text fill="#000000" font-family="sans-serif" font-size="12" lengthAdjust="spacing" textLength="118.0957" x="238.6724" y="1115.9893">Check current class</text><polygon fill="#F1F1F1" points="258.7825,1377.6748,336.658,1377.6748,348.658,1389.6748,336.658,1401.6748,258.7825,1401.6748,246.7825,1389.6748,258.7825,1377.6748" style="stroke:#181818;stroke-width:0.5;"/><text fill="#000000" font-family="sans-serif" font-size="11" lengthAdjust="spacing" textLength="77.8755" x="258.7825" y="1393.4829">more classes?</text><text fill="#000000" font-family="sans-serif" font-size="11" lengthAdjust="spacing" textLength="19.0083" x="348.658" y="1387.0806">yes</text><rect fill="#F1F1F1" height="33.9688" rx="12.5" ry="12.5" style="stroke:#181818;stroke-width:0.5;" width="117.793" x="238.8237" y="1422.6904"/><text fill="#000000" font-family="sans-serif" font-size="12" lengthAdjust="spacing" textLength="97.793" x="248.8237" y="1443.8291">Try builtin again</text><polygon fill="#F1F1F1" points="250.3257,1476.6592,345.1147,1476.6592,357.1147,1488.6592,345.1147,1500.6592,250.3257,1500.6592,238.3257,1488.6592,250.3257,1476.6592" style="stroke:#181818;stroke-width:0.5;"/><text fill="#000000" font-family="sans-serif" font-size="11" lengthAdjust="spacing" textLength="94.7891" x="250.3257" y="1492.4673">builtin succeeds?</text><text fill="#000000" font-family="sans-serif" font-size="11" lengthAdjust="spacing" textLength="19.0083" x="357.1147" y="1486.0649">yes</text><ellipse cx="398.123" cy="1488.6592" fill="none" rx="11" ry="11" style="stroke:#222222;stroke-width:1;"/><ellipse cx="398.123" cy="1488.6592" fill="#222222" rx="6" ry="6" style="stroke:#222222;stroke-width:1;"/><polygon fill="#F1F1F1" points="132.2366,1520.6592,221.9661,1520.6592,233.9661,1532.6592,221.9661,1544.6592,132.2366,1544.6592,120.2366,1532.6592,132.2366,1520.6592" style="stroke:#181818;stroke-width:0.5;"/><text fill="#000000" font-family="sans-serif" font-size="11" lengthAdjust="spacing" textLength="19.0083" x="181.1013" y="1554.8696">yes</text><text fill="#000000" font-family="sans-serif" font-size="11" lengthAdjust="spacing" textLength="89.7295" x="132.2366" y="1536.4673">attribute setter?</text><rect fill="#F1F1F1" height="33.9688" rx="12.5" ry="12.5" style="stroke:#181818;stroke-width:0.5;" width="95.8613" x="129.1707" y="1576.3696"/><text fill="#000000" font-family="sans-serif" font-size="12" lengthAdjust="spacing" textLength="75.8613" x="139.1707" y="1597.5083">Set attribute</text><rect fill="#F1F1F1" height="33.9688" rx="12.5" ry="12.5" style="stroke:#181818;stroke-width:0.5;" width="113.4336" x="120.3845" y="1630.3384"/><text fill="#000000" font-family="sans-serif" font-size="12" lengthAdjust="spacing" textLength="93.4336" x="130.3845" y="1651.4771">Return receiver</text><ellipse cx="177.1013" cy="1695.3071" fill="none" rx="11" ry="11" style="stroke:#222222;stroke-width:1;"/><ellipse cx="177.1013" cy="1695.3071" fill="#222222" rx="6" ry="6" style="stroke:#222222;stroke-width:1;"/><polygon fill="#F1F1F1" points="265.9661,1520.6592,413.2039,1520.6592,425.2039,1532.6592,413.2039,1544.6592,265.9661,1544.6592,253.9661,1532.6592,265.9661,1520.6592" style="stroke:#181818;stroke-width:0.5;"/><text fill="#000000" font-family="sans-serif" font-size="11" lengthAdjust="spacing" textLength="19.0083" x="343.585" y="1554.8696">yes</text><text fill="#000000" font-family="sans-serif" font-size="11" lengthAdjust="spacing" textLength="147.2378" x="265.9661" y="1536.4673">attribute getter &amp;&amp; exists?</text><rect fill="#F1F1F1" height="33.9688" rx="12.5" ry="12.5" style="stroke:#181818;stroke-width:0.5;" width="153.3184" x="262.9258" y="1576.3696"/><text fill="#000000" font-family="sans-serif" font-size="12" lengthAdjust="spacing" textLength="133.3184" x="272.9258" y="1597.5083">Return attribute value</text><ellipse cx="339.585" cy="1641.3384" fill="none" rx="11" ry="11" style="stroke:#222222;stroke-width:1;"/><ellipse cx="339.585" cy="1641.3384" fill="#222222" rx="6" ry="6" style="stroke:#222222;stroke-width:1;"/><polygon fill="#F1F1F1" points="251.5933,928.4795,343.8472,928.4795,355.8472,940.4795,343.8472,952.4795,251.5933,952.4795,239.5933,940.4795,251.5933,928.4795" style="stroke:#181818;stroke-width:0.5;"/><text fill="#000000" font-family="sans-serif" font-size="11" lengthAdjust="spacing" textLength="19.0083" x="301.7202" y="962.6899">yes</text><text fill="#000000" font-family="sans-serif" font-size="11" lengthAdjust="spacing" textLength="92.2539" x="251.5933" y="944.2876">recv is Instance?</text><polygon fill="#F1F1F1" points="297.7202,1726.3071,309.7202,1738.3071,297.7202,1750.3071,285.7202,1738.3071,297.7202,1726.3071" style="stroke:#181818;stroke-width:0.5;"/><rect fill="#F1F1F1" height="33.9688" rx="12.5" ry="12.5" style="stroke:#181818;stroke-width:0.5;" width="163.9414" x="215.7495" y="1770.3071"/><text fill="#000000" font-family="sans-serif" font-size="12" lengthAdjust="spacing" textLength="143.9414" x="225.7495" y="1791.4458">Throw MethodNotFound</text><ellipse cx="297.7202" cy="1835.2759" fill="none" rx="11" ry="11" style="stroke:#222222;stroke-width:1;"/><ellipse cx="297.7202" cy="1835.2759" fill="#222222" rx="6" ry="6" style="stroke:#222222;stroke-width:1;"/><line style="stroke:#181818;stroke-width:1;" x1="297.7202" x2="297.7202" y1="169.668" y2="204.668"/><polygon fill="#181818" points="293.7202,194.668,297.7202,204.668,301.7202,194.668,297.7202,198.668" style="stroke:#181818;stroke-width:1;"/><line style="stroke:#181818;stroke-width:1;" x1="297.7202" x2="297.7202" y1="111.2969" y2="135.6992"/><polygon fill="#181818" points="293.7202,125.6992,297.7202,135.6992,301.7202,125.6992,297.7202,129.6992" style="stroke:#181818;stroke-width:1;"/><line style="stroke:#181818;stroke-width:1;" x1="364.0193" x2="376.0193" y1="99.2969" y2="99.2969"/><polygon fill="#181818" points="372.0193,177.168,376.0193,187.168,380.0193,177.168,376.0193,181.168" style="stroke:#181818;stroke-width:1;"/><line style="stroke:#181818;stroke-width:1;" x1="376.0193" x2="376.0193" y1="99.2969" y2="270.6367"/><line style="stroke:#181818;stroke-width:1;" x1="376.0193" x2="309.7202" y1="270.6367" y2="270.6367"/><polygon fill="#181818" points="319.7202,266.6367,309.7202,270.6367,319.7202,274.6367,315.7202,270.6367" style="stroke:#181818;stroke-width:1;"/><line style="stroke:#181818;stroke-width:1;" x1="297.7202" x2="297.7202" y1="238.6367" y2="258.6367"/><polygon fill="#181818" points="293.7202,248.6367,297.7202,258.6367,301.7202,248.6367,297.7202,252.6367" style="stroke:#181818;stroke-width:1;"/><line style="stroke:#181818;stroke-width:1;" x1="297.7202" x2="297.7202" y1="67.2969" y2="87.2969"/><polygon fill="#181818" points="293.7202,77.2969,297.7202,87.2969,301.7202,77.2969,297.7202,81.2969" style="stroke:#181818;stroke-width:1;"/><line style="stroke:#181818;stroke-width:1;" x1="81.2046" x2="81.2046" y1="448.0264" y2="476.1396"/><polygon fill="#181818" points="77.2046,466.1396,81.2046,476.1396,85.2046,466.1396,81.2046,470.1396" style="stroke:#181818;stroke-width:1;"/><line style="stroke:#181818;stroke-width:1;" x1="234.6445" x2="234.6445" y1="448.0264" y2="476.1396"/><polygon fill="#181818" points="230.6445,466.1396,234.6445,476.1396,238.6445,466.1396,234.6445,470.1396" style="stroke:#181818;stroke-width:1;"/><line style="stroke:#181818;stroke-width:1;" x1="426.1602" x2="426.1602" y1="448.0264" y2="476.1396"/><polygon fill="#181818" points="422.1602,466.1396,426.1602,476.1396,430.1602,466.1396,426.1602,470.1396" style="stroke:#181818;stroke-width:1;"/><line style="stroke:#181818;stroke-width:1;" x1="81.2046" x2="81.2046" y1="382.3472" y2="414.0576"/><polygon fill="#181818" points="77.2046,404.0576,81.2046,414.0576,85.2046,404.0576,81.2046,408.0576" style="stroke:#181818;stroke-width:1;"/><line style="stroke:#181818;stroke-width:1;" x1="234.6445" x2="234.6445" y1="382.3472" y2="414.0576"/><polygon fill="#181818" points="230.6445,404.0576,234.6445,414.0576,238.6445,404.0576,234.6445,408.0576" style="stroke:#181818;stroke-width:1;"/><line style="stroke:#181818;stroke-width:1;" x1="426.1602" x2="426.1602" y1="382.3472" y2="414.0576"/><polygon fill="#181818" points="422.1602,404.0576,426.1602,414.0576,430.1602,404.0576,426.1602,408.0576" style="stroke:#181818;stroke-width:1;"/><line style="stroke:#181818;stroke-width:1;" x1="142.4092" x2="170.0347" y1="370.3472" y2="370.3472"/><polygon fill="#181818" points="160.0347,366.3472,170.0347,370.3472,160.0347,374.3472,164.0347,370.3472" style="stroke:#181818;stroke-width:1;"/><line style="stroke:#181818;stroke-width:1;" x1="299.2544" x2="326.8799" y1="370.3472" y2="370.3472"/><polygon fill="#181818" points="316.8799,366.3472,326.8799,370.3472,316.8799,374.3472,320.8799,370.3472" style="stroke:#181818;stroke-width:1;"/><line style="stroke:#181818;stroke-width:1;" x1="297.7202" x2="297.7202" y1="326.6367" y2="343.3472"/><line style="stroke:#181818;stroke-width:1;" x1="297.7202" x2="81.2046" y1="343.3472" y2="343.3472"/><line style="stroke:#181818;stroke-width:1;" x1="81.2046" x2="81.2046" y1="343.3472" y2="358.3472"/><polygon fill="#181818" points="77.2046,348.3472,81.2046,358.3472,85.2046,348.3472,81.2046,352.3472" style="stroke:#181818;stroke-width:1;"/><line style="stroke:#181818;stroke-width:1;" x1="525.4404" x2="530.4404" y1="370.3472" y2="370.3472"/><line style="stroke:#181818;stroke-width:1;" x1="530.4404" x2="530.4404" y1="370.3472" y2="503.1396"/><line style="stroke:#181818;stroke-width:1;" x1="530.4404" x2="297.7202" y1="503.1396" y2="503.1396"/><line style="stroke:#181818;stroke-width:1;" x1="297.7202" x2="297.7202" y1="503.1396" y2="518.1396"/><polygon fill="#181818" points="293.7202,508.1396,297.7202,518.1396,301.7202,508.1396,297.7202,512.1396" style="stroke:#181818;stroke-width:1;"/><line style="stroke:#181818;stroke-width:1;" x1="356.4783" x2="539.4404" y1="314.6367" y2="314.6367"/><polygon fill="#181818" points="535.4404,446.1396,539.4404,456.1396,543.4404,446.1396,539.4404,450.1396" style="stroke:#181818;stroke-width:1;"/><line style="stroke:#181818;stroke-width:1;" x1="539.4404" x2="539.4404" y1="314.6367" y2="530.1396"/><line style="stroke:#181818;stroke-width:1;" x1="539.4404" x2="309.7202" y1="530.1396" y2="530.1396"/><polygon fill="#181818" points="319.7202,526.1396,309.7202,530.1396,319.7202,534.1396,315.7202,530.1396" style="stroke:#181818;stroke-width:1;"/><line style="stroke:#181818;stroke-width:1;" x1="297.7202" x2="297.7202" y1="282.6367" y2="302.6367"/><polygon fill="#181818" points="293.7202,292.6367,297.7202,302.6367,301.7202,292.6367,297.7202,296.6367" style="stroke:#181818;stroke-width:1;"/><line style="stroke:#181818;stroke-width:1;" x1="375.1365" x2="375.1365" y1="776.5107" y2="798.5107"/><line style="stroke:#181818;stroke-width:1;" x1="375.1365" x2="309.7202" y1="798.5107" y2="798.5107"/><polygon fill="#181818" points="319.7202,794.5107,309.7202,798.5107,319.7202,802.5107,315.7202,798.5107" style="stroke:#181818;stroke-width:1;"/><line style="stroke:#181818;stroke-width:1;" x1="434.531" x2="464.5393" y1="764.5107" y2="764.5107"/><polygon fill="#181818" points="454.5393,760.5107,464.5393,764.5107,454.5393,768.5107,458.5393,764.5107" style="stroke:#181818;stroke-width:1;"/><line style="stroke:#181818;stroke-width:1;" x1="375.1365" x2="375.1365" y1="732.4795" y2="752.5107"/><polygon fill="#181818" points="371.1365,742.5107,375.1365,752.5107,379.1365,742.5107,375.1365,746.5107" style="stroke:#181818;stroke-width:1;"/><line style="stroke:#181818;stroke-width:1;" x1="230.304" x2="220.304" y1="676.5107" y2="676.5107"/><line style="stroke:#181818;stroke-width:1;" x1="220.304" x2="220.304" y1="676.5107" y2="698.5107"/><polygon fill="#181818" points="216.304,688.5107,220.304,698.5107,224.304,688.5107,220.304,692.5107" style="stroke:#181818;stroke-width:1;"/><line style="stroke:#181818;stroke-width:1;" x1="365.1365" x2="375.1365" y1="676.5107" y2="676.5107"/><line style="stroke:#181818;stroke-width:1;" x1="375.1365" x2="375.1365" y1="676.5107" y2="698.5107"/><polygon fill="#181818" points="371.1365,688.5107,375.1365,698.5107,379.1365,688.5107,375.1365,692.5107" style="stroke:#181818;stroke-width:1;"/><line style="stroke:#181818;stroke-width:1;" x1="220.304" x2="220.304" y1="732.4795" y2="798.5107"/><line style="stroke:#181818;stroke-width:1;" x1="220.304" x2="285.7202" y1="798.5107" y2="798.5107"/><polygon fill="#181818" points="275.7202,794.5107,285.7202,798.5107,275.7202,802.5107,279.7202,798.5107" style="stroke:#181818;stroke-width:1;"/><line style="stroke:#181818;stroke-width:1;" x1="297.7202" x2="297.7202" y1="644.5107" y2="664.5107"/><polygon fill="#181818" points="293.7202,654.5107,297.7202,664.5107,301.7202,654.5107,297.7202,658.5107" style="stroke:#181818;stroke-width:1;"/><line style="stroke:#181818;stroke-width:1;" x1="297.7202" x2="297.7202" y1="586.1396" y2="610.542"/><polygon fill="#181818" points="293.7202,600.542,297.7202,610.542,301.7202,600.542,297.7202,604.542" style="stroke:#181818;stroke-width:1;"/><line style="stroke:#181818;stroke-width:1;" x1="417.1689" x2="518.5393" y1="574.1396" y2="574.1396"/><polygon fill="#181818" points="514.5393,722.5107,518.5393,732.5107,522.5393,722.5107,518.5393,726.5107" style="stroke:#181818;stroke-width:1;"/><line style="stroke:#181818;stroke-width:1;" x1="518.5393" x2="518.5393" y1="574.1396" y2="842.5107"/><line style="stroke:#181818;stroke-width:1;" x1="518.5393" x2="309.7202" y1="842.5107" y2="842.5107"/><polygon fill="#181818" points="319.7202,838.5107,309.7202,842.5107,319.7202,846.5107,315.7202,842.5107" style="stroke:#181818;stroke-width:1;"/><line style="stroke:#181818;stroke-width:1;" x1="297.7202" x2="297.7202" y1="810.5107" y2="830.5107"/><polygon fill="#181818" points="293.7202,820.5107,297.7202,830.5107,301.7202,820.5107,297.7202,824.5107" style="stroke:#181818;stroke-width:1;"/><line style="stroke:#181818;stroke-width:1;" x1="297.7202" x2="297.7202" y1="542.1396" y2="562.1396"/><polygon fill="#181818" points="293.7202,552.1396,297.7202,562.1396,301.7202,552.1396,297.7202,556.1396" style="stroke:#181818;stroke-width:1;"/><line style="stroke:#181818;stroke-width:1;" x1="297.7202" x2="297.7202" y1="854.5107" y2="874.5107"/><polygon fill="#181818" points="293.7202,864.5107,297.7202,874.5107,301.7202,864.5107,297.7202,868.5107" style="stroke:#181818;stroke-width:1;"/><line style="stroke:#181818;stroke-width:1;" x1="237.7188" x2="223.4346" y1="988.8818" y2="988.8818"/><line style="stroke:#181818;stroke-width:1;" x1="223.4346" x2="223.4346" y1="988.8818" y2="1010.8818"/><polygon fill="#181818" points="219.4346,1000.8818,223.4346,1010.8818,227.4346,1000.8818,223.4346,1004.8818" style="stroke:#181818;stroke-width:1;"/><line style="stroke:#181818;stroke-width:1;" x1="357.7217" x2="372.0059" y1="988.8818" y2="988.8818"/><line style="stroke:#181818;stroke-width:1;" x1="372.0059" x2="372.0059" y1="988.8818" y2="1010.8818"/><polygon fill="#181818" points="368.0059,1000.8818,372.0059,1010.8818,376.0059,1000.8818,372.0059,1004.8818" style="stroke:#181818;stroke-width:1;"/><line style="stroke:#181818;stroke-width:1;" x1="223.4346" x2="223.4346" y1="1044.8506" y2="1062.8506"/><line style="stroke:#181818;stroke-width:1;" x1="223.4346" x2="285.7202" y1="1062.8506" y2="1062.8506"/><polygon fill="#181818" points="275.7202,1058.8506,285.7202,1062.8506,275.7202,1066.8506,279.7202,1062.8506" style="stroke:#181818;stroke-width:1;"/><line style="stroke:#181818;stroke-width:1;" x1="372.0059" x2="372.0059" y1="1044.8506" y2="1062.8506"/><line style="stroke:#181818;stroke-width:1;" x1="372.0059" x2="309.7202" y1="1062.8506" y2="1062.8506"/><polygon fill="#181818" points="319.7202,1058.8506,309.7202,1062.8506,319.7202,1066.8506,315.7202,1062.8506" style="stroke:#181818;stroke-width:1;"/><line style="stroke:#181818;stroke-width:1;" x1="297.7202" x2="297.7202" y1="1231.1904" y2="1259.7061"/><polygon fill="#181818" points="293.7202,1249.7061,297.7202,1259.7061,301.7202,1249.7061,297.7202,1253.7061" style="stroke:#181818;stroke-width:1;"/><line style="stroke:#181818;stroke-width:1;" x1="297.7202" x2="297.7202" y1="1172.8193" y2="1197.2217"/><polygon fill="#181818" points="293.7202,1187.2217,297.7202,1197.2217,301.7202,1187.2217,297.7202,1191.2217" style="stroke:#181818;stroke-width:1;"/><line style="stroke:#181818;stroke-width:1;" x1="351.3918" x2="399.145" y1="1160.8193" y2="1160.8193"/><polygon fill="#181818" points="395.145,1229.7061,399.145,1239.7061,403.145,1229.7061,399.145,1233.7061" style="stroke:#181818;stroke-width:1;"/><line style="stroke:#181818;stroke-width:1;" x1="399.145" x2="399.145" y1="1160.8193" y2="1303.7061"/><line style="stroke:#181818;stroke-width:1;" x1="399.145" x2="297.7202" y1="1303.7061" y2="1303.7061"/><line style="stroke:#181818;stroke-width:1;" x1="297.7202" x2="297.7202" y1="1303.7061" y2="1323.7061"/><polygon fill="#181818" points="293.7202,1313.7061,297.7202,1323.7061,301.7202,1313.7061,297.7202,1317.7061" style="stroke:#181818;stroke-width:1;"/><line style="stroke:#181818;stroke-width:1;" x1="297.7202" x2="297.7202" y1="1128.8193" y2="1148.8193"/><polygon fill="#181818" points="293.7202,1138.8193,297.7202,1148.8193,301.7202,1138.8193,297.7202,1142.8193" style="stroke:#181818;stroke-width:1;"/><line style="stroke:#181818;stroke-width:1;" x1="348.658" x2="423.145" y1="1389.6748" y2="1389.6748"/><polygon fill="#181818" points="419.145,1269.2139,423.145,1259.2139,427.145,1269.2139,423.145,1265.2139" style="stroke:#181818;stroke-width:1;"/><line style="stroke:#181818;stroke-width:1;" x1="423.145" x2="423.145" y1="1111.835" y2="1389.6748"/><line style="stroke:#181818;stroke-width:1;" x1="423.145" x2="366.7681" y1="1111.835" y2="1111.835"/><polygon fill="#181818" points="376.7681,1107.835,366.7681,1111.835,376.7681,1115.835,372.7681,1111.835" style="stroke:#181818;stroke-width:1;"/><line style="stroke:#181818;stroke-width:1;" x1="297.7202" x2="297.7202" y1="1357.6748" y2="1377.6748"/><polygon fill="#181818" points="293.7202,1367.6748,297.7202,1377.6748,301.7202,1367.6748,297.7202,1371.6748" style="stroke:#181818;stroke-width:1;"/><line style="stroke:#181818;stroke-width:1;" x1="297.7202" x2="297.7202" y1="1074.8506" y2="1094.8506"/><polygon fill="#181818" points="293.7202,1084.8506,297.7202,1094.8506,301.7202,1084.8506,297.7202,1088.8506" style="stroke:#181818;stroke-width:1;"/><line style="stroke:#181818;stroke-width:1;" x1="297.7202" x2="297.7202" y1="1401.6748" y2="1422.6904"/><polygon fill="#181818" points="293.7202,1412.6904,297.7202,1422.6904,301.7202,1412.6904,297.7202,1416.6904" style="stroke:#181818;stroke-width:1;"/><line style="stroke:#181818;stroke-width:1;" x1="297.7202" x2="297.7202" y1="1500.6592" y2="1505.6592"/><line style="stroke:#181818;stroke-width:1;" x1="357.1147" x2="387.123" y1="1488.6592" y2="1488.6592"/><polygon fill="#181818" points="377.123,1484.6592,387.123,1488.6592,377.123,1492.6592,381.123,1488.6592" style="stroke:#181818;stroke-width:1;"/><line style="stroke:#181818;stroke-width:1;" x1="297.7202" x2="297.7202" y1="1456.6592" y2="1476.6592"/><polygon fill="#181818" points="293.7202,1466.6592,297.7202,1476.6592,301.7202,1466.6592,297.7202,1470.6592" style="stroke:#181818;stroke-width:1;"/><line style="stroke:#181818;stroke-width:1;" x1="177.1013" x2="177.1013" y1="1610.3384" y2="1630.3384"/><polygon fill="#181818" points="173.1013,1620.3384,177.1013,1630.3384,181.1013,1620.3384,177.1013,1624.3384" style="stroke:#181818;stroke-width:1;"/><line style="stroke:#181818;stroke-width:1;" x1="177.1013" x2="177.1013" y1="1664.3071" y2="1684.3071"/><polygon fill="#181818" points="173.1013,1674.3071,177.1013,1684.3071,181.1013,1674.3071,177.1013,1678.3071" style="stroke:#181818;stroke-width:1;"/><line style="stroke:#181818;stroke-width:1;" x1="339.585" x2="339.585" y1="1610.3384" y2="1630.3384"/><polygon fill="#181818" points="335.585,1620.3384,339.585,1630.3384,343.585,1620.3384,339.585,1624.3384" style="stroke:#181818;stroke-width:1;"/><line style="stroke:#181818;stroke-width:1;" x1="177.1013" x2="177.1013" y1="1544.6592" y2="1576.3696"/><polygon fill="#181818" points="173.1013,1566.3696,177.1013,1576.3696,181.1013,1566.3696,177.1013,1570.3696" style="stroke:#181818;stroke-width:1;"/><line style="stroke:#181818;stroke-width:1;" x1="339.585" x2="339.585" y1="1544.6592" y2="1576.3696"/><polygon fill="#181818" points="335.585,1566.3696,339.585,1576.3696,343.585,1566.3696,339.585,1570.3696" style="stroke:#181818;stroke-width:1;"/><line style="stroke:#181818;stroke-width:1;" x1="233.9661" x2="253.9661" y1="1532.6592" y2="1532.6592"/><polygon fill="#181818" points="243.9661,1528.6592,253.9661,1532.6592,243.9661,1536.6592,247.9661,1532.6592" style="stroke:#181818;stroke-width:1;"/><line style="stroke:#181818;stroke-width:1;" x1="297.7202" x2="177.1013" y1="1505.6592" y2="1505.6592"/><line style="stroke:#181818;stroke-width:1;" x1="177.1013" x2="177.1013" y1="1505.6592" y2="1520.6592"/><polygon fill="#181818" points="173.1013,1510.6592,177.1013,1520.6592,181.1013,1510.6592,177.1013,1514.6592" style="stroke:#181818;stroke-width:1;"/><line style="stroke:#181818;stroke-width:1;" x1="425.2039" x2="460.2039" y1="1532.6592" y2="1532.6592"/><line style="stroke:#181818;stroke-width:1;" x1="460.2039" x2="460.2039" y1="1532.6592" y2="1711.3071"/><line style="stroke:#181818;stroke-width:1;" x1="460.2039" x2="297.7202" y1="1711.3071" y2="1711.3071"/><line style="stroke:#181818;stroke-width:1;" x1="297.7202" x2="297.7202" y1="1711.3071" y2="1726.3071"/><polygon fill="#181818" points="293.7202,1716.3071,297.7202,1726.3071,301.7202,1716.3071,297.7202,1720.3071" style="stroke:#181818;stroke-width:1;"/><line style="stroke:#181818;stroke-width:1;" x1="297.7202" x2="297.7202" y1="952.4795" y2="976.8818"/><polygon fill="#181818" points="293.7202,966.8818,297.7202,976.8818,301.7202,966.8818,297.7202,970.8818" style="stroke:#181818;stroke-width:1;"/><line style="stroke:#181818;stroke-width:1;" x1="355.8472" x2="485.2039" y1="940.4795" y2="940.4795"/><polygon fill="#181818" points="481.2039,1392.6904,485.2039,1402.6904,489.2039,1392.6904,485.2039,1396.6904" style="stroke:#181818;stroke-width:1;"/><line style="stroke:#181818;stroke-width:1;" x1="485.2039" x2="485.2039" y1="940.4795" y2="1738.3071"/><line style="stroke:#181818;stroke-width:1;" x1="485.2039" x2="309.7202" y1="1738.3071" y2="1738.3071"/><polygon fill="#181818" points="319.7202,1734.3071,309.7202,1738.3071,319.7202,1742.3071,315.7202,1738.3071" style="stroke:#181818;stroke-width:1;"/><line style="stroke:#181818;stroke-width:1;" x1="297.7202" x2="297.7202" y1="908.4795" y2="928.4795"/><polygon fill="#181818" points="293.7202,918.4795,297.7202,928.4795,301.7202,918.4795,297.7202,922.4795" style="stroke:#181818;stroke-width:1;"/><line style="stroke:#181818;stroke-width:1;" x1="297.7202" x2="297.7202" y1="1750.3071" y2="1770.3071"/><polygon fill="#181818" points="293.7202,1760.3071,297.7202,1770.3071,301.7202,1760.3071,297.7202,1764.3071" style="stroke:#181818;stroke-width:1;"/><line style="stroke:#181818;stroke-width:1;" x1="297.7202" x2="297.7202" y1="1804.2759" y2="1824.2759"/><polygon fill="#181818" points="293.7202,1814.2759,297.7202,1824.2759,301.7202,1814.2759,297.7202,1818.2759" style="stroke:#181818;stroke-width:1;"/><!--SRC=[XLH1RkCm3Bpx5KGEXGCK-m3xiC2s6w27Befk-m1LfcEXZXI8T9pyVYbPTXF7sG8v6DHeE3EamePRX6SaKbjyDBHNh1lqHK5eAzYqhiyoOkKvoqmDkKTz04FmjzkZV_7kUFgv1cxGGdv2McS0nUyZUwKPugs7LX6LeVnkUw_s8CKjSfa9kwalEIFs4UivOy0GjgZP-O1RMUnNSv1qC5PQMZQACL-NiKRizlA1BU4LI-tThlY6PoEON1GlqqrXi3Ts2pheXzvm0okFgbhY7g2_YY80vYfZ96V1M0SKSeOgpGNkxc1i-XHLQhpAVwE8GU0Do23r9zJYjoDXsI4thehJ2EndDS5qjbgGgvtaO3iia-kWAHsz-HDyTAQLyyGoc0dKOvqwhH4hkcQUJ8-sP_QBzpDre_toSbzk9H0dFIqVuD4Gq-8i10DglgapdnCgjFsX9rHIBJ-FUvJpuY76hJllqJ9Co47G_uEEMtTmdnZDtIVZzo2hHsb95XAJMy_kWC1EvdtPD6dg6oElEzyvZyCPXY0akx5rDfkasYfZnmtvVemNcvjkAPOT_-WOWP0P_LBo619DiC5UyOhSUHjIHdD0l_ZWlgYtaJgyXvlZJOHVTmwgxV3sYolU6kzw-IiCqVznl0cZAhC0_GS0]--></g></svg>